<?xml version="1.0" encoding="utf-8" standalone="no"?>
<!DOCTYPE svg PUBLIC "-//W3C//DTD SVG 1.1//EN"
  "http://www.w3.org/Graphics/SVG/1.1/DTD/svg11.dtd">
<svg xmlns:xlink="http://www.w3.org/1999/xlink" width="504pt" height="288pt" viewBox="0 0 504 288" xmlns="http://www.w3.org/2000/svg" version="1.1">
 <metadata>
  <rdf:RDF xmlns:dc="http://purl.org/dc/elements/1.1/" xmlns:cc="http://creativecommons.org/ns#" xmlns:rdf="http://www.w3.org/1999/02/22-rdf-syntax-ns#">
   <cc:Work>
    <dc:type rdf:resource="http://purl.org/dc/dcmitype/StillImage"/>
    <dc:date>2024-03-15T16:08:37.588657</dc:date>
    <dc:format>image/svg+xml</dc:format>
    <dc:creator>
     <cc:Agent>
      <dc:title>Matplotlib v3.8.2, https://matplotlib.org/</dc:title>
     </cc:Agent>
    </dc:creator>
   </cc:Work>
  </rdf:RDF>
 </metadata>
 <defs>
  <style type="text/css">*{stroke-linejoin: round; stroke-linecap: butt}</style>
 </defs>
 <g id="figure_1">
  <g id="patch_1">
   <path d="M 0 288 
L 504 288 
L 504 0 
L 0 0 
z
" style="fill: #ffffff"/>
  </g>
  <g id="axes_1">
   <g id="patch_2">
    <path d="M 63 256.32 
L 453.6 256.32 
L 453.6 34.56 
L 63 34.56 
z
" style="fill: #ffffff"/>
   </g>
   <g id="PolyCollection_1">
    <defs>
     <path id="m89c93b6341" d="M 89.209963 -41.76 
L 89.165886 -41.76 
L 89.144629 -43.796364 
L 89.117204 -45.832727 
L 89.08382 -47.869091 
L 89.045653 -49.905455 
L 89.004961 -51.941818 
L 88.964971 -53.978182 
L 88.929517 -56.014545 
L 88.902444 -58.050909 
L 88.886925 -60.087273 
L 88.884818 -62.123636 
L 88.896259 -64.16 
L 88.919585 -66.196364 
L 88.951599 -68.232727 
L 88.988102 -70.269091 
L 89.024545 -72.305455 
L 89.056644 -74.341818 
L 89.080847 -76.378182 
L 89.094617 -78.414545 
L 89.09657 -80.450909 
L 89.086512 -82.487273 
L 89.065446 -84.523636 
L 89.035547 -86.56 
L 89.000062 -88.596364 
L 88.963081 -90.632727 
L 88.929127 -92.669091 
L 88.902578 -94.705455 
L 88.88701 -96.741818 
L 88.884599 -98.778182 
L 88.895748 -100.814545 
L 88.919024 -102.850909 
L 88.951438 -104.887273 
L 88.988972 -106.923636 
L 89.027201 -108.96 
L 89.061852 -110.996364 
L 89.089159 -113.032727 
L 89.106 -115.069091 
L 89.10984 -117.105455 
L 89.098602 -119.141818 
L 89.070595 -121.178182 
L 89.024576 -123.214545 
L 88.959989 -125.250909 
L 88.877303 -127.287273 
L 88.778341 -129.323636 
L 88.66645 -131.36 
L 88.546376 -133.396364 
L 88.423798 -135.432727 
L 88.304575 -137.469091 
L 88.19385 -139.505455 
L 88.09523 -141.541818 
L 88.010254 -143.578182 
L 87.938313 -145.614545 
L 87.877065 -147.650909 
L 87.823243 -149.687273 
L 87.77367 -151.723636 
L 87.726182 -153.76 
L 87.680193 -155.796364 
L 87.636706 -157.832727 
L 87.597688 -159.869091 
L 87.564931 -161.905455 
L 87.53867 -163.941818 
L 87.516355 -165.978182 
L 87.491992 -168.014545 
L 87.456359 -170.050909 
L 87.398195 -172.087273 
L 87.306172 -174.123636 
L 87.171203 -176.16 
L 86.988477 -178.196364 
L 86.758621 -180.232727 
L 86.487576 -182.269091 
L 86.185093 -184.305455 
L 85.862152 -186.341818 
L 85.527922 -188.378182 
L 85.187094 -190.414545 
L 84.838413 -192.450909 
L 84.475005 -194.487273 
L 84.086687 -196.523636 
L 83.663896 -198.56 
L 83.20243 -200.596364 
L 82.707825 -202.632727 
L 82.198187 -204.669091 
L 81.704559 -206.705455 
L 81.268431 -208.741818 
L 80.936648 -210.778182 
L 80.754545 -212.814545 
L 80.758584 -214.850909 
L 80.969878 -216.887273 
L 81.389912 -218.923636 
L 81.999321 -220.96 
L 82.76006 -222.996364 
L 83.620568 -225.032727 
L 84.522956 -227.069091 
L 85.410792 -229.105455 
L 86.235999 -231.141818 
L 86.96365 -233.178182 
L 87.574032 -235.214545 
L 88.061998 -237.250909 
L 88.434246 -239.287273 
L 88.705463 -241.323636 
L 88.894315 -243.36 
L 89.209963 -243.36 
L 89.209963 -243.36 
L 89.209963 -241.323636 
L 89.209963 -239.287273 
L 89.209963 -237.250909 
L 89.209963 -235.214545 
L 89.209963 -233.178182 
L 89.209963 -231.141818 
L 89.209963 -229.105455 
L 89.209963 -227.069091 
L 89.209963 -225.032727 
L 89.209963 -222.996364 
L 89.209963 -220.96 
L 89.209963 -218.923636 
L 89.209963 -216.887273 
L 89.209963 -214.850909 
L 89.209963 -212.814545 
L 89.209963 -210.778182 
L 89.209963 -208.741818 
L 89.209963 -206.705455 
L 89.209963 -204.669091 
L 89.209963 -202.632727 
L 89.209963 -200.596364 
L 89.209963 -198.56 
L 89.209963 -196.523636 
L 89.209963 -194.487273 
L 89.209963 -192.450909 
L 89.209963 -190.414545 
L 89.209963 -188.378182 
L 89.209963 -186.341818 
L 89.209963 -184.305455 
L 89.209963 -182.269091 
L 89.209963 -180.232727 
L 89.209963 -178.196364 
L 89.209963 -176.16 
L 89.209963 -174.123636 
L 89.209963 -172.087273 
L 89.209963 -170.050909 
L 89.209963 -168.014545 
L 89.209963 -165.978182 
L 89.209963 -163.941818 
L 89.209963 -161.905455 
L 89.209963 -159.869091 
L 89.209963 -157.832727 
L 89.209963 -155.796364 
L 89.209963 -153.76 
L 89.209963 -151.723636 
L 89.209963 -149.687273 
L 89.209963 -147.650909 
L 89.209963 -145.614545 
L 89.209963 -143.578182 
L 89.209963 -141.541818 
L 89.209963 -139.505455 
L 89.209963 -137.469091 
L 89.209963 -135.432727 
L 89.209963 -133.396364 
L 89.209963 -131.36 
L 89.209963 -129.323636 
L 89.209963 -127.287273 
L 89.209963 -125.250909 
L 89.209963 -123.214545 
L 89.209963 -121.178182 
L 89.209963 -119.141818 
L 89.209963 -117.105455 
L 89.209963 -115.069091 
L 89.209963 -113.032727 
L 89.209963 -110.996364 
L 89.209963 -108.96 
L 89.209963 -106.923636 
L 89.209963 -104.887273 
L 89.209963 -102.850909 
L 89.209963 -100.814545 
L 89.209963 -98.778182 
L 89.209963 -96.741818 
L 89.209963 -94.705455 
L 89.209963 -92.669091 
L 89.209963 -90.632727 
L 89.209963 -88.596364 
L 89.209963 -86.56 
L 89.209963 -84.523636 
L 89.209963 -82.487273 
L 89.209963 -80.450909 
L 89.209963 -78.414545 
L 89.209963 -76.378182 
L 89.209963 -74.341818 
L 89.209963 -72.305455 
L 89.209963 -70.269091 
L 89.209963 -68.232727 
L 89.209963 -66.196364 
L 89.209963 -64.16 
L 89.209963 -62.123636 
L 89.209963 -60.087273 
L 89.209963 -58.050909 
L 89.209963 -56.014545 
L 89.209963 -53.978182 
L 89.209963 -51.941818 
L 89.209963 -49.905455 
L 89.209963 -47.869091 
L 89.209963 -45.832727 
L 89.209963 -43.796364 
L 89.209963 -41.76 
z
" style="stroke: #3f3f3f; stroke-opacity: 0.6; stroke-width: 1.25"/>
    </defs>
    <g clip-path="url(#p7244867bbd)">
     <use xlink:href="#m89c93b6341" x="0" y="288" style="fill: #3274a1; fill-opacity: 0.6; stroke: #3f3f3f; stroke-opacity: 0.6; stroke-width: 1.25"/>
    </g>
   </g>
   <g id="PolyCollection_2">
    <defs>
     <path id="m35e859c285" d="M 89.290072 -97.450508 
L 89.209963 -97.450508 
L 89.209963 -98.798306 
L 89.209963 -100.146104 
L 89.209963 -101.493903 
L 89.209963 -102.841701 
L 89.209963 -104.189499 
L 89.209963 -105.537297 
L 89.209963 -106.885095 
L 89.209963 -108.232894 
L 89.209963 -109.580692 
L 89.209963 -110.92849 
L 89.209963 -112.276288 
L 89.209963 -113.624086 
L 89.209963 -114.971885 
L 89.209963 -116.319683 
L 89.209963 -117.667481 
L 89.209963 -119.015279 
L 89.209963 -120.363077 
L 89.209963 -121.710875 
L 89.209963 -123.058674 
L 89.209963 -124.406472 
L 89.209963 -125.75427 
L 89.209963 -127.102068 
L 89.209963 -128.449866 
L 89.209963 -129.797665 
L 89.209963 -131.145463 
L 89.209963 -132.493261 
L 89.209963 -133.841059 
L 89.209963 -135.188857 
L 89.209963 -136.536656 
L 89.209963 -137.884454 
L 89.209963 -139.232252 
L 89.209963 -140.58005 
L 89.209963 -141.927848 
L 89.209963 -143.275646 
L 89.209963 -144.623445 
L 89.209963 -145.971243 
L 89.209963 -147.319041 
L 89.209963 -148.666839 
L 89.209963 -150.014637 
L 89.209963 -151.362436 
L 89.209963 -152.710234 
L 89.209963 -154.058032 
L 89.209963 -155.40583 
L 89.209963 -156.753628 
L 89.209963 -158.101427 
L 89.209963 -159.449225 
L 89.209963 -160.797023 
L 89.209963 -162.144821 
L 89.209963 -163.492619 
L 89.209963 -164.840417 
L 89.209963 -166.188216 
L 89.209963 -167.536014 
L 89.209963 -168.883812 
L 89.209963 -170.23161 
L 89.209963 -171.579408 
L 89.209963 -172.927207 
L 89.209963 -174.275005 
L 89.209963 -175.622803 
L 89.209963 -176.970601 
L 89.209963 -178.318399 
L 89.209963 -179.666198 
L 89.209963 -181.013996 
L 89.209963 -182.361794 
L 89.209963 -183.709592 
L 89.209963 -185.05739 
L 89.209963 -186.405189 
L 89.209963 -187.752987 
L 89.209963 -189.100785 
L 89.209963 -190.448583 
L 89.209963 -191.796381 
L 89.209963 -193.144179 
L 89.209963 -194.491978 
L 89.209963 -195.839776 
L 89.209963 -197.187574 
L 89.209963 -198.535372 
L 89.209963 -199.88317 
L 89.209963 -201.230969 
L 89.209963 -202.578767 
L 89.209963 -203.926565 
L 89.209963 -205.274363 
L 89.209963 -206.622161 
L 89.209963 -207.96996 
L 89.209963 -209.317758 
L 89.209963 -210.665556 
L 89.209963 -212.013354 
L 89.209963 -213.361152 
L 89.209963 -214.70895 
L 89.209963 -216.056749 
L 89.209963 -217.404547 
L 89.209963 -218.752345 
L 89.209963 -220.100143 
L 89.209963 -221.447941 
L 89.209963 -222.79574 
L 89.209963 -224.143538 
L 89.209963 -225.491336 
L 89.209963 -226.839134 
L 89.209963 -228.186932 
L 89.209963 -229.534731 
L 89.209963 -230.882529 
L 89.421267 -230.882529 
L 89.421267 -230.882529 
L 89.530457 -229.534731 
L 89.680022 -228.186932 
L 89.877259 -226.839134 
L 90.127865 -225.491336 
L 90.434926 -224.143538 
L 90.798124 -222.79574 
L 91.213324 -221.447941 
L 91.672615 -220.100143 
L 92.164813 -218.752345 
L 92.67629 -217.404547 
L 93.192004 -216.056749 
L 93.696585 -214.70895 
L 94.175421 -213.361152 
L 94.615717 -212.013354 
L 95.007505 -210.665556 
L 95.344537 -209.317758 
L 95.62491 -207.96996 
L 95.851226 -206.622161 
L 96.030119 -205.274363 
L 96.171133 -203.926565 
L 96.285049 -202.578767 
L 96.381981 -201.230969 
L 96.469575 -199.88317 
L 96.551657 -198.535372 
L 96.627527 -197.187574 
L 96.692008 -195.839776 
L 96.736194 -194.491978 
L 96.748819 -193.144179 
L 96.718105 -191.796381 
L 96.63389 -190.448583 
L 96.489774 -189.100785 
L 96.284881 -187.752987 
L 96.024819 -186.405189 
L 95.721452 -185.05739 
L 95.39132 -183.709592 
L 95.052875 -182.361794 
L 94.723093 -181.013996 
L 94.414263 -179.666198 
L 94.131806 -178.318399 
L 93.873772 -176.970601 
L 93.632171 -175.622803 
L 93.395824 -174.275005 
L 93.153939 -172.927207 
L 92.899455 -171.579408 
L 92.631252 -170.23161 
L 92.354697 -168.883812 
L 92.080458 -167.536014 
L 91.821978 -166.188216 
L 91.59232 -164.840417 
L 91.40119 -163.492619 
L 91.252819 -162.144821 
L 91.145136 -160.797023 
L 91.070274 -159.449225 
L 91.016216 -158.101427 
L 90.969098 -156.753628 
L 90.915667 -155.40583 
L 90.845384 -154.058032 
L 90.751846 -152.710234 
L 90.633324 -151.362436 
L 90.492475 -150.014637 
L 90.335375 -148.666839 
L 90.170155 -147.319041 
L 90.005533 -145.971243 
L 89.849514 -144.623445 
L 89.708429 -143.275646 
L 89.586428 -141.927848 
L 89.485402 -140.58005 
L 89.405262 -139.232252 
L 89.344456 -137.884454 
L 89.300578 -136.536656 
L 89.270974 -135.188857 
L 89.253251 -133.841059 
L 89.245645 -132.493261 
L 89.247243 -131.145463 
L 89.258039 -129.797665 
L 89.278833 -128.449866 
L 89.310973 -127.102068 
L 89.355941 -125.75427 
L 89.414818 -124.406472 
L 89.487679 -123.058674 
L 89.573032 -121.710875 
L 89.667439 -120.363077 
L 89.765435 -119.015279 
L 89.859879 -117.667481 
L 89.942712 -116.319683 
L 90.006054 -114.971885 
L 90.043425 -113.624086 
L 90.050832 -112.276288 
L 90.027468 -110.92849 
L 89.975858 -109.580692 
L 89.901412 -108.232894 
L 89.811488 -106.885095 
L 89.714205 -105.537297 
L 89.61725 -104.189499 
L 89.526935 -102.841701 
L 89.447637 -101.493903 
L 89.381659 -100.146104 
L 89.329454 -98.798306 
L 89.290072 -97.450508 
z
" style="stroke: #3f3f3f; stroke-opacity: 0.6; stroke-width: 1.25"/>
    </defs>
    <g clip-path="url(#p7244867bbd)">
     <use xlink:href="#m35e859c285" x="0" y="288" style="fill: #e1812c; fill-opacity: 0.6; stroke: #3f3f3f; stroke-opacity: 0.6; stroke-width: 1.25"/>
    </g>
   </g>
   <g id="PolyCollection_3">
    <defs>
     <path id="m2b74db9100" d="M 167.990756 -120.550537 
L 167.921354 -120.550537 
L 167.891625 -121.7158 
L 167.854026 -122.881064 
L 167.808649 -124.046327 
L 167.756548 -125.21159 
L 167.699893 -126.376853 
L 167.641948 -127.542116 
L 167.586834 -128.707379 
L 167.539088 -129.872642 
L 167.503053 -131.037905 
L 167.482238 -132.203168 
L 167.478749 -133.368431 
L 167.492933 -134.533694 
L 167.523313 -135.698957 
L 167.566821 -136.864221 
L 167.619279 -138.029484 
L 167.675994 -139.194747 
L 167.732351 -140.36001 
L 167.784257 -141.525273 
L 167.828377 -142.690536 
L 167.862113 -143.855799 
L 167.883392 -145.021062 
L 167.890329 -146.186325 
L 167.880872 -147.351588 
L 167.852552 -148.516851 
L 167.802418 -149.682114 
L 167.727235 -150.847378 
L 167.623935 -152.012641 
L 167.490297 -153.177904 
L 167.325736 -154.343167 
L 167.132036 -155.50843 
L 166.913835 -156.673693 
L 166.678678 -157.838956 
L 166.436519 -159.004219 
L 166.198649 -160.169482 
L 165.976169 -161.334745 
L 165.778266 -162.500008 
L 165.610627 -163.665271 
L 165.474348 -164.830535 
L 165.365643 -165.995798 
L 165.276475 -167.161061 
L 165.19608 -168.326324 
L 165.1131 -169.491587 
L 165.017912 -170.65685 
L 164.904644 -171.822113 
L 164.772434 -172.987376 
L 164.625612 -174.152639 
L 164.47277 -175.317902 
L 164.324916 -176.483165 
L 164.19317 -177.648428 
L 164.086555 -178.813692 
L 164.010427 -179.978955 
L 163.965876 -181.144218 
L 163.950171 -182.309481 
L 163.95801 -183.474744 
L 163.983148 -184.640007 
L 164.019868 -185.80527 
L 164.06389 -186.970533 
L 164.112515 -188.135796 
L 164.164025 -189.301059 
L 164.216619 -190.466322 
L 164.26721 -191.631585 
L 164.310443 -192.796849 
L 164.338145 -193.962112 
L 164.339331 -195.127375 
L 164.300719 -196.292638 
L 164.207687 -197.457901 
L 164.045538 -198.623164 
L 163.80098 -199.788427 
L 163.463702 -200.95369 
L 163.027933 -202.118953 
L 162.493836 -203.284216 
L 161.86857 -204.449479 
L 161.166835 -205.614742 
L 160.410754 -206.780006 
L 159.629041 -207.945269 
L 158.855483 -209.110532 
L 158.126882 -210.275795 
L 157.480698 -211.441058 
L 156.952607 -212.606321 
L 156.574221 -213.771584 
L 156.371065 -214.936847 
L 156.360898 -216.10211 
L 156.552382 -217.267373 
L 156.944132 -218.432636 
L 157.524247 -219.597899 
L 158.270475 -220.763163 
L 159.151204 -221.928426 
L 160.127398 -223.093689 
L 161.155453 -224.258952 
L 162.190725 -225.424215 
L 163.1913 -226.589478 
L 164.121456 -227.754741 
L 164.954281 -228.920004 
L 165.673072 -230.085267 
L 166.271388 -231.25053 
L 166.751875 -232.415793 
L 167.124228 -233.581056 
L 167.402719 -234.74632 
L 167.603769 -235.911583 
L 167.990756 -235.911583 
L 167.990756 -235.911583 
L 167.990756 -234.74632 
L 167.990756 -233.581056 
L 167.990756 -232.415793 
L 167.990756 -231.25053 
L 167.990756 -230.085267 
L 167.990756 -228.920004 
L 167.990756 -227.754741 
L 167.990756 -226.589478 
L 167.990756 -225.424215 
L 167.990756 -224.258952 
L 167.990756 -223.093689 
L 167.990756 -221.928426 
L 167.990756 -220.763163 
L 167.990756 -219.597899 
L 167.990756 -218.432636 
L 167.990756 -217.267373 
L 167.990756 -216.10211 
L 167.990756 -214.936847 
L 167.990756 -213.771584 
L 167.990756 -212.606321 
L 167.990756 -211.441058 
L 167.990756 -210.275795 
L 167.990756 -209.110532 
L 167.990756 -207.945269 
L 167.990756 -206.780006 
L 167.990756 -205.614742 
L 167.990756 -204.449479 
L 167.990756 -203.284216 
L 167.990756 -202.118953 
L 167.990756 -200.95369 
L 167.990756 -199.788427 
L 167.990756 -198.623164 
L 167.990756 -197.457901 
L 167.990756 -196.292638 
L 167.990756 -195.127375 
L 167.990756 -193.962112 
L 167.990756 -192.796849 
L 167.990756 -191.631585 
L 167.990756 -190.466322 
L 167.990756 -189.301059 
L 167.990756 -188.135796 
L 167.990756 -186.970533 
L 167.990756 -185.80527 
L 167.990756 -184.640007 
L 167.990756 -183.474744 
L 167.990756 -182.309481 
L 167.990756 -181.144218 
L 167.990756 -179.978955 
L 167.990756 -178.813692 
L 167.990756 -177.648428 
L 167.990756 -176.483165 
L 167.990756 -175.317902 
L 167.990756 -174.152639 
L 167.990756 -172.987376 
L 167.990756 -171.822113 
L 167.990756 -170.65685 
L 167.990756 -169.491587 
L 167.990756 -168.326324 
L 167.990756 -167.161061 
L 167.990756 -165.995798 
L 167.990756 -164.830535 
L 167.990756 -163.665271 
L 167.990756 -162.500008 
L 167.990756 -161.334745 
L 167.990756 -160.169482 
L 167.990756 -159.004219 
L 167.990756 -157.838956 
L 167.990756 -156.673693 
L 167.990756 -155.50843 
L 167.990756 -154.343167 
L 167.990756 -153.177904 
L 167.990756 -152.012641 
L 167.990756 -150.847378 
L 167.990756 -149.682114 
L 167.990756 -148.516851 
L 167.990756 -147.351588 
L 167.990756 -146.186325 
L 167.990756 -145.021062 
L 167.990756 -143.855799 
L 167.990756 -142.690536 
L 167.990756 -141.525273 
L 167.990756 -140.36001 
L 167.990756 -139.194747 
L 167.990756 -138.029484 
L 167.990756 -136.864221 
L 167.990756 -135.698957 
L 167.990756 -134.533694 
L 167.990756 -133.368431 
L 167.990756 -132.203168 
L 167.990756 -131.037905 
L 167.990756 -129.872642 
L 167.990756 -128.707379 
L 167.990756 -127.542116 
L 167.990756 -126.376853 
L 167.990756 -125.21159 
L 167.990756 -124.046327 
L 167.990756 -122.881064 
L 167.990756 -121.7158 
L 167.990756 -120.550537 
z
" style="stroke: #3f3f3f; stroke-opacity: 0.6; stroke-width: 1.25"/>
    </defs>
    <g clip-path="url(#p7244867bbd)">
     <use xlink:href="#m2b74db9100" x="0" y="288" style="fill: #3274a1; fill-opacity: 0.6; stroke: #3f3f3f; stroke-opacity: 0.6; stroke-width: 1.25"/>
    </g>
   </g>
   <g id="PolyCollection_4">
    <defs>
     <path id="ma416005c36" d="M 168.122802 -143.945258 
L 167.990756 -143.945258 
L 167.990756 -144.85719 
L 167.990756 -145.769122 
L 167.990756 -146.681054 
L 167.990756 -147.592986 
L 167.990756 -148.504918 
L 167.990756 -149.41685 
L 167.990756 -150.328782 
L 167.990756 -151.240714 
L 167.990756 -152.152646 
L 167.990756 -153.064579 
L 167.990756 -153.976511 
L 167.990756 -154.888443 
L 167.990756 -155.800375 
L 167.990756 -156.712307 
L 167.990756 -157.624239 
L 167.990756 -158.536171 
L 167.990756 -159.448103 
L 167.990756 -160.360035 
L 167.990756 -161.271967 
L 167.990756 -162.183899 
L 167.990756 -163.095831 
L 167.990756 -164.007763 
L 167.990756 -164.919695 
L 167.990756 -165.831627 
L 167.990756 -166.743559 
L 167.990756 -167.655491 
L 167.990756 -168.567423 
L 167.990756 -169.479355 
L 167.990756 -170.391287 
L 167.990756 -171.303219 
L 167.990756 -172.215151 
L 167.990756 -173.127083 
L 167.990756 -174.039015 
L 167.990756 -174.950947 
L 167.990756 -175.862879 
L 167.990756 -176.774811 
L 167.990756 -177.686743 
L 167.990756 -178.598675 
L 167.990756 -179.510607 
L 167.990756 -180.422539 
L 167.990756 -181.334472 
L 167.990756 -182.246404 
L 167.990756 -183.158336 
L 167.990756 -184.070268 
L 167.990756 -184.9822 
L 167.990756 -185.894132 
L 167.990756 -186.806064 
L 167.990756 -187.717996 
L 167.990756 -188.629928 
L 167.990756 -189.54186 
L 167.990756 -190.453792 
L 167.990756 -191.365724 
L 167.990756 -192.277656 
L 167.990756 -193.189588 
L 167.990756 -194.10152 
L 167.990756 -195.013452 
L 167.990756 -195.925384 
L 167.990756 -196.837316 
L 167.990756 -197.749248 
L 167.990756 -198.66118 
L 167.990756 -199.573112 
L 167.990756 -200.485044 
L 167.990756 -201.396976 
L 167.990756 -202.308908 
L 167.990756 -203.22084 
L 167.990756 -204.132772 
L 167.990756 -205.044704 
L 167.990756 -205.956636 
L 167.990756 -206.868568 
L 167.990756 -207.7805 
L 167.990756 -208.692432 
L 167.990756 -209.604365 
L 167.990756 -210.516297 
L 167.990756 -211.428229 
L 167.990756 -212.340161 
L 167.990756 -213.252093 
L 167.990756 -214.164025 
L 167.990756 -215.075957 
L 167.990756 -215.987889 
L 167.990756 -216.899821 
L 167.990756 -217.811753 
L 167.990756 -218.723685 
L 167.990756 -219.635617 
L 167.990756 -220.547549 
L 167.990756 -221.459481 
L 167.990756 -222.371413 
L 167.990756 -223.283345 
L 167.990756 -224.195277 
L 167.990756 -225.107209 
L 167.990756 -226.019141 
L 167.990756 -226.931073 
L 167.990756 -227.843005 
L 167.990756 -228.754937 
L 167.990756 -229.666869 
L 167.990756 -230.578801 
L 167.990756 -231.490733 
L 167.990756 -232.402665 
L 167.990756 -233.314597 
L 167.990756 -234.226529 
L 168.087433 -234.226529 
L 168.087433 -234.226529 
L 168.130001 -233.314597 
L 168.187133 -232.402665 
L 168.262131 -231.490733 
L 168.358483 -230.578801 
L 168.479716 -229.666869 
L 168.629194 -228.754937 
L 168.809896 -227.843005 
L 169.024169 -226.931073 
L 169.273474 -226.019141 
L 169.55815 -225.107209 
L 169.877225 -224.195277 
L 170.228289 -223.283345 
L 170.607456 -222.371413 
L 171.009426 -221.459481 
L 171.427657 -220.547549 
L 171.854603 -219.635617 
L 172.282026 -218.723685 
L 172.701335 -217.811753 
L 173.103932 -216.899821 
L 173.481563 -215.987889 
L 173.826679 -215.075957 
L 174.1328 -214.164025 
L 174.394884 -213.252093 
L 174.609677 -212.340161 
L 174.775983 -211.428229 
L 174.894795 -210.516297 
L 174.969224 -209.604365 
L 175.004181 -208.692432 
L 175.005843 -207.7805 
L 174.980951 -206.868568 
L 174.936067 -205.956636 
L 174.876917 -205.044704 
L 174.807959 -204.132772 
L 174.732234 -203.22084 
L 174.65154 -202.308908 
L 174.566874 -201.396976 
L 174.479012 -200.485044 
L 174.389125 -199.573112 
L 174.299236 -198.66118 
L 174.21243 -197.749248 
L 174.132737 -196.837316 
L 174.064679 -195.925384 
L 174.012566 -195.013452 
L 173.979669 -194.10152 
L 173.967438 -193.189588 
L 173.97495 -192.277656 
L 173.998728 -191.365724 
L 174.033 -190.453792 
L 174.070394 -189.54186 
L 174.102942 -188.629928 
L 174.123234 -187.717996 
L 174.12548 -186.806064 
L 174.106274 -185.894132 
L 174.064923 -184.9822 
L 174.003265 -184.070268 
L 173.925044 -183.158336 
L 173.834983 -182.246404 
L 173.737759 -181.334472 
L 173.637111 -180.422539 
L 173.535238 -179.510607 
L 173.432595 -178.598675 
L 173.328078 -177.686743 
L 173.219517 -176.774811 
L 173.104325 -175.862879 
L 172.980159 -174.950947 
L 172.845449 -174.039015 
L 172.699733 -173.127083 
L 172.543759 -172.215151 
L 172.379411 -171.303219 
L 172.209481 -170.391287 
L 172.03738 -169.479355 
L 171.866801 -168.567423 
L 171.701383 -167.655491 
L 171.54437 -166.743559 
L 171.39828 -165.831627 
L 171.264595 -164.919695 
L 171.143501 -164.007763 
L 171.033733 -163.095831 
L 170.932561 -162.183899 
L 170.835965 -161.271967 
L 170.739007 -160.360035 
L 170.636369 -159.448103 
L 170.523008 -158.536171 
L 170.394827 -157.624239 
L 170.249266 -156.712307 
L 170.085698 -155.800375 
L 169.905589 -154.888443 
L 169.712363 -153.976511 
L 169.511022 -153.064579 
L 169.307557 -152.152646 
L 169.108273 -151.240714 
L 168.919107 -150.328782 
L 168.745065 -149.41685 
L 168.589816 -148.504918 
L 168.455512 -147.592986 
L 168.342803 -146.681054 
L 168.251018 -145.769122 
L 168.178471 -144.85719 
L 168.122802 -143.945258 
z
" style="stroke: #3f3f3f; stroke-opacity: 0.6; stroke-width: 1.25"/>
    </defs>
    <g clip-path="url(#p7244867bbd)">
     <use xlink:href="#ma416005c36" x="0" y="288" style="fill: #e1812c; fill-opacity: 0.6; stroke: #3f3f3f; stroke-opacity: 0.6; stroke-width: 1.25"/>
    </g>
   </g>
   <g id="PolyCollection_5">
    <defs>
     <path id="mb96225f516" d="M 246.77155 -172.227605 
L 246.510742 -172.227605 
L 246.402667 -172.828448 
L 246.264875 -173.429291 
L 246.095574 -174.030134 
L 245.895369 -174.630977 
L 245.667907 -175.23182 
L 245.420215 -175.832663 
L 245.162613 -176.433506 
L 244.90809 -177.034349 
L 244.671189 -177.635192 
L 244.466488 -178.236034 
L 244.306903 -178.836877 
L 244.202061 -179.43772 
L 244.157016 -180.038563 
L 244.17151 -180.639406 
L 244.239905 -181.240249 
L 244.351799 -181.841092 
L 244.49322 -182.441935 
L 244.648224 -183.042778 
L 244.800663 -183.643621 
L 244.935891 -184.244464 
L 245.04218 -184.845307 
L 245.111699 -185.44615 
L 245.140952 -186.046992 
L 245.130657 -186.647835 
L 245.085129 -187.248678 
L 245.011289 -187.849521 
L 244.917455 -188.450364 
L 244.812097 -189.051207 
L 244.702707 -189.65205 
L 244.594904 -190.252893 
L 244.491854 -190.853736 
L 244.39401 -191.454579 
L 244.299176 -192.055422 
L 244.20285 -192.656265 
L 244.098807 -193.257107 
L 243.979874 -193.85795 
L 243.838837 -194.458793 
L 243.669413 -195.059636 
L 243.467171 -195.660479 
L 243.230307 -196.261322 
L 242.960139 -196.862165 
L 242.661246 -197.463008 
L 242.341199 -198.063851 
L 242.009923 -198.664694 
L 241.678765 -199.265537 
L 241.359418 -199.86638 
L 241.062819 -200.467223 
L 240.798147 -201.068065 
L 240.571969 -201.668908 
L 240.387549 -202.269751 
L 240.244275 -202.870594 
L 240.137195 -203.471437 
L 240.056637 -204.07228 
L 239.987994 -204.673123 
L 239.911794 -205.273966 
L 239.804214 -205.874809 
L 239.638239 -206.475652 
L 239.385546 -207.076495 
L 239.019135 -207.677338 
L 238.516501 -208.27818 
L 237.862985 -208.879023 
L 237.054774 -209.479866 
L 236.100947 -210.080709 
L 235.02405 -210.681552 
L 233.858871 -211.282395 
L 232.649435 -211.883238 
L 231.444608 -212.484081 
L 230.293038 -213.084924 
L 229.238337 -213.685767 
L 228.315413 -214.28661 
L 227.548586 -214.887453 
L 226.951747 -215.488296 
L 226.530325 -216.089138 
L 226.284424 -216.689981 
L 226.212232 -217.290824 
L 226.312794 -217.891667 
L 226.587455 -218.49251 
L 227.039627 -219.093353 
L 227.673019 -219.694196 
L 228.4888 -220.295039 
L 229.482479 -220.895882 
L 230.641272 -221.496725 
L 231.942652 -222.097568 
L 233.354464 -222.698411 
L 234.836641 -223.299253 
L 236.344237 -223.900096 
L 237.831251 -224.500939 
L 239.254579 -225.101782 
L 240.577484 -225.702625 
L 241.772109 -226.303468 
L 242.820766 -226.904311 
L 243.715992 -227.505154 
L 244.45953 -228.105997 
L 245.060558 -228.70684 
L 245.533527 -229.307683 
L 245.895949 -229.908526 
L 246.166416 -230.509369 
L 246.363011 -231.110211 
L 246.502201 -231.711054 
L 246.77155 -231.711054 
L 246.77155 -231.711054 
L 246.77155 -231.110211 
L 246.77155 -230.509369 
L 246.77155 -229.908526 
L 246.77155 -229.307683 
L 246.77155 -228.70684 
L 246.77155 -228.105997 
L 246.77155 -227.505154 
L 246.77155 -226.904311 
L 246.77155 -226.303468 
L 246.77155 -225.702625 
L 246.77155 -225.101782 
L 246.77155 -224.500939 
L 246.77155 -223.900096 
L 246.77155 -223.299253 
L 246.77155 -222.698411 
L 246.77155 -222.097568 
L 246.77155 -221.496725 
L 246.77155 -220.895882 
L 246.77155 -220.295039 
L 246.77155 -219.694196 
L 246.77155 -219.093353 
L 246.77155 -218.49251 
L 246.77155 -217.891667 
L 246.77155 -217.290824 
L 246.77155 -216.689981 
L 246.77155 -216.089138 
L 246.77155 -215.488296 
L 246.77155 -214.887453 
L 246.77155 -214.28661 
L 246.77155 -213.685767 
L 246.77155 -213.084924 
L 246.77155 -212.484081 
L 246.77155 -211.883238 
L 246.77155 -211.282395 
L 246.77155 -210.681552 
L 246.77155 -210.080709 
L 246.77155 -209.479866 
L 246.77155 -208.879023 
L 246.77155 -208.27818 
L 246.77155 -207.677338 
L 246.77155 -207.076495 
L 246.77155 -206.475652 
L 246.77155 -205.874809 
L 246.77155 -205.273966 
L 246.77155 -204.673123 
L 246.77155 -204.07228 
L 246.77155 -203.471437 
L 246.77155 -202.870594 
L 246.77155 -202.269751 
L 246.77155 -201.668908 
L 246.77155 -201.068065 
L 246.77155 -200.467223 
L 246.77155 -199.86638 
L 246.77155 -199.265537 
L 246.77155 -198.664694 
L 246.77155 -198.063851 
L 246.77155 -197.463008 
L 246.77155 -196.862165 
L 246.77155 -196.261322 
L 246.77155 -195.660479 
L 246.77155 -195.059636 
L 246.77155 -194.458793 
L 246.77155 -193.85795 
L 246.77155 -193.257107 
L 246.77155 -192.656265 
L 246.77155 -192.055422 
L 246.77155 -191.454579 
L 246.77155 -190.853736 
L 246.77155 -190.252893 
L 246.77155 -189.65205 
L 246.77155 -189.051207 
L 246.77155 -188.450364 
L 246.77155 -187.849521 
L 246.77155 -187.248678 
L 246.77155 -186.647835 
L 246.77155 -186.046992 
L 246.77155 -185.44615 
L 246.77155 -184.845307 
L 246.77155 -184.244464 
L 246.77155 -183.643621 
L 246.77155 -183.042778 
L 246.77155 -182.441935 
L 246.77155 -181.841092 
L 246.77155 -181.240249 
L 246.77155 -180.639406 
L 246.77155 -180.038563 
L 246.77155 -179.43772 
L 246.77155 -178.836877 
L 246.77155 -178.236034 
L 246.77155 -177.635192 
L 246.77155 -177.034349 
L 246.77155 -176.433506 
L 246.77155 -175.832663 
L 246.77155 -175.23182 
L 246.77155 -174.630977 
L 246.77155 -174.030134 
L 246.77155 -173.429291 
L 246.77155 -172.828448 
L 246.77155 -172.227605 
z
" style="stroke: #3f3f3f; stroke-opacity: 0.6; stroke-width: 1.25"/>
    </defs>
    <g clip-path="url(#p7244867bbd)">
     <use xlink:href="#mb96225f516" x="0" y="288" style="fill: #3274a1; fill-opacity: 0.6; stroke: #3f3f3f; stroke-opacity: 0.6; stroke-width: 1.25"/>
    </g>
   </g>
   <g id="PolyCollection_6">
    <defs>
     <path id="ma3f0dd63e5" d="M 246.886339 -166.156253 
L 246.77155 -166.156253 
L 246.77155 -166.825345 
L 246.77155 -167.494437 
L 246.77155 -168.163529 
L 246.77155 -168.832621 
L 246.77155 -169.501712 
L 246.77155 -170.170804 
L 246.77155 -170.839896 
L 246.77155 -171.508988 
L 246.77155 -172.17808 
L 246.77155 -172.847171 
L 246.77155 -173.516263 
L 246.77155 -174.185355 
L 246.77155 -174.854447 
L 246.77155 -175.523539 
L 246.77155 -176.19263 
L 246.77155 -176.861722 
L 246.77155 -177.530814 
L 246.77155 -178.199906 
L 246.77155 -178.868998 
L 246.77155 -179.538089 
L 246.77155 -180.207181 
L 246.77155 -180.876273 
L 246.77155 -181.545365 
L 246.77155 -182.214457 
L 246.77155 -182.883548 
L 246.77155 -183.55264 
L 246.77155 -184.221732 
L 246.77155 -184.890824 
L 246.77155 -185.559916 
L 246.77155 -186.229008 
L 246.77155 -186.898099 
L 246.77155 -187.567191 
L 246.77155 -188.236283 
L 246.77155 -188.905375 
L 246.77155 -189.574467 
L 246.77155 -190.243558 
L 246.77155 -190.91265 
L 246.77155 -191.581742 
L 246.77155 -192.250834 
L 246.77155 -192.919926 
L 246.77155 -193.589017 
L 246.77155 -194.258109 
L 246.77155 -194.927201 
L 246.77155 -195.596293 
L 246.77155 -196.265385 
L 246.77155 -196.934476 
L 246.77155 -197.603568 
L 246.77155 -198.27266 
L 246.77155 -198.941752 
L 246.77155 -199.610844 
L 246.77155 -200.279935 
L 246.77155 -200.949027 
L 246.77155 -201.618119 
L 246.77155 -202.287211 
L 246.77155 -202.956303 
L 246.77155 -203.625394 
L 246.77155 -204.294486 
L 246.77155 -204.963578 
L 246.77155 -205.63267 
L 246.77155 -206.301762 
L 246.77155 -206.970853 
L 246.77155 -207.639945 
L 246.77155 -208.309037 
L 246.77155 -208.978129 
L 246.77155 -209.647221 
L 246.77155 -210.316312 
L 246.77155 -210.985404 
L 246.77155 -211.654496 
L 246.77155 -212.323588 
L 246.77155 -212.99268 
L 246.77155 -213.661771 
L 246.77155 -214.330863 
L 246.77155 -214.999955 
L 246.77155 -215.669047 
L 246.77155 -216.338139 
L 246.77155 -217.00723 
L 246.77155 -217.676322 
L 246.77155 -218.345414 
L 246.77155 -219.014506 
L 246.77155 -219.683598 
L 246.77155 -220.352689 
L 246.77155 -221.021781 
L 246.77155 -221.690873 
L 246.77155 -222.359965 
L 246.77155 -223.029057 
L 246.77155 -223.698149 
L 246.77155 -224.36724 
L 246.77155 -225.036332 
L 246.77155 -225.705424 
L 246.77155 -226.374516 
L 246.77155 -227.043608 
L 246.77155 -227.712699 
L 246.77155 -228.381791 
L 246.77155 -229.050883 
L 246.77155 -229.719975 
L 246.77155 -230.389067 
L 246.77155 -231.058158 
L 246.77155 -231.72725 
L 246.77155 -232.396342 
L 246.90977 -232.396342 
L 246.90977 -232.396342 
L 246.979665 -231.72725 
L 247.076232 -231.058158 
L 247.205875 -230.389067 
L 247.375268 -229.719975 
L 247.591004 -229.050883 
L 247.859138 -228.381791 
L 248.184629 -227.712699 
L 248.570662 -227.043608 
L 249.017896 -226.374516 
L 249.523764 -225.705424 
L 250.082027 -225.036332 
L 250.682825 -224.36724 
L 251.313435 -223.698149 
L 251.959784 -223.029057 
L 252.608545 -222.359965 
L 253.249374 -221.690873 
L 253.876744 -221.021781 
L 254.490817 -220.352689 
L 255.097054 -219.683598 
L 255.704595 -219.014506 
L 256.323797 -218.345414 
L 256.96351 -217.676322 
L 257.62868 -217.00723 
L 258.31869 -216.338139 
L 259.026539 -215.669047 
L 259.738799 -214.999955 
L 260.436193 -214.330863 
L 261.094716 -213.661771 
L 261.687333 -212.99268 
L 262.186339 -212.323588 
L 262.566286 -211.654496 
L 262.807151 -210.985404 
L 262.897115 -210.316312 
L 262.83423 -209.647221 
L 262.626404 -208.978129 
L 262.289589 -208.309037 
L 261.844583 -207.639945 
L 261.313305 -206.970853 
L 260.71553 -206.301762 
L 260.066869 -205.63267 
L 259.378292 -204.963578 
L 258.656993 -204.294486 
L 257.907999 -203.625394 
L 257.135891 -202.956303 
L 256.346136 -202.287211 
L 255.54589 -201.618119 
L 254.744351 -200.949027 
L 253.952867 -200.279935 
L 253.184912 -199.610844 
L 252.455871 -198.941752 
L 251.78242 -198.27266 
L 251.181313 -197.603568 
L 250.667532 -196.934476 
L 250.252019 -196.265385 
L 249.9395 -195.596293 
L 249.726964 -194.927201 
L 249.603367 -194.258109 
L 249.550806 -193.589017 
L 249.547109 -192.919926 
L 249.56936 -192.250834 
L 249.597648 -191.581742 
L 249.618224 -190.91265 
L 249.625332 -190.243558 
L 249.621294 -189.574467 
L 249.614793 -188.905375 
L 249.617743 -188.236283 
L 249.641435 -187.567191 
L 249.692849 -186.898099 
L 249.771982 -186.229008 
L 249.870794 -185.559916 
L 249.974027 -184.890824 
L 250.061711 -184.221732 
L 250.112816 -183.55264 
L 250.109242 -182.883548 
L 250.039328 -182.214457 
L 249.900142 -181.545365 
L 249.698118 -180.876273 
L 249.447969 -180.207181 
L 249.170126 -179.538089 
L 248.887278 -178.868998 
L 248.620695 -178.199906 
L 248.387045 -177.530814 
L 248.196249 -176.861722 
L 248.050693 -176.19263 
L 247.945834 -175.523539 
L 247.871934 -174.854447 
L 247.816513 -174.185355 
L 247.766954 -173.516263 
L 247.712776 -172.847171 
L 247.647152 -172.17808 
L 247.567504 -171.508988 
L 247.475194 -170.839896 
L 247.37452 -170.170804 
L 247.271345 -169.501712 
L 247.171724 -168.832621 
L 247.080784 -168.163529 
L 247.002048 -167.494437 
L 246.937217 -166.825345 
L 246.886339 -166.156253 
z
" style="stroke: #3f3f3f; stroke-opacity: 0.6; stroke-width: 1.25"/>
    </defs>
    <g clip-path="url(#p7244867bbd)">
     <use xlink:href="#ma3f0dd63e5" x="0" y="288" style="fill: #e1812c; fill-opacity: 0.6; stroke: #3f3f3f; stroke-opacity: 0.6; stroke-width: 1.25"/>
    </g>
   </g>
   <g id="PolyCollection_7">
    <defs>
     <path id="m51b1867edf" d="M 325.552344 -194.223767 
L 325.171139 -194.223767 
L 325.00318 -194.587292 
L 324.784523 -194.950818 
L 324.509977 -195.314343 
L 324.177661 -195.677869 
L 323.790123 -196.041394 
L 323.355071 -196.40492 
L 322.885498 -196.768445 
L 322.399091 -197.131971 
L 321.916978 -197.495496 
L 321.461985 -197.859022 
L 321.056676 -198.222547 
L 320.721494 -198.586073 
L 320.473208 -198.949598 
L 320.323807 -199.313124 
L 320.279811 -199.676649 
L 320.341898 -200.040175 
L 320.504757 -200.4037 
L 320.757091 -200.767226 
L 321.081813 -201.130751 
L 321.456551 -201.494276 
L 321.854567 -201.857802 
L 322.246187 -202.221327 
L 322.600705 -202.584853 
L 322.88864 -202.948378 
L 323.084125 -203.311904 
L 323.167176 -203.675429 
L 323.125607 -204.038955 
L 322.956375 -204.40248 
L 322.666225 -204.766006 
L 322.271503 -205.129531 
L 321.797091 -205.493057 
L 321.274446 -205.856582 
L 320.738832 -206.220108 
L 320.225919 -206.583633 
L 319.768072 -206.947159 
L 319.39073 -207.310684 
L 319.109358 -207.674209 
L 318.927367 -208.037735 
L 318.835344 -208.40126 
L 318.811685 -208.764786 
L 318.824577 -209.128311 
L 318.835038 -209.491837 
L 318.800617 -209.855362 
L 318.679296 -210.218888 
L 318.433111 -210.582413 
L 318.031113 -210.945939 
L 317.451369 -211.309464 
L 316.681847 -211.67299 
L 315.720222 -212.036515 
L 314.572819 -212.400041 
L 313.253076 -212.763566 
L 311.780037 -213.127092 
L 310.177343 -213.490617 
L 308.473013 -213.854143 
L 306.699999 -214.217668 
L 304.897122 -214.581193 
L 303.109701 -214.944719 
L 301.389125 -215.308244 
L 299.790774 -215.67177 
L 298.370199 -216.035295 
L 297.177974 -216.398821 
L 296.254199 -216.762346 
L 295.623803 -217.125872 
L 295.293722 -217.489397 
L 295.252568 -217.852923 
L 295.472789 -218.216448 
L 295.914732 -218.579974 
L 296.531673 -218.943499 
L 297.274831 -219.307025 
L 298.097632 -219.67055 
L 298.958901 -220.034076 
L 299.825032 -220.397601 
L 300.671433 -220.761126 
L 301.483507 -221.124652 
L 302.257296 -221.488177 
L 302.999625 -221.851703 
L 303.727419 -222.215228 
L 304.465884 -222.578754 
L 305.245387 -222.942279 
L 306.097233 -223.305805 
L 307.048869 -223.66933 
L 308.119291 -224.032856 
L 309.31549 -224.396381 
L 310.63059 -224.759907 
L 312.044026 -225.123432 
L 313.523679 -225.486958 
L 315.029539 -225.850483 
L 316.518209 -226.214009 
L 317.947495 -226.577534 
L 319.280416 -226.941059 
L 320.488144 -227.304585 
L 321.551635 -227.66811 
L 322.461971 -228.031636 
L 323.219567 -228.395161 
L 323.832577 -228.758687 
L 324.314832 -229.122212 
L 324.683652 -229.485738 
L 324.95781 -229.849263 
L 325.155842 -230.212789 
L 325.552344 -230.212789 
L 325.552344 -230.212789 
L 325.552344 -229.849263 
L 325.552344 -229.485738 
L 325.552344 -229.122212 
L 325.552344 -228.758687 
L 325.552344 -228.395161 
L 325.552344 -228.031636 
L 325.552344 -227.66811 
L 325.552344 -227.304585 
L 325.552344 -226.941059 
L 325.552344 -226.577534 
L 325.552344 -226.214009 
L 325.552344 -225.850483 
L 325.552344 -225.486958 
L 325.552344 -225.123432 
L 325.552344 -224.759907 
L 325.552344 -224.396381 
L 325.552344 -224.032856 
L 325.552344 -223.66933 
L 325.552344 -223.305805 
L 325.552344 -222.942279 
L 325.552344 -222.578754 
L 325.552344 -222.215228 
L 325.552344 -221.851703 
L 325.552344 -221.488177 
L 325.552344 -221.124652 
L 325.552344 -220.761126 
L 325.552344 -220.397601 
L 325.552344 -220.034076 
L 325.552344 -219.67055 
L 325.552344 -219.307025 
L 325.552344 -218.943499 
L 325.552344 -218.579974 
L 325.552344 -218.216448 
L 325.552344 -217.852923 
L 325.552344 -217.489397 
L 325.552344 -217.125872 
L 325.552344 -216.762346 
L 325.552344 -216.398821 
L 325.552344 -216.035295 
L 325.552344 -215.67177 
L 325.552344 -215.308244 
L 325.552344 -214.944719 
L 325.552344 -214.581193 
L 325.552344 -214.217668 
L 325.552344 -213.854143 
L 325.552344 -213.490617 
L 325.552344 -213.127092 
L 325.552344 -212.763566 
L 325.552344 -212.400041 
L 325.552344 -212.036515 
L 325.552344 -211.67299 
L 325.552344 -211.309464 
L 325.552344 -210.945939 
L 325.552344 -210.582413 
L 325.552344 -210.218888 
L 325.552344 -209.855362 
L 325.552344 -209.491837 
L 325.552344 -209.128311 
L 325.552344 -208.764786 
L 325.552344 -208.40126 
L 325.552344 -208.037735 
L 325.552344 -207.674209 
L 325.552344 -207.310684 
L 325.552344 -206.947159 
L 325.552344 -206.583633 
L 325.552344 -206.220108 
L 325.552344 -205.856582 
L 325.552344 -205.493057 
L 325.552344 -205.129531 
L 325.552344 -204.766006 
L 325.552344 -204.40248 
L 325.552344 -204.038955 
L 325.552344 -203.675429 
L 325.552344 -203.311904 
L 325.552344 -202.948378 
L 325.552344 -202.584853 
L 325.552344 -202.221327 
L 325.552344 -201.857802 
L 325.552344 -201.494276 
L 325.552344 -201.130751 
L 325.552344 -200.767226 
L 325.552344 -200.4037 
L 325.552344 -200.040175 
L 325.552344 -199.676649 
L 325.552344 -199.313124 
L 325.552344 -198.949598 
L 325.552344 -198.586073 
L 325.552344 -198.222547 
L 325.552344 -197.859022 
L 325.552344 -197.495496 
L 325.552344 -197.131971 
L 325.552344 -196.768445 
L 325.552344 -196.40492 
L 325.552344 -196.041394 
L 325.552344 -195.677869 
L 325.552344 -195.314343 
L 325.552344 -194.950818 
L 325.552344 -194.587292 
L 325.552344 -194.223767 
z
" style="stroke: #3f3f3f; stroke-opacity: 0.6; stroke-width: 1.25"/>
    </defs>
    <g clip-path="url(#p7244867bbd)">
     <use xlink:href="#m51b1867edf" x="0" y="288" style="fill: #3274a1; fill-opacity: 0.6; stroke: #3f3f3f; stroke-opacity: 0.6; stroke-width: 1.25"/>
    </g>
   </g>
   <g id="PolyCollection_8">
    <defs>
     <path id="m07ee9d376c" d="M 325.710511 -179.590979 
L 325.552344 -179.590979 
L 325.552344 -180.101207 
L 325.552344 -180.611436 
L 325.552344 -181.121664 
L 325.552344 -181.631893 
L 325.552344 -182.142121 
L 325.552344 -182.65235 
L 325.552344 -183.162578 
L 325.552344 -183.672806 
L 325.552344 -184.183035 
L 325.552344 -184.693263 
L 325.552344 -185.203492 
L 325.552344 -185.71372 
L 325.552344 -186.223949 
L 325.552344 -186.734177 
L 325.552344 -187.244406 
L 325.552344 -187.754634 
L 325.552344 -188.264863 
L 325.552344 -188.775091 
L 325.552344 -189.285319 
L 325.552344 -189.795548 
L 325.552344 -190.305776 
L 325.552344 -190.816005 
L 325.552344 -191.326233 
L 325.552344 -191.836462 
L 325.552344 -192.34669 
L 325.552344 -192.856919 
L 325.552344 -193.367147 
L 325.552344 -193.877376 
L 325.552344 -194.387604 
L 325.552344 -194.897832 
L 325.552344 -195.408061 
L 325.552344 -195.918289 
L 325.552344 -196.428518 
L 325.552344 -196.938746 
L 325.552344 -197.448975 
L 325.552344 -197.959203 
L 325.552344 -198.469432 
L 325.552344 -198.97966 
L 325.552344 -199.489888 
L 325.552344 -200.000117 
L 325.552344 -200.510345 
L 325.552344 -201.020574 
L 325.552344 -201.530802 
L 325.552344 -202.041031 
L 325.552344 -202.551259 
L 325.552344 -203.061488 
L 325.552344 -203.571716 
L 325.552344 -204.081945 
L 325.552344 -204.592173 
L 325.552344 -205.102401 
L 325.552344 -205.61263 
L 325.552344 -206.122858 
L 325.552344 -206.633087 
L 325.552344 -207.143315 
L 325.552344 -207.653544 
L 325.552344 -208.163772 
L 325.552344 -208.674001 
L 325.552344 -209.184229 
L 325.552344 -209.694458 
L 325.552344 -210.204686 
L 325.552344 -210.714914 
L 325.552344 -211.225143 
L 325.552344 -211.735371 
L 325.552344 -212.2456 
L 325.552344 -212.755828 
L 325.552344 -213.266057 
L 325.552344 -213.776285 
L 325.552344 -214.286514 
L 325.552344 -214.796742 
L 325.552344 -215.30697 
L 325.552344 -215.817199 
L 325.552344 -216.327427 
L 325.552344 -216.837656 
L 325.552344 -217.347884 
L 325.552344 -217.858113 
L 325.552344 -218.368341 
L 325.552344 -218.87857 
L 325.552344 -219.388798 
L 325.552344 -219.899027 
L 325.552344 -220.409255 
L 325.552344 -220.919483 
L 325.552344 -221.429712 
L 325.552344 -221.93994 
L 325.552344 -222.450169 
L 325.552344 -222.960397 
L 325.552344 -223.470626 
L 325.552344 -223.980854 
L 325.552344 -224.491083 
L 325.552344 -225.001311 
L 325.552344 -225.51154 
L 325.552344 -226.021768 
L 325.552344 -226.531996 
L 325.552344 -227.042225 
L 325.552344 -227.552453 
L 325.552344 -228.062682 
L 325.552344 -228.57291 
L 325.552344 -229.083139 
L 325.552344 -229.593367 
L 325.552344 -230.103596 
L 325.869819 -230.103596 
L 325.869819 -230.103596 
L 326.058418 -229.593367 
L 326.333264 -229.083139 
L 326.719488 -228.57291 
L 327.242761 -228.062682 
L 327.926097 -227.552453 
L 328.785783 -227.042225 
L 329.82698 -226.531996 
L 331.039789 -226.021768 
L 332.396783 -225.51154 
L 333.853012 -225.001311 
L 335.349153 -224.491083 
L 336.817942 -223.980854 
L 338.193171 -223.470626 
L 339.419801 -222.960397 
L 340.463118 -222.450169 
L 341.314776 -221.93994 
L 341.994034 -221.429712 
L 342.543448 -220.919483 
L 343.019584 -220.409255 
L 343.480559 -219.899027 
L 343.973067 -219.388798 
L 344.52179 -218.87857 
L 345.123562 -218.368341 
L 345.747529 -217.858113 
L 346.341092 -217.347884 
L 346.840056 -216.837656 
L 347.180468 -216.327427 
L 347.309453 -215.817199 
L 347.192872 -215.30697 
L 346.818687 -214.796742 
L 346.196117 -214.286514 
L 345.351713 -213.776285 
L 344.323906 -213.266057 
L 343.157582 -212.755828 
L 341.899704 -212.2456 
L 340.596381 -211.735371 
L 339.291141 -211.225143 
L 338.0239 -210.714914 
L 336.830029 -210.204686 
L 335.739154 -209.694458 
L 334.773656 -209.184229 
L 333.947147 -208.674001 
L 333.263423 -208.163772 
L 332.716428 -207.653544 
L 332.291553 -207.143315 
L 331.968296 -206.633087 
L 331.723834 -206.122858 
L 331.536749 -205.61263 
L 331.389997 -205.102401 
L 331.272352 -204.592173 
L 331.177992 -204.081945 
L 331.104453 -203.571716 
L 331.049726 -203.061488 
L 331.009532 -202.551259 
L 330.975768 -202.041031 
L 330.936684 -201.530802 
L 330.878743 -201.020574 
L 330.789499 -200.510345 
L 330.660458 -200.000117 
L 330.488907 -199.489888 
L 330.278083 -198.97966 
L 330.035659 -198.469432 
L 329.771142 -197.959203 
L 329.493108 -197.448975 
L 329.207235 -196.938746 
L 328.915707 -196.428518 
L 328.618043 -195.918289 
L 328.312905 -195.408061 
L 328.000144 -194.897832 
L 327.68233 -194.387604 
L 327.365311 -193.877376 
L 327.057698 -193.367147 
L 326.769556 -192.856919 
L 326.510791 -192.34669 
L 326.289733 -191.836462 
L 326.112275 -191.326233 
L 325.981658 -190.816005 
L 325.898768 -190.305776 
L 325.862655 -189.795548 
L 325.870952 -189.285319 
L 325.919966 -188.775091 
L 326.004409 -188.264863 
L 326.11692 -187.754634 
L 326.247674 -187.244406 
L 326.384441 -186.734177 
L 326.513298 -186.223949 
L 326.620074 -185.71372 
L 326.692268 -185.203492 
L 326.721026 -184.693263 
L 326.702656 -184.183035 
L 326.639235 -183.672806 
L 326.538142 -183.162578 
L 326.410591 -182.65235 
L 326.269569 -182.142121 
L 326.127672 -181.631893 
L 325.995332 -181.121664 
L 325.879748 -180.611436 
L 325.784613 -180.101207 
L 325.710511 -179.590979 
z
" style="stroke: #3f3f3f; stroke-opacity: 0.6; stroke-width: 1.25"/>
    </defs>
    <g clip-path="url(#p7244867bbd)">
     <use xlink:href="#m07ee9d376c" x="0" y="288" style="fill: #e1812c; fill-opacity: 0.6; stroke: #3f3f3f; stroke-opacity: 0.6; stroke-width: 1.25"/>
    </g>
   </g>
   <g id="PolyCollection_9">
    <defs>
     <path id="m49e2453596" d="M 404.333137 -183.948225 
L 404.127756 -183.948225 
L 404.02243 -184.409308 
L 403.885097 -184.87039 
L 403.717312 -185.331473 
L 403.526326 -185.792556 
L 403.325599 -186.253638 
L 403.133844 -186.714721 
L 402.972431 -187.175803 
L 402.861576 -187.636886 
L 402.816195 -188.097968 
L 402.842613 -188.559051 
L 402.937096 -189.020133 
L 403.086693 -189.481216 
L 403.272081 -189.942298 
L 403.47153 -190.403381 
L 403.664804 -190.864463 
L 403.835975 -191.325546 
L 403.974605 -191.786628 
L 404.075331 -192.247711 
L 404.136358 -192.708794 
L 404.15761 -193.169876 
L 404.139262 -193.630959 
L 404.081154 -194.092041 
L 403.983297 -194.553124 
L 403.847287 -195.014206 
L 403.678137 -195.475289 
L 403.485814 -195.936371 
L 403.285719 -196.397454 
L 403.097546 -196.858536 
L 402.94245 -197.319619 
L 402.838978 -197.780701 
L 402.798761 -198.241784 
L 402.823142 -198.702867 
L 402.901709 -199.163949 
L 403.013162 -199.625032 
L 403.128256 -200.086114 
L 403.21405 -200.547197 
L 403.238462 -201.008279 
L 403.174311 -201.469362 
L 403.002325 -201.930444 
L 402.712986 -202.391527 
L 402.307254 -202.852609 
L 401.796273 -203.313692 
L 401.200125 -203.774774 
L 400.545673 -204.235857 
L 399.863615 -204.696939 
L 399.185043 -205.158022 
L 398.53794 -205.619105 
L 397.944165 -206.080187 
L 397.417388 -206.54127 
L 396.962269 -207.002352 
L 396.57486 -207.463435 
L 396.244004 -207.924517 
L 395.953287 -208.3856 
L 395.683111 -208.846682 
L 395.412516 -209.307765 
L 395.120527 -209.768847 
L 394.786925 -210.22993 
L 394.392534 -210.691012 
L 393.919225 -211.152095 
L 393.350025 -211.613177 
L 392.669731 -212.07426 
L 391.866428 -212.535343 
L 390.933926 -212.996425 
L 389.874676 -213.457508 
L 388.702182 -213.91859 
L 387.441586 -214.379673 
L 386.127311 -214.840755 
L 384.797414 -215.301838 
L 383.485594 -215.76292 
L 382.213143 -216.224003 
L 380.983963 -216.685085 
L 379.7855 -217.146168 
L 378.596912 -217.60725 
L 377.403224 -218.068333 
L 376.211538 -218.529416 
L 375.0637 -218.990498 
L 374.040077 -219.451581 
L 373.251553 -219.912663 
L 372.82082 -220.373746 
L 372.857896 -220.834828 
L 373.436991 -221.295911 
L 374.581318 -221.756993 
L 376.25947 -222.218076 
L 378.392917 -222.679158 
L 380.870836 -223.140241 
L 383.567143 -223.601323 
L 386.355407 -224.062406 
L 389.11949 -224.523488 
L 391.759914 -224.984571 
L 394.197196 -225.445654 
L 396.373489 -225.906736 
L 398.253207 -226.367819 
L 399.822592 -226.828901 
L 401.087873 -227.289984 
L 402.071846 -227.751066 
L 402.809156 -228.212149 
L 403.340964 -228.673231 
L 403.709857 -229.134314 
L 403.955741 -229.595396 
L 404.333137 -229.595396 
L 404.333137 -229.595396 
L 404.333137 -229.134314 
L 404.333137 -228.673231 
L 404.333137 -228.212149 
L 404.333137 -227.751066 
L 404.333137 -227.289984 
L 404.333137 -226.828901 
L 404.333137 -226.367819 
L 404.333137 -225.906736 
L 404.333137 -225.445654 
L 404.333137 -224.984571 
L 404.333137 -224.523488 
L 404.333137 -224.062406 
L 404.333137 -223.601323 
L 404.333137 -223.140241 
L 404.333137 -222.679158 
L 404.333137 -222.218076 
L 404.333137 -221.756993 
L 404.333137 -221.295911 
L 404.333137 -220.834828 
L 404.333137 -220.373746 
L 404.333137 -219.912663 
L 404.333137 -219.451581 
L 404.333137 -218.990498 
L 404.333137 -218.529416 
L 404.333137 -218.068333 
L 404.333137 -217.60725 
L 404.333137 -217.146168 
L 404.333137 -216.685085 
L 404.333137 -216.224003 
L 404.333137 -215.76292 
L 404.333137 -215.301838 
L 404.333137 -214.840755 
L 404.333137 -214.379673 
L 404.333137 -213.91859 
L 404.333137 -213.457508 
L 404.333137 -212.996425 
L 404.333137 -212.535343 
L 404.333137 -212.07426 
L 404.333137 -211.613177 
L 404.333137 -211.152095 
L 404.333137 -210.691012 
L 404.333137 -210.22993 
L 404.333137 -209.768847 
L 404.333137 -209.307765 
L 404.333137 -208.846682 
L 404.333137 -208.3856 
L 404.333137 -207.924517 
L 404.333137 -207.463435 
L 404.333137 -207.002352 
L 404.333137 -206.54127 
L 404.333137 -206.080187 
L 404.333137 -205.619105 
L 404.333137 -205.158022 
L 404.333137 -204.696939 
L 404.333137 -204.235857 
L 404.333137 -203.774774 
L 404.333137 -203.313692 
L 404.333137 -202.852609 
L 404.333137 -202.391527 
L 404.333137 -201.930444 
L 404.333137 -201.469362 
L 404.333137 -201.008279 
L 404.333137 -200.547197 
L 404.333137 -200.086114 
L 404.333137 -199.625032 
L 404.333137 -199.163949 
L 404.333137 -198.702867 
L 404.333137 -198.241784 
L 404.333137 -197.780701 
L 404.333137 -197.319619 
L 404.333137 -196.858536 
L 404.333137 -196.397454 
L 404.333137 -195.936371 
L 404.333137 -195.475289 
L 404.333137 -195.014206 
L 404.333137 -194.553124 
L 404.333137 -194.092041 
L 404.333137 -193.630959 
L 404.333137 -193.169876 
L 404.333137 -192.708794 
L 404.333137 -192.247711 
L 404.333137 -191.786628 
L 404.333137 -191.325546 
L 404.333137 -190.864463 
L 404.333137 -190.403381 
L 404.333137 -189.942298 
L 404.333137 -189.481216 
L 404.333137 -189.020133 
L 404.333137 -188.559051 
L 404.333137 -188.097968 
L 404.333137 -187.636886 
L 404.333137 -187.175803 
L 404.333137 -186.714721 
L 404.333137 -186.253638 
L 404.333137 -185.792556 
L 404.333137 -185.331473 
L 404.333137 -184.87039 
L 404.333137 -184.409308 
L 404.333137 -183.948225 
z
" style="stroke: #3f3f3f; stroke-opacity: 0.6; stroke-width: 1.25"/>
    </defs>
    <g clip-path="url(#p7244867bbd)">
     <use xlink:href="#m49e2453596" x="0" y="288" style="fill: #3274a1; fill-opacity: 0.6; stroke: #3f3f3f; stroke-opacity: 0.6; stroke-width: 1.25"/>
    </g>
   </g>
   <g id="PolyCollection_10">
    <defs>
     <path id="mfcea757ee7" d="M 404.53478 -189.284522 
L 404.333137 -189.284522 
L 404.333137 -189.676999 
L 404.333137 -190.069476 
L 404.333137 -190.461952 
L 404.333137 -190.854429 
L 404.333137 -191.246906 
L 404.333137 -191.639383 
L 404.333137 -192.03186 
L 404.333137 -192.424337 
L 404.333137 -192.816814 
L 404.333137 -193.209291 
L 404.333137 -193.601768 
L 404.333137 -193.994245 
L 404.333137 -194.386722 
L 404.333137 -194.779199 
L 404.333137 -195.171676 
L 404.333137 -195.564153 
L 404.333137 -195.95663 
L 404.333137 -196.349107 
L 404.333137 -196.741584 
L 404.333137 -197.134061 
L 404.333137 -197.526538 
L 404.333137 -197.919015 
L 404.333137 -198.311492 
L 404.333137 -198.703969 
L 404.333137 -199.096446 
L 404.333137 -199.488923 
L 404.333137 -199.8814 
L 404.333137 -200.273877 
L 404.333137 -200.666354 
L 404.333137 -201.058831 
L 404.333137 -201.451308 
L 404.333137 -201.843785 
L 404.333137 -202.236262 
L 404.333137 -202.628739 
L 404.333137 -203.021216 
L 404.333137 -203.413693 
L 404.333137 -203.80617 
L 404.333137 -204.198647 
L 404.333137 -204.591124 
L 404.333137 -204.983601 
L 404.333137 -205.376078 
L 404.333137 -205.768555 
L 404.333137 -206.161032 
L 404.333137 -206.553509 
L 404.333137 -206.945986 
L 404.333137 -207.338463 
L 404.333137 -207.73094 
L 404.333137 -208.123417 
L 404.333137 -208.515894 
L 404.333137 -208.908371 
L 404.333137 -209.300848 
L 404.333137 -209.693325 
L 404.333137 -210.085802 
L 404.333137 -210.478279 
L 404.333137 -210.870756 
L 404.333137 -211.263233 
L 404.333137 -211.65571 
L 404.333137 -212.048187 
L 404.333137 -212.440664 
L 404.333137 -212.83314 
L 404.333137 -213.225617 
L 404.333137 -213.618094 
L 404.333137 -214.010571 
L 404.333137 -214.403048 
L 404.333137 -214.795525 
L 404.333137 -215.188002 
L 404.333137 -215.580479 
L 404.333137 -215.972956 
L 404.333137 -216.365433 
L 404.333137 -216.75791 
L 404.333137 -217.150387 
L 404.333137 -217.542864 
L 404.333137 -217.935341 
L 404.333137 -218.327818 
L 404.333137 -218.720295 
L 404.333137 -219.112772 
L 404.333137 -219.505249 
L 404.333137 -219.897726 
L 404.333137 -220.290203 
L 404.333137 -220.68268 
L 404.333137 -221.075157 
L 404.333137 -221.467634 
L 404.333137 -221.860111 
L 404.333137 -222.252588 
L 404.333137 -222.645065 
L 404.333137 -223.037542 
L 404.333137 -223.430019 
L 404.333137 -223.822496 
L 404.333137 -224.214973 
L 404.333137 -224.60745 
L 404.333137 -224.999927 
L 404.333137 -225.392404 
L 404.333137 -225.784881 
L 404.333137 -226.177358 
L 404.333137 -226.569835 
L 404.333137 -226.962312 
L 404.333137 -227.354789 
L 404.333137 -227.747266 
L 404.333137 -228.139743 
L 404.782469 -228.139743 
L 404.782469 -228.139743 
L 405.033621 -227.747266 
L 405.391134 -227.354789 
L 405.882697 -226.962312 
L 406.536017 -226.569835 
L 407.376062 -226.177358 
L 408.422111 -225.784881 
L 409.685101 -225.392404 
L 411.165842 -224.999927 
L 412.854506 -224.60745 
L 414.731494 -224.214973 
L 416.76935 -223.822496 
L 418.934979 -223.430019 
L 421.191176 -223.037542 
L 423.496558 -222.645065 
L 425.803563 -222.252588 
L 428.055054 -221.860111 
L 430.18104 -221.467634 
L 432.097683 -221.075157 
L 433.710679 -220.68268 
L 434.924124 -220.290203 
L 435.654243 -219.897726 
L 435.845455 -219.505249 
L 435.48483 -219.112772 
L 434.610723 -218.720295 
L 433.312475 -218.327818 
L 431.720267 -217.935341 
L 429.986777 -217.542864 
L 428.264418 -217.150387 
L 426.68293 -216.75791 
L 425.331806 -216.365433 
L 424.250647 -215.972956 
L 423.428652 -215.580479 
L 422.812531 -215.188002 
L 422.320719 -214.795525 
L 421.860897 -214.403048 
L 421.347589 -214.010571 
L 420.716885 -213.618094 
L 419.936045 -213.225617 
L 419.006776 -212.83314 
L 417.962183 -212.440664 
L 416.858547 -212.048187 
L 415.763938 -211.65571 
L 414.74605 -211.263233 
L 413.861476 -210.870756 
L 413.148096 -210.478279 
L 412.62144 -210.085802 
L 412.27506 -209.693325 
L 412.084265 -209.300848 
L 412.012099 -208.908371 
L 412.016163 -208.515894 
L 412.054932 -208.123417 
L 412.09243 -207.73094 
L 412.100651 -207.338463 
L 412.059703 -206.945986 
L 411.956294 -206.553509 
L 411.781557 -206.161032 
L 411.529297 -205.768555 
L 411.195406 -205.376078 
L 410.77867 -204.983601 
L 410.282509 -204.591124 
L 409.716808 -204.198647 
L 409.098926 -203.80617 
L 408.453212 -203.413693 
L 407.808932 -203.021216 
L 407.197011 -202.628739 
L 406.64633 -202.236262 
L 406.18041 -201.843785 
L 405.815058 -201.451308 
L 405.557226 -201.058831 
L 405.40502 -200.666354 
L 405.348569 -200.273877 
L 405.371493 -199.8814 
L 405.452791 -199.488923 
L 405.569056 -199.096446 
L 405.696983 -198.703969 
L 405.81601 -198.311492 
L 405.910773 -197.919015 
L 405.972925 -197.526538 
L 406.001806 -197.134061 
L 406.003684 -196.741584 
L 405.989544 -196.349107 
L 405.971861 -195.95663 
L 405.961084 -195.564153 
L 405.962725 -195.171676 
L 405.975796 -194.779199 
L 405.993014 -194.386722 
L 406.00268 -193.994245 
L 405.991705 -193.601768 
L 405.948927 -193.209291 
L 405.867853 -192.816814 
L 405.748152 -192.424337 
L 405.595611 -192.03186 
L 405.420747 -191.639383 
L 405.236533 -191.246906 
L 405.055933 -190.854429 
L 404.889819 -190.461952 
L 404.745681 -190.069476 
L 404.627232 -189.676999 
L 404.53478 -189.284522 
z
" style="stroke: #3f3f3f; stroke-opacity: 0.6; stroke-width: 1.25"/>
    </defs>
    <g clip-path="url(#p7244867bbd)">
     <use xlink:href="#mfcea757ee7" x="0" y="288" style="fill: #e1812c; fill-opacity: 0.6; stroke: #3f3f3f; stroke-opacity: 0.6; stroke-width: 1.25"/>
    </g>
   </g>
   <g id="patch_3">
    <path d="M 89.209963 412.126382 
L 89.209963 412.126382 
L 89.209963 412.126382 
L 89.209963 412.126382 
z
" clip-path="url(#p7244867bbd)" style="fill: #3274a1; opacity: 0.6; stroke: #3f3f3f; stroke-width: 1.25; stroke-linejoin: miter"/>
   </g>
   <g id="patch_4">
    <path d="M 89.209963 412.126382 
L 89.209963 412.126382 
L 89.209963 412.126382 
L 89.209963 412.126382 
z
" clip-path="url(#p7244867bbd)" style="fill: #e1812c; opacity: 0.6; stroke: #3f3f3f; stroke-width: 1.25; stroke-linejoin: miter"/>
   </g>
   <g id="matplotlib.axis_1">
    <g id="xtick_1">
     <g id="line2d_1">
      <defs>
       <path id="m25f0d8cef9" d="M 0 0 
L 0 3.5 
" style="stroke: #000000; stroke-width: 0.8"/>
      </defs>
      <g>
       <use xlink:href="#m25f0d8cef9" x="89.209963" y="256.32" style="stroke: #000000; stroke-width: 0.8"/>
      </g>
     </g>
     <g id="text_1">
      <!-- 0.025% -->
      <g transform="translate(70.145119 270.918437) scale(0.1 -0.1)">
       <defs>
        <path id="DejaVuSans-30" d="M 2034 4250 
Q 1547 4250 1301 3770 
Q 1056 3291 1056 2328 
Q 1056 1369 1301 889 
Q 1547 409 2034 409 
Q 2525 409 2770 889 
Q 3016 1369 3016 2328 
Q 3016 3291 2770 3770 
Q 2525 4250 2034 4250 
z
M 2034 4750 
Q 2819 4750 3233 4129 
Q 3647 3509 3647 2328 
Q 3647 1150 3233 529 
Q 2819 -91 2034 -91 
Q 1250 -91 836 529 
Q 422 1150 422 2328 
Q 422 3509 836 4129 
Q 1250 4750 2034 4750 
z
" transform="scale(0.015625)"/>
        <path id="DejaVuSans-2e" d="M 684 794 
L 1344 794 
L 1344 0 
L 684 0 
L 684 794 
z
" transform="scale(0.015625)"/>
        <path id="DejaVuSans-32" d="M 1228 531 
L 3431 531 
L 3431 0 
L 469 0 
L 469 531 
Q 828 903 1448 1529 
Q 2069 2156 2228 2338 
Q 2531 2678 2651 2914 
Q 2772 3150 2772 3378 
Q 2772 3750 2511 3984 
Q 2250 4219 1831 4219 
Q 1534 4219 1204 4116 
Q 875 4013 500 3803 
L 500 4441 
Q 881 4594 1212 4672 
Q 1544 4750 1819 4750 
Q 2544 4750 2975 4387 
Q 3406 4025 3406 3419 
Q 3406 3131 3298 2873 
Q 3191 2616 2906 2266 
Q 2828 2175 2409 1742 
Q 1991 1309 1228 531 
z
" transform="scale(0.015625)"/>
        <path id="DejaVuSans-35" d="M 691 4666 
L 3169 4666 
L 3169 4134 
L 1269 4134 
L 1269 2991 
Q 1406 3038 1543 3061 
Q 1681 3084 1819 3084 
Q 2600 3084 3056 2656 
Q 3513 2228 3513 1497 
Q 3513 744 3044 326 
Q 2575 -91 1722 -91 
Q 1428 -91 1123 -41 
Q 819 9 494 109 
L 494 744 
Q 775 591 1075 516 
Q 1375 441 1709 441 
Q 2250 441 2565 725 
Q 2881 1009 2881 1497 
Q 2881 1984 2565 2268 
Q 2250 2553 1709 2553 
Q 1456 2553 1204 2497 
Q 953 2441 691 2322 
L 691 4666 
z
" transform="scale(0.015625)"/>
        <path id="DejaVuSans-25" d="M 4653 2053 
Q 4381 2053 4226 1822 
Q 4072 1591 4072 1178 
Q 4072 772 4226 539 
Q 4381 306 4653 306 
Q 4919 306 5073 539 
Q 5228 772 5228 1178 
Q 5228 1588 5073 1820 
Q 4919 2053 4653 2053 
z
M 4653 2450 
Q 5147 2450 5437 2106 
Q 5728 1763 5728 1178 
Q 5728 594 5436 251 
Q 5144 -91 4653 -91 
Q 4153 -91 3862 251 
Q 3572 594 3572 1178 
Q 3572 1766 3864 2108 
Q 4156 2450 4653 2450 
z
M 1428 4353 
Q 1159 4353 1004 4120 
Q 850 3888 850 3481 
Q 850 3069 1003 2837 
Q 1156 2606 1428 2606 
Q 1700 2606 1854 2837 
Q 2009 3069 2009 3481 
Q 2009 3884 1853 4118 
Q 1697 4353 1428 4353 
z
M 4250 4750 
L 4750 4750 
L 1831 -91 
L 1331 -91 
L 4250 4750 
z
M 1428 4750 
Q 1922 4750 2215 4408 
Q 2509 4066 2509 3481 
Q 2509 2891 2217 2550 
Q 1925 2209 1428 2209 
Q 931 2209 642 2551 
Q 353 2894 353 3481 
Q 353 4063 643 4406 
Q 934 4750 1428 4750 
z
" transform="scale(0.015625)"/>
       </defs>
       <use xlink:href="#DejaVuSans-30"/>
       <use xlink:href="#DejaVuSans-2e" x="63.623047"/>
       <use xlink:href="#DejaVuSans-30" x="95.410156"/>
       <use xlink:href="#DejaVuSans-32" x="159.033203"/>
       <use xlink:href="#DejaVuSans-35" x="222.65625"/>
       <use xlink:href="#DejaVuSans-25" x="286.279297"/>
      </g>
     </g>
    </g>
    <g id="xtick_2">
     <g id="line2d_2">
      <g>
       <use xlink:href="#m25f0d8cef9" x="167.990756" y="256.32" style="stroke: #000000; stroke-width: 0.8"/>
      </g>
     </g>
     <g id="text_2">
      <!-- 0.05% -->
      <g transform="translate(152.107163 270.918437) scale(0.1 -0.1)">
       <use xlink:href="#DejaVuSans-30"/>
       <use xlink:href="#DejaVuSans-2e" x="63.623047"/>
       <use xlink:href="#DejaVuSans-30" x="95.410156"/>
       <use xlink:href="#DejaVuSans-35" x="159.033203"/>
       <use xlink:href="#DejaVuSans-25" x="222.65625"/>
      </g>
     </g>
    </g>
    <g id="xtick_3">
     <g id="line2d_3">
      <g>
       <use xlink:href="#m25f0d8cef9" x="246.77155" y="256.32" style="stroke: #000000; stroke-width: 0.8"/>
      </g>
     </g>
     <g id="text_3">
      <!-- 0.1% -->
      <g transform="translate(234.069206 270.918437) scale(0.1 -0.1)">
       <defs>
        <path id="DejaVuSans-31" d="M 794 531 
L 1825 531 
L 1825 4091 
L 703 3866 
L 703 4441 
L 1819 4666 
L 2450 4666 
L 2450 531 
L 3481 531 
L 3481 0 
L 794 0 
L 794 531 
z
" transform="scale(0.015625)"/>
       </defs>
       <use xlink:href="#DejaVuSans-30"/>
       <use xlink:href="#DejaVuSans-2e" x="63.623047"/>
       <use xlink:href="#DejaVuSans-31" x="95.410156"/>
       <use xlink:href="#DejaVuSans-25" x="159.033203"/>
      </g>
     </g>
    </g>
    <g id="xtick_4">
     <g id="line2d_4">
      <g>
       <use xlink:href="#m25f0d8cef9" x="325.552344" y="256.32" style="stroke: #000000; stroke-width: 0.8"/>
      </g>
     </g>
     <g id="text_4">
      <!-- 0.25% -->
      <g transform="translate(309.66875 270.918437) scale(0.1 -0.1)">
       <use xlink:href="#DejaVuSans-30"/>
       <use xlink:href="#DejaVuSans-2e" x="63.623047"/>
       <use xlink:href="#DejaVuSans-32" x="95.410156"/>
       <use xlink:href="#DejaVuSans-35" x="159.033203"/>
       <use xlink:href="#DejaVuSans-25" x="222.65625"/>
      </g>
     </g>
    </g>
    <g id="xtick_5">
     <g id="line2d_5">
      <g>
       <use xlink:href="#m25f0d8cef9" x="404.333137" y="256.32" style="stroke: #000000; stroke-width: 0.8"/>
      </g>
     </g>
     <g id="text_5">
      <!-- 0.5% -->
      <g transform="translate(391.630793 270.918437) scale(0.1 -0.1)">
       <use xlink:href="#DejaVuSans-30"/>
       <use xlink:href="#DejaVuSans-2e" x="63.623047"/>
       <use xlink:href="#DejaVuSans-35" x="95.410156"/>
       <use xlink:href="#DejaVuSans-25" x="159.033203"/>
      </g>
     </g>
    </g>
    <g id="text_6">
     <!-- Percent labelled -->
     <g transform="translate(218.170313 284.596563) scale(0.1 -0.1)">
      <defs>
       <path id="DejaVuSans-50" d="M 1259 4147 
L 1259 2394 
L 2053 2394 
Q 2494 2394 2734 2622 
Q 2975 2850 2975 3272 
Q 2975 3691 2734 3919 
Q 2494 4147 2053 4147 
L 1259 4147 
z
M 628 4666 
L 2053 4666 
Q 2838 4666 3239 4311 
Q 3641 3956 3641 3272 
Q 3641 2581 3239 2228 
Q 2838 1875 2053 1875 
L 1259 1875 
L 1259 0 
L 628 0 
L 628 4666 
z
" transform="scale(0.015625)"/>
       <path id="DejaVuSans-65" d="M 3597 1894 
L 3597 1613 
L 953 1613 
Q 991 1019 1311 708 
Q 1631 397 2203 397 
Q 2534 397 2845 478 
Q 3156 559 3463 722 
L 3463 178 
Q 3153 47 2828 -22 
Q 2503 -91 2169 -91 
Q 1331 -91 842 396 
Q 353 884 353 1716 
Q 353 2575 817 3079 
Q 1281 3584 2069 3584 
Q 2775 3584 3186 3129 
Q 3597 2675 3597 1894 
z
M 3022 2063 
Q 3016 2534 2758 2815 
Q 2500 3097 2075 3097 
Q 1594 3097 1305 2825 
Q 1016 2553 972 2059 
L 3022 2063 
z
" transform="scale(0.015625)"/>
       <path id="DejaVuSans-72" d="M 2631 2963 
Q 2534 3019 2420 3045 
Q 2306 3072 2169 3072 
Q 1681 3072 1420 2755 
Q 1159 2438 1159 1844 
L 1159 0 
L 581 0 
L 581 3500 
L 1159 3500 
L 1159 2956 
Q 1341 3275 1631 3429 
Q 1922 3584 2338 3584 
Q 2397 3584 2469 3576 
Q 2541 3569 2628 3553 
L 2631 2963 
z
" transform="scale(0.015625)"/>
       <path id="DejaVuSans-63" d="M 3122 3366 
L 3122 2828 
Q 2878 2963 2633 3030 
Q 2388 3097 2138 3097 
Q 1578 3097 1268 2742 
Q 959 2388 959 1747 
Q 959 1106 1268 751 
Q 1578 397 2138 397 
Q 2388 397 2633 464 
Q 2878 531 3122 666 
L 3122 134 
Q 2881 22 2623 -34 
Q 2366 -91 2075 -91 
Q 1284 -91 818 406 
Q 353 903 353 1747 
Q 353 2603 823 3093 
Q 1294 3584 2113 3584 
Q 2378 3584 2631 3529 
Q 2884 3475 3122 3366 
z
" transform="scale(0.015625)"/>
       <path id="DejaVuSans-6e" d="M 3513 2113 
L 3513 0 
L 2938 0 
L 2938 2094 
Q 2938 2591 2744 2837 
Q 2550 3084 2163 3084 
Q 1697 3084 1428 2787 
Q 1159 2491 1159 1978 
L 1159 0 
L 581 0 
L 581 3500 
L 1159 3500 
L 1159 2956 
Q 1366 3272 1645 3428 
Q 1925 3584 2291 3584 
Q 2894 3584 3203 3211 
Q 3513 2838 3513 2113 
z
" transform="scale(0.015625)"/>
       <path id="DejaVuSans-74" d="M 1172 4494 
L 1172 3500 
L 2356 3500 
L 2356 3053 
L 1172 3053 
L 1172 1153 
Q 1172 725 1289 603 
Q 1406 481 1766 481 
L 2356 481 
L 2356 0 
L 1766 0 
Q 1100 0 847 248 
Q 594 497 594 1153 
L 594 3053 
L 172 3053 
L 172 3500 
L 594 3500 
L 594 4494 
L 1172 4494 
z
" transform="scale(0.015625)"/>
       <path id="DejaVuSans-20" transform="scale(0.015625)"/>
       <path id="DejaVuSans-6c" d="M 603 4863 
L 1178 4863 
L 1178 0 
L 603 0 
L 603 4863 
z
" transform="scale(0.015625)"/>
       <path id="DejaVuSans-61" d="M 2194 1759 
Q 1497 1759 1228 1600 
Q 959 1441 959 1056 
Q 959 750 1161 570 
Q 1363 391 1709 391 
Q 2188 391 2477 730 
Q 2766 1069 2766 1631 
L 2766 1759 
L 2194 1759 
z
M 3341 1997 
L 3341 0 
L 2766 0 
L 2766 531 
Q 2569 213 2275 61 
Q 1981 -91 1556 -91 
Q 1019 -91 701 211 
Q 384 513 384 1019 
Q 384 1609 779 1909 
Q 1175 2209 1959 2209 
L 2766 2209 
L 2766 2266 
Q 2766 2663 2505 2880 
Q 2244 3097 1772 3097 
Q 1472 3097 1187 3025 
Q 903 2953 641 2809 
L 641 3341 
Q 956 3463 1253 3523 
Q 1550 3584 1831 3584 
Q 2591 3584 2966 3190 
Q 3341 2797 3341 1997 
z
" transform="scale(0.015625)"/>
       <path id="DejaVuSans-62" d="M 3116 1747 
Q 3116 2381 2855 2742 
Q 2594 3103 2138 3103 
Q 1681 3103 1420 2742 
Q 1159 2381 1159 1747 
Q 1159 1113 1420 752 
Q 1681 391 2138 391 
Q 2594 391 2855 752 
Q 3116 1113 3116 1747 
z
M 1159 2969 
Q 1341 3281 1617 3432 
Q 1894 3584 2278 3584 
Q 2916 3584 3314 3078 
Q 3713 2572 3713 1747 
Q 3713 922 3314 415 
Q 2916 -91 2278 -91 
Q 1894 -91 1617 61 
Q 1341 213 1159 525 
L 1159 0 
L 581 0 
L 581 4863 
L 1159 4863 
L 1159 2969 
z
" transform="scale(0.015625)"/>
       <path id="DejaVuSans-64" d="M 2906 2969 
L 2906 4863 
L 3481 4863 
L 3481 0 
L 2906 0 
L 2906 525 
Q 2725 213 2448 61 
Q 2172 -91 1784 -91 
Q 1150 -91 751 415 
Q 353 922 353 1747 
Q 353 2572 751 3078 
Q 1150 3584 1784 3584 
Q 2172 3584 2448 3432 
Q 2725 3281 2906 2969 
z
M 947 1747 
Q 947 1113 1208 752 
Q 1469 391 1925 391 
Q 2381 391 2643 752 
Q 2906 1113 2906 1747 
Q 2906 2381 2643 2742 
Q 2381 3103 1925 3103 
Q 1469 3103 1208 2742 
Q 947 2381 947 1747 
z
" transform="scale(0.015625)"/>
      </defs>
      <use xlink:href="#DejaVuSans-50"/>
      <use xlink:href="#DejaVuSans-65" x="56.677734"/>
      <use xlink:href="#DejaVuSans-72" x="118.201172"/>
      <use xlink:href="#DejaVuSans-63" x="157.064453"/>
      <use xlink:href="#DejaVuSans-65" x="212.044922"/>
      <use xlink:href="#DejaVuSans-6e" x="273.568359"/>
      <use xlink:href="#DejaVuSans-74" x="336.947266"/>
      <use xlink:href="#DejaVuSans-20" x="376.15625"/>
      <use xlink:href="#DejaVuSans-6c" x="407.943359"/>
      <use xlink:href="#DejaVuSans-61" x="435.726562"/>
      <use xlink:href="#DejaVuSans-62" x="497.005859"/>
      <use xlink:href="#DejaVuSans-65" x="560.482422"/>
      <use xlink:href="#DejaVuSans-6c" x="622.005859"/>
      <use xlink:href="#DejaVuSans-6c" x="649.789062"/>
      <use xlink:href="#DejaVuSans-65" x="677.572266"/>
      <use xlink:href="#DejaVuSans-64" x="739.095703"/>
     </g>
    </g>
   </g>
   <g id="matplotlib.axis_2">
    <g id="ytick_1">
     <g id="line2d_6">
      <defs>
       <path id="m8330ad3d0b" d="M 0 0 
L -3.5 0 
" style="stroke: #000000; stroke-width: 0.8"/>
      </defs>
      <g>
       <use xlink:href="#m8330ad3d0b" x="63" y="229.899733" style="stroke: #000000; stroke-width: 0.8"/>
      </g>
     </g>
     <g id="text_7">
      <!-- 0.5 -->
      <g transform="translate(40.096875 233.698951) scale(0.1 -0.1)">
       <use xlink:href="#DejaVuSans-30"/>
       <use xlink:href="#DejaVuSans-2e" x="63.623047"/>
       <use xlink:href="#DejaVuSans-35" x="95.410156"/>
      </g>
     </g>
    </g>
    <g id="ytick_2">
     <g id="line2d_7">
      <g>
       <use xlink:href="#m8330ad3d0b" x="63" y="193.454403" style="stroke: #000000; stroke-width: 0.8"/>
      </g>
     </g>
     <g id="text_8">
      <!-- 0.6 -->
      <g transform="translate(40.096875 197.253621) scale(0.1 -0.1)">
       <defs>
        <path id="DejaVuSans-36" d="M 2113 2584 
Q 1688 2584 1439 2293 
Q 1191 2003 1191 1497 
Q 1191 994 1439 701 
Q 1688 409 2113 409 
Q 2538 409 2786 701 
Q 3034 994 3034 1497 
Q 3034 2003 2786 2293 
Q 2538 2584 2113 2584 
z
M 3366 4563 
L 3366 3988 
Q 3128 4100 2886 4159 
Q 2644 4219 2406 4219 
Q 1781 4219 1451 3797 
Q 1122 3375 1075 2522 
Q 1259 2794 1537 2939 
Q 1816 3084 2150 3084 
Q 2853 3084 3261 2657 
Q 3669 2231 3669 1497 
Q 3669 778 3244 343 
Q 2819 -91 2113 -91 
Q 1303 -91 875 529 
Q 447 1150 447 2328 
Q 447 3434 972 4092 
Q 1497 4750 2381 4750 
Q 2619 4750 2861 4703 
Q 3103 4656 3366 4563 
z
" transform="scale(0.015625)"/>
       </defs>
       <use xlink:href="#DejaVuSans-30"/>
       <use xlink:href="#DejaVuSans-2e" x="63.623047"/>
       <use xlink:href="#DejaVuSans-36" x="95.410156"/>
      </g>
     </g>
    </g>
    <g id="ytick_3">
     <g id="line2d_8">
      <g>
       <use xlink:href="#m8330ad3d0b" x="63" y="157.009073" style="stroke: #000000; stroke-width: 0.8"/>
      </g>
     </g>
     <g id="text_9">
      <!-- 0.7 -->
      <g transform="translate(40.096875 160.808292) scale(0.1 -0.1)">
       <defs>
        <path id="DejaVuSans-37" d="M 525 4666 
L 3525 4666 
L 3525 4397 
L 1831 0 
L 1172 0 
L 2766 4134 
L 525 4134 
L 525 4666 
z
" transform="scale(0.015625)"/>
       </defs>
       <use xlink:href="#DejaVuSans-30"/>
       <use xlink:href="#DejaVuSans-2e" x="63.623047"/>
       <use xlink:href="#DejaVuSans-37" x="95.410156"/>
      </g>
     </g>
    </g>
    <g id="ytick_4">
     <g id="line2d_9">
      <g>
       <use xlink:href="#m8330ad3d0b" x="63" y="120.563743" style="stroke: #000000; stroke-width: 0.8"/>
      </g>
     </g>
     <g id="text_10">
      <!-- 0.8 -->
      <g transform="translate(40.096875 124.362962) scale(0.1 -0.1)">
       <defs>
        <path id="DejaVuSans-38" d="M 2034 2216 
Q 1584 2216 1326 1975 
Q 1069 1734 1069 1313 
Q 1069 891 1326 650 
Q 1584 409 2034 409 
Q 2484 409 2743 651 
Q 3003 894 3003 1313 
Q 3003 1734 2745 1975 
Q 2488 2216 2034 2216 
z
M 1403 2484 
Q 997 2584 770 2862 
Q 544 3141 544 3541 
Q 544 4100 942 4425 
Q 1341 4750 2034 4750 
Q 2731 4750 3128 4425 
Q 3525 4100 3525 3541 
Q 3525 3141 3298 2862 
Q 3072 2584 2669 2484 
Q 3125 2378 3379 2068 
Q 3634 1759 3634 1313 
Q 3634 634 3220 271 
Q 2806 -91 2034 -91 
Q 1263 -91 848 271 
Q 434 634 434 1313 
Q 434 1759 690 2068 
Q 947 2378 1403 2484 
z
M 1172 3481 
Q 1172 3119 1398 2916 
Q 1625 2713 2034 2713 
Q 2441 2713 2670 2916 
Q 2900 3119 2900 3481 
Q 2900 3844 2670 4047 
Q 2441 4250 2034 4250 
Q 1625 4250 1398 4047 
Q 1172 3844 1172 3481 
z
" transform="scale(0.015625)"/>
       </defs>
       <use xlink:href="#DejaVuSans-30"/>
       <use xlink:href="#DejaVuSans-2e" x="63.623047"/>
       <use xlink:href="#DejaVuSans-38" x="95.410156"/>
      </g>
     </g>
    </g>
    <g id="ytick_5">
     <g id="line2d_10">
      <g>
       <use xlink:href="#m8330ad3d0b" x="63" y="84.118413" style="stroke: #000000; stroke-width: 0.8"/>
      </g>
     </g>
     <g id="text_11">
      <!-- 0.9 -->
      <g transform="translate(40.096875 87.917632) scale(0.1 -0.1)">
       <defs>
        <path id="DejaVuSans-39" d="M 703 97 
L 703 672 
Q 941 559 1184 500 
Q 1428 441 1663 441 
Q 2288 441 2617 861 
Q 2947 1281 2994 2138 
Q 2813 1869 2534 1725 
Q 2256 1581 1919 1581 
Q 1219 1581 811 2004 
Q 403 2428 403 3163 
Q 403 3881 828 4315 
Q 1253 4750 1959 4750 
Q 2769 4750 3195 4129 
Q 3622 3509 3622 2328 
Q 3622 1225 3098 567 
Q 2575 -91 1691 -91 
Q 1453 -91 1209 -44 
Q 966 3 703 97 
z
M 1959 2075 
Q 2384 2075 2632 2365 
Q 2881 2656 2881 3163 
Q 2881 3666 2632 3958 
Q 2384 4250 1959 4250 
Q 1534 4250 1286 3958 
Q 1038 3666 1038 3163 
Q 1038 2656 1286 2365 
Q 1534 2075 1959 2075 
z
" transform="scale(0.015625)"/>
       </defs>
       <use xlink:href="#DejaVuSans-30"/>
       <use xlink:href="#DejaVuSans-2e" x="63.623047"/>
       <use xlink:href="#DejaVuSans-39" x="95.410156"/>
      </g>
     </g>
    </g>
    <g id="ytick_6">
     <g id="line2d_11">
      <g>
       <use xlink:href="#m8330ad3d0b" x="63" y="47.673083" style="stroke: #000000; stroke-width: 0.8"/>
      </g>
     </g>
     <g id="text_12">
      <!-- 1.0 -->
      <g transform="translate(40.096875 51.472302) scale(0.1 -0.1)">
       <use xlink:href="#DejaVuSans-31"/>
       <use xlink:href="#DejaVuSans-2e" x="63.623047"/>
       <use xlink:href="#DejaVuSans-30" x="95.410156"/>
      </g>
     </g>
    </g>
    <g id="text_13">
     <!-- Accuracy -->
     <g transform="translate(34.017187 168.268125) rotate(-90) scale(0.1 -0.1)">
      <defs>
       <path id="DejaVuSans-41" d="M 2188 4044 
L 1331 1722 
L 3047 1722 
L 2188 4044 
z
M 1831 4666 
L 2547 4666 
L 4325 0 
L 3669 0 
L 3244 1197 
L 1141 1197 
L 716 0 
L 50 0 
L 1831 4666 
z
" transform="scale(0.015625)"/>
       <path id="DejaVuSans-75" d="M 544 1381 
L 544 3500 
L 1119 3500 
L 1119 1403 
Q 1119 906 1312 657 
Q 1506 409 1894 409 
Q 2359 409 2629 706 
Q 2900 1003 2900 1516 
L 2900 3500 
L 3475 3500 
L 3475 0 
L 2900 0 
L 2900 538 
Q 2691 219 2414 64 
Q 2138 -91 1772 -91 
Q 1169 -91 856 284 
Q 544 659 544 1381 
z
M 1991 3584 
L 1991 3584 
z
" transform="scale(0.015625)"/>
       <path id="DejaVuSans-79" d="M 2059 -325 
Q 1816 -950 1584 -1140 
Q 1353 -1331 966 -1331 
L 506 -1331 
L 506 -850 
L 844 -850 
Q 1081 -850 1212 -737 
Q 1344 -625 1503 -206 
L 1606 56 
L 191 3500 
L 800 3500 
L 1894 763 
L 2988 3500 
L 3597 3500 
L 2059 -325 
z
" transform="scale(0.015625)"/>
      </defs>
      <use xlink:href="#DejaVuSans-41"/>
      <use xlink:href="#DejaVuSans-63" x="66.658203"/>
      <use xlink:href="#DejaVuSans-63" x="121.638672"/>
      <use xlink:href="#DejaVuSans-75" x="176.619141"/>
      <use xlink:href="#DejaVuSans-72" x="239.998047"/>
      <use xlink:href="#DejaVuSans-61" x="281.111328"/>
      <use xlink:href="#DejaVuSans-63" x="342.390625"/>
      <use xlink:href="#DejaVuSans-79" x="397.371094"/>
     </g>
    </g>
   </g>
   <g id="line2d_12">
    <path d="M 85.664875 100.456234 
L 89.209963 100.456234 
" clip-path="url(#p7244867bbd)" style="fill: none; stroke-dasharray: 1.5625,0.9375; stroke-dashoffset: 0; stroke: #3f3f3f; stroke-width: 1.25"/>
   </g>
   <g id="line2d_13">
    <path d="M 81.426842 79.997832 
L 89.209963 79.997832 
" clip-path="url(#p7244867bbd)" style="fill: none; stroke-dasharray: 3.125,1.25; stroke-dashoffset: 0; stroke: #3f3f3f; stroke-width: 1.25"/>
   </g>
   <g id="line2d_14">
    <path d="M 80.981982 71.054048 
L 89.209963 71.054048 
" clip-path="url(#p7244867bbd)" style="fill: none; stroke-dasharray: 1.5625,0.9375; stroke-dashoffset: 0; stroke: #3f3f3f; stroke-width: 1.25"/>
   </g>
   <g id="line2d_15">
    <path d="M 89.209963 111.801724 
L 93.735328 111.801724 
" clip-path="url(#p7244867bbd)" style="fill: none; stroke-dasharray: 1.5625,0.9375; stroke-dashoffset: 0; stroke: #3f3f3f; stroke-width: 1.25"/>
   </g>
   <g id="line2d_16">
    <path d="M 89.209963 96.355819 
L 96.708595 96.355819 
" clip-path="url(#p7244867bbd)" style="fill: none; stroke-dasharray: 3.125,1.25; stroke-dashoffset: 0; stroke: #3f3f3f; stroke-width: 1.25"/>
   </g>
   <g id="line2d_17">
    <path d="M 89.209963 82.705733 
L 96.027477 82.705733 
" clip-path="url(#p7244867bbd)" style="fill: none; stroke-dasharray: 1.5625,0.9375; stroke-dashoffset: 0; stroke: #3f3f3f; stroke-width: 1.25"/>
   </g>
   <g id="line2d_18">
    <path d="M 164.114791 99.812713 
L 167.990756 99.812713 
" clip-path="url(#p7244867bbd)" style="fill: none; stroke-dasharray: 1.5625,0.9375; stroke-dashoffset: 0; stroke: #3f3f3f; stroke-width: 1.25"/>
   </g>
   <g id="line2d_19">
    <path d="M 158.310884 78.018481 
L 167.990756 78.018481 
" clip-path="url(#p7244867bbd)" style="fill: none; stroke-dasharray: 3.125,1.25; stroke-dashoffset: 0; stroke: #3f3f3f; stroke-width: 1.25"/>
   </g>
   <g id="line2d_20">
    <path d="M 156.396412 71.681771 
L 167.990756 71.681771 
" clip-path="url(#p7244867bbd)" style="fill: none; stroke-dasharray: 1.5625,0.9375; stroke-dashoffset: 0; stroke: #3f3f3f; stroke-width: 1.25"/>
   </g>
   <g id="line2d_21">
    <path d="M 167.990756 110.449168 
L 173.311898 110.449168 
" clip-path="url(#p7244867bbd)" style="fill: none; stroke-dasharray: 1.5625,0.9375; stroke-dashoffset: 0; stroke: #3f3f3f; stroke-width: 1.25"/>
   </g>
   <g id="line2d_22">
    <path d="M 167.990756 94.340226 
L 173.973744 94.340226 
" clip-path="url(#p7244867bbd)" style="fill: none; stroke-dasharray: 3.125,1.25; stroke-dashoffset: 0; stroke: #3f3f3f; stroke-width: 1.25"/>
   </g>
   <g id="line2d_23">
    <path d="M 167.990756 79.568508 
L 175.004656 79.568508 
" clip-path="url(#p7244867bbd)" style="fill: none; stroke-dasharray: 1.5625,0.9375; stroke-dashoffset: 0; stroke: #3f3f3f; stroke-width: 1.25"/>
   </g>
   <g id="line2d_24">
    <path d="M 239.909407 82.712702 
L 246.77155 82.712702 
" clip-path="url(#p7244867bbd)" style="fill: none; stroke-dasharray: 1.5625,0.9375; stroke-dashoffset: 0; stroke: #3f3f3f; stroke-width: 1.25"/>
   </g>
   <g id="line2d_25">
    <path d="M 227.585739 73.141659 
L 246.77155 73.141659 
" clip-path="url(#p7244867bbd)" style="fill: none; stroke-dasharray: 3.125,1.25; stroke-dashoffset: 0; stroke: #3f3f3f; stroke-width: 1.25"/>
   </g>
   <g id="line2d_26">
    <path d="M 227.501671 68.468346 
L 246.77155 68.468346 
" clip-path="url(#p7244867bbd)" style="fill: none; stroke-dasharray: 1.5625,0.9375; stroke-dashoffset: 0; stroke: #3f3f3f; stroke-width: 1.25"/>
   </g>
   <g id="line2d_27">
    <path d="M 246.77155 84.809141 
L 257.40656 84.809141 
" clip-path="url(#p7244867bbd)" style="fill: none; stroke-dasharray: 1.5625,0.9375; stroke-dashoffset: 0; stroke: #3f3f3f; stroke-width: 1.25"/>
   </g>
   <g id="line2d_28">
    <path d="M 246.77155 78.392978 
L 262.821744 78.392978 
" clip-path="url(#p7244867bbd)" style="fill: none; stroke-dasharray: 3.125,1.25; stroke-dashoffset: 0; stroke: #3f3f3f; stroke-width: 1.25"/>
   </g>
   <g id="line2d_29">
    <path d="M 246.77155 73.541246 
L 260.302893 73.541246 
" clip-path="url(#p7244867bbd)" style="fill: none; stroke-dasharray: 1.5625,0.9375; stroke-dashoffset: 0; stroke: #3f3f3f; stroke-width: 1.25"/>
   </g>
   <g id="line2d_30">
    <path d="M 306.890649 73.821421 
L 325.552344 73.821421 
" clip-path="url(#p7244867bbd)" style="fill: none; stroke-dasharray: 1.5625,0.9375; stroke-dashoffset: 0; stroke: #3f3f3f; stroke-width: 1.25"/>
   </g>
   <g id="line2d_31">
    <path d="M 295.439954 70.671652 
L 325.552344 70.671652 
" clip-path="url(#p7244867bbd)" style="fill: none; stroke-dasharray: 3.125,1.25; stroke-dashoffset: 0; stroke: #3f3f3f; stroke-width: 1.25"/>
   </g>
   <g id="line2d_32">
    <path d="M 300.89449 67.139022 
L 325.552344 67.139022 
" clip-path="url(#p7244867bbd)" style="fill: none; stroke-dasharray: 1.5625,0.9375; stroke-dashoffset: 0; stroke: #3f3f3f; stroke-width: 1.25"/>
   </g>
   <g id="line2d_33">
    <path d="M 325.552344 77.453019 
L 337.630957 77.453019 
" clip-path="url(#p7244867bbd)" style="fill: none; stroke-dasharray: 1.5625,0.9375; stroke-dashoffset: 0; stroke: #3f3f3f; stroke-width: 1.25"/>
   </g>
   <g id="line2d_34">
    <path d="M 325.552344 72.616619 
L 347.210331 72.616619 
" clip-path="url(#p7244867bbd)" style="fill: none; stroke-dasharray: 3.125,1.25; stroke-dashoffset: 0; stroke: #3f3f3f; stroke-width: 1.25"/>
   </g>
   <g id="line2d_35">
    <path d="M 325.552344 68.24021 
L 343.61496 68.24021 
" clip-path="url(#p7244867bbd)" style="fill: none; stroke-dasharray: 1.5625,0.9375; stroke-dashoffset: 0; stroke: #3f3f3f; stroke-width: 1.25"/>
   </g>
   <g id="line2d_36">
    <path d="M 389.013454 74.203817 
L 404.333137 74.203817 
" clip-path="url(#p7244867bbd)" style="fill: none; stroke-dasharray: 1.5625,0.9375; stroke-dashoffset: 0; stroke: #3f3f3f; stroke-width: 1.25"/>
   </g>
   <g id="line2d_37">
    <path d="M 376.820334 69.706138 
L 404.333137 69.706138 
" clip-path="url(#p7244867bbd)" style="fill: none; stroke-dasharray: 3.125,1.25; stroke-dashoffset: 0; stroke: #3f3f3f; stroke-width: 1.25"/>
   </g>
   <g id="line2d_38">
    <path d="M 373.25838 66.846301 
L 404.333137 66.846301 
" clip-path="url(#p7244867bbd)" style="fill: none; stroke-dasharray: 1.5625,0.9375; stroke-dashoffset: 0; stroke: #3f3f3f; stroke-width: 1.25"/>
   </g>
   <g id="line2d_39">
    <path d="M 404.333137 74.824571 
L 419.817213 74.824571 
" clip-path="url(#p7244867bbd)" style="fill: none; stroke-dasharray: 1.5625,0.9375; stroke-dashoffset: 0; stroke: #3f3f3f; stroke-width: 1.25"/>
   </g>
   <g id="line2d_40">
    <path d="M 404.333137 69.704279 
L 433.182263 69.704279 
" clip-path="url(#p7244867bbd)" style="fill: none; stroke-dasharray: 3.125,1.25; stroke-dashoffset: 0; stroke: #3f3f3f; stroke-width: 1.25"/>
   </g>
   <g id="line2d_41">
    <path d="M 404.333137 68.137061 
L 435.67119 68.137061 
" clip-path="url(#p7244867bbd)" style="fill: none; stroke-dasharray: 1.5625,0.9375; stroke-dashoffset: 0; stroke: #3f3f3f; stroke-width: 1.25"/>
   </g>
   <g id="line2d_42">
    <path d="M 89.209963 79.997832 
L 167.990756 78.018481 
L 246.77155 73.141659 
L 325.552344 70.671652 
L 404.333137 69.706138 
" clip-path="url(#p7244867bbd)" style="fill: none; stroke: #add8e6; stroke-opacity: 0.8; stroke-width: 1.5; stroke-linecap: square"/>
   </g>
   <g id="line2d_43">
    <path d="M 89.209963 96.355819 
L 167.990756 94.340226 
L 246.77155 78.392978 
L 325.552344 72.616619 
L 404.333137 69.704279 
" clip-path="url(#p7244867bbd)" style="fill: none; stroke: #ffa500; stroke-opacity: 0.7; stroke-width: 1.5; stroke-linecap: square"/>
   </g>
   <g id="patch_5">
    <path d="M 63 256.32 
L 63 34.56 
" style="fill: none; stroke: #000000; stroke-width: 0.8; stroke-linejoin: miter; stroke-linecap: square"/>
   </g>
   <g id="patch_6">
    <path d="M 453.6 256.32 
L 453.6 34.56 
" style="fill: none; stroke: #000000; stroke-width: 0.8; stroke-linejoin: miter; stroke-linecap: square"/>
   </g>
   <g id="patch_7">
    <path d="M 63 256.32 
L 453.6 256.32 
" style="fill: none; stroke: #000000; stroke-width: 0.8; stroke-linejoin: miter; stroke-linecap: square"/>
   </g>
   <g id="patch_8">
    <path d="M 63 34.56 
L 453.6 34.56 
" style="fill: none; stroke: #000000; stroke-width: 0.8; stroke-linejoin: miter; stroke-linecap: square"/>
   </g>
   <g id="text_14">
    <!-- Accuracy vs percent labelled -->
    <g transform="translate(171.85125 28.56) scale(0.12 -0.12)">
     <defs>
      <path id="DejaVuSans-76" d="M 191 3500 
L 800 3500 
L 1894 563 
L 2988 3500 
L 3597 3500 
L 2284 0 
L 1503 0 
L 191 3500 
z
" transform="scale(0.015625)"/>
      <path id="DejaVuSans-73" d="M 2834 3397 
L 2834 2853 
Q 2591 2978 2328 3040 
Q 2066 3103 1784 3103 
Q 1356 3103 1142 2972 
Q 928 2841 928 2578 
Q 928 2378 1081 2264 
Q 1234 2150 1697 2047 
L 1894 2003 
Q 2506 1872 2764 1633 
Q 3022 1394 3022 966 
Q 3022 478 2636 193 
Q 2250 -91 1575 -91 
Q 1294 -91 989 -36 
Q 684 19 347 128 
L 347 722 
Q 666 556 975 473 
Q 1284 391 1588 391 
Q 1994 391 2212 530 
Q 2431 669 2431 922 
Q 2431 1156 2273 1281 
Q 2116 1406 1581 1522 
L 1381 1569 
Q 847 1681 609 1914 
Q 372 2147 372 2553 
Q 372 3047 722 3315 
Q 1072 3584 1716 3584 
Q 2034 3584 2315 3537 
Q 2597 3491 2834 3397 
z
" transform="scale(0.015625)"/>
      <path id="DejaVuSans-70" d="M 1159 525 
L 1159 -1331 
L 581 -1331 
L 581 3500 
L 1159 3500 
L 1159 2969 
Q 1341 3281 1617 3432 
Q 1894 3584 2278 3584 
Q 2916 3584 3314 3078 
Q 3713 2572 3713 1747 
Q 3713 922 3314 415 
Q 2916 -91 2278 -91 
Q 1894 -91 1617 61 
Q 1341 213 1159 525 
z
M 3116 1747 
Q 3116 2381 2855 2742 
Q 2594 3103 2138 3103 
Q 1681 3103 1420 2742 
Q 1159 2381 1159 1747 
Q 1159 1113 1420 752 
Q 1681 391 2138 391 
Q 2594 391 2855 752 
Q 3116 1113 3116 1747 
z
" transform="scale(0.015625)"/>
     </defs>
     <use xlink:href="#DejaVuSans-41"/>
     <use xlink:href="#DejaVuSans-63" x="66.658203"/>
     <use xlink:href="#DejaVuSans-63" x="121.638672"/>
     <use xlink:href="#DejaVuSans-75" x="176.619141"/>
     <use xlink:href="#DejaVuSans-72" x="239.998047"/>
     <use xlink:href="#DejaVuSans-61" x="281.111328"/>
     <use xlink:href="#DejaVuSans-63" x="342.390625"/>
     <use xlink:href="#DejaVuSans-79" x="397.371094"/>
     <use xlink:href="#DejaVuSans-20" x="456.550781"/>
     <use xlink:href="#DejaVuSans-76" x="488.337891"/>
     <use xlink:href="#DejaVuSans-73" x="547.517578"/>
     <use xlink:href="#DejaVuSans-20" x="599.617188"/>
     <use xlink:href="#DejaVuSans-70" x="631.404297"/>
     <use xlink:href="#DejaVuSans-65" x="694.880859"/>
     <use xlink:href="#DejaVuSans-72" x="756.404297"/>
     <use xlink:href="#DejaVuSans-63" x="795.267578"/>
     <use xlink:href="#DejaVuSans-65" x="850.248047"/>
     <use xlink:href="#DejaVuSans-6e" x="911.771484"/>
     <use xlink:href="#DejaVuSans-74" x="975.150391"/>
     <use xlink:href="#DejaVuSans-20" x="1014.359375"/>
     <use xlink:href="#DejaVuSans-6c" x="1046.146484"/>
     <use xlink:href="#DejaVuSans-61" x="1073.929688"/>
     <use xlink:href="#DejaVuSans-62" x="1135.208984"/>
     <use xlink:href="#DejaVuSans-65" x="1198.685547"/>
     <use xlink:href="#DejaVuSans-6c" x="1260.208984"/>
     <use xlink:href="#DejaVuSans-6c" x="1287.992188"/>
     <use xlink:href="#DejaVuSans-65" x="1315.775391"/>
     <use xlink:href="#DejaVuSans-64" x="1377.298828"/>
    </g>
   </g>
   <g id="legend_1">
    <g id="patch_9">
     <path d="M 349.851562 251.32 
L 446.6 251.32 
Q 448.6 251.32 448.6 249.32 
L 448.6 220.96375 
Q 448.6 218.96375 446.6 218.96375 
L 349.851562 218.96375 
Q 347.851562 218.96375 347.851562 220.96375 
L 347.851562 249.32 
Q 347.851562 251.32 349.851562 251.32 
z
" style="fill: #ffffff; opacity: 0.8; stroke: #cccccc; stroke-linejoin: miter"/>
    </g>
    <g id="patch_10">
     <path d="M 351.851562 230.562187 
L 371.851562 230.562187 
L 371.851562 223.562187 
L 351.851562 223.562187 
z
" style="fill: #3274a1; opacity: 0.6; stroke: #3f3f3f; stroke-width: 1.25; stroke-linejoin: miter"/>
    </g>
    <g id="text_15">
     <!-- convpaint -->
     <g transform="translate(379.851562 230.562187) scale(0.1 -0.1)">
      <defs>
       <path id="DejaVuSans-6f" d="M 1959 3097 
Q 1497 3097 1228 2736 
Q 959 2375 959 1747 
Q 959 1119 1226 758 
Q 1494 397 1959 397 
Q 2419 397 2687 759 
Q 2956 1122 2956 1747 
Q 2956 2369 2687 2733 
Q 2419 3097 1959 3097 
z
M 1959 3584 
Q 2709 3584 3137 3096 
Q 3566 2609 3566 1747 
Q 3566 888 3137 398 
Q 2709 -91 1959 -91 
Q 1206 -91 779 398 
Q 353 888 353 1747 
Q 353 2609 779 3096 
Q 1206 3584 1959 3584 
z
" transform="scale(0.015625)"/>
       <path id="DejaVuSans-69" d="M 603 3500 
L 1178 3500 
L 1178 0 
L 603 0 
L 603 3500 
z
M 603 4863 
L 1178 4863 
L 1178 4134 
L 603 4134 
L 603 4863 
z
" transform="scale(0.015625)"/>
      </defs>
      <use xlink:href="#DejaVuSans-63"/>
      <use xlink:href="#DejaVuSans-6f" x="54.980469"/>
      <use xlink:href="#DejaVuSans-6e" x="116.162109"/>
      <use xlink:href="#DejaVuSans-76" x="179.541016"/>
      <use xlink:href="#DejaVuSans-70" x="238.720703"/>
      <use xlink:href="#DejaVuSans-61" x="302.197266"/>
      <use xlink:href="#DejaVuSans-69" x="363.476562"/>
      <use xlink:href="#DejaVuSans-6e" x="391.259766"/>
      <use xlink:href="#DejaVuSans-74" x="454.638672"/>
     </g>
    </g>
    <g id="patch_11">
     <path d="M 351.851562 245.240313 
L 371.851562 245.240313 
L 371.851562 238.240313 
L 351.851562 238.240313 
z
" style="fill: #e1812c; opacity: 0.6; stroke: #3f3f3f; stroke-width: 1.25; stroke-linejoin: miter"/>
    </g>
    <g id="text_16">
     <!-- classic filters -->
     <g transform="translate(379.851562 245.240313) scale(0.1 -0.1)">
      <defs>
       <path id="DejaVuSans-66" d="M 2375 4863 
L 2375 4384 
L 1825 4384 
Q 1516 4384 1395 4259 
Q 1275 4134 1275 3809 
L 1275 3500 
L 2222 3500 
L 2222 3053 
L 1275 3053 
L 1275 0 
L 697 0 
L 697 3053 
L 147 3053 
L 147 3500 
L 697 3500 
L 697 3744 
Q 697 4328 969 4595 
Q 1241 4863 1831 4863 
L 2375 4863 
z
" transform="scale(0.015625)"/>
      </defs>
      <use xlink:href="#DejaVuSans-63"/>
      <use xlink:href="#DejaVuSans-6c" x="54.980469"/>
      <use xlink:href="#DejaVuSans-61" x="82.763672"/>
      <use xlink:href="#DejaVuSans-73" x="144.042969"/>
      <use xlink:href="#DejaVuSans-73" x="196.142578"/>
      <use xlink:href="#DejaVuSans-69" x="248.242188"/>
      <use xlink:href="#DejaVuSans-63" x="276.025391"/>
      <use xlink:href="#DejaVuSans-20" x="331.005859"/>
      <use xlink:href="#DejaVuSans-66" x="362.792969"/>
      <use xlink:href="#DejaVuSans-69" x="397.998047"/>
      <use xlink:href="#DejaVuSans-6c" x="425.78125"/>
      <use xlink:href="#DejaVuSans-74" x="453.564453"/>
      <use xlink:href="#DejaVuSans-65" x="492.773438"/>
      <use xlink:href="#DejaVuSans-72" x="554.296875"/>
      <use xlink:href="#DejaVuSans-73" x="595.410156"/>
     </g>
    </g>
   </g>
  </g>
 </g>
 <defs>
  <clipPath id="p7244867bbd">
   <rect x="63" y="34.56" width="390.6" height="221.76"/>
  </clipPath>
 </defs>
</svg>
