<?xml version="1.0" encoding="utf-8" standalone="no"?>
<!DOCTYPE svg PUBLIC "-//W3C//DTD SVG 1.1//EN"
  "http://www.w3.org/Graphics/SVG/1.1/DTD/svg11.dtd">
<svg xmlns:xlink="http://www.w3.org/1999/xlink" width="504pt" height="288pt" viewBox="0 0 504 288" xmlns="http://www.w3.org/2000/svg" version="1.1">
 <metadata>
  <rdf:RDF xmlns:dc="http://purl.org/dc/elements/1.1/" xmlns:cc="http://creativecommons.org/ns#" xmlns:rdf="http://www.w3.org/1999/02/22-rdf-syntax-ns#">
   <cc:Work>
    <dc:type rdf:resource="http://purl.org/dc/dcmitype/StillImage"/>
    <dc:date>2024-03-11T15:12:56.541204</dc:date>
    <dc:format>image/svg+xml</dc:format>
    <dc:creator>
     <cc:Agent>
      <dc:title>Matplotlib v3.8.2, https://matplotlib.org/</dc:title>
     </cc:Agent>
    </dc:creator>
   </cc:Work>
  </rdf:RDF>
 </metadata>
 <defs>
  <style type="text/css">*{stroke-linejoin: round; stroke-linecap: butt}</style>
 </defs>
 <g id="figure_1">
  <g id="patch_1">
   <path d="M 0 288 
L 504 288 
L 504 0 
L 0 0 
z
" style="fill: #ffffff"/>
  </g>
  <g id="axes_1">
   <g id="patch_2">
    <path d="M 63 256.32 
L 453.6 256.32 
L 453.6 34.56 
L 63 34.56 
z
" style="fill: #ffffff"/>
   </g>
   <g id="PolyCollection_1">
    <defs>
     <path id="m8eed268261" d="M 92.186765 -42.81553 
L 92.103218 -42.81553 
L 92.069474 -44.841232 
L 92.026264 -46.866934 
L 91.972642 -48.892636 
L 91.908196 -50.918337 
L 91.833228 -52.944039 
L 91.748879 -54.969741 
L 91.657143 -56.995442 
L 91.560741 -59.021144 
L 91.462846 -61.046846 
L 91.366669 -63.072548 
L 91.274956 -65.098249 
L 91.189478 -67.123951 
L 91.110625 -69.149653 
L 91.037177 -71.175354 
L 90.966367 -73.201056 
L 90.894248 -75.226758 
L 90.816361 -77.25246 
L 90.72861 -79.278161 
L 90.628225 -81.303863 
L 90.514618 -83.329565 
L 90.389989 -85.355266 
L 90.25952 -87.380968 
L 90.131084 -89.40667 
L 90.014477 -91.432372 
L 89.920264 -93.458073 
L 89.858404 -95.483775 
L 89.836874 -97.509477 
L 89.860514 -99.535178 
L 89.930271 -101.56088 
L 90.042978 -103.586582 
L 90.191674 -105.612284 
L 90.366417 -107.637985 
L 90.555427 -109.663687 
L 90.746393 -111.689389 
L 90.927726 -113.71509 
L 91.089592 -115.740792 
L 91.224605 -117.766494 
L 91.328112 -119.792195 
L 91.398101 -121.817897 
L 91.434776 -123.843599 
L 91.439919 -125.869301 
L 91.416165 -127.895002 
L 91.366301 -129.920704 
L 91.292703 -131.946406 
L 91.196971 -133.972107 
L 91.079807 -135.997809 
L 90.94111 -138.023511 
L 90.780254 -140.049213 
L 90.596479 -142.074914 
L 90.389319 -144.100616 
L 90.158993 -146.126318 
L 89.906708 -148.152019 
L 89.634829 -150.177721 
L 89.346903 -152.203423 
L 89.047524 -154.229125 
L 88.742048 -156.254826 
L 88.43618 -158.280528 
L 88.135445 -160.30623 
L 87.84459 -162.331931 
L 87.566981 -164.357633 
L 87.304062 -166.383335 
L 87.054948 -168.409037 
L 86.816241 -170.434738 
L 86.582108 -172.46044 
L 86.344657 -174.486142 
L 86.094588 -176.511843 
L 85.822085 -178.537545 
L 85.51788 -180.563247 
L 85.174405 -182.588949 
L 84.786954 -184.61465 
L 84.35474 -186.640352 
L 83.881781 -188.666054 
L 83.377482 -190.691755 
L 82.856844 -192.717457 
L 82.340191 -194.743159 
L 81.852366 -196.768861 
L 81.421362 -198.794562 
L 81.076454 -200.820264 
L 80.845919 -202.845966 
L 80.754545 -204.871667 
L 80.821184 -206.897369 
L 81.05662 -208.923071 
L 81.462062 -210.948773 
L 82.028473 -212.974474 
L 82.736919 -215.000176 
L 83.559916 -217.025878 
L 84.463687 -219.051579 
L 85.41104 -221.077281 
L 86.36451 -223.102983 
L 87.289391 -225.128685 
L 88.156248 -227.154386 
L 88.942679 -229.180088 
L 89.63415 -231.20579 
L 90.223929 -233.231491 
L 90.712256 -235.257193 
L 91.104958 -237.282895 
L 91.411808 -239.308597 
L 91.644854 -241.334298 
L 91.816929 -243.36 
L 92.186765 -243.36 
L 92.186765 -243.36 
L 92.186765 -241.334298 
L 92.186765 -239.308597 
L 92.186765 -237.282895 
L 92.186765 -235.257193 
L 92.186765 -233.231491 
L 92.186765 -231.20579 
L 92.186765 -229.180088 
L 92.186765 -227.154386 
L 92.186765 -225.128685 
L 92.186765 -223.102983 
L 92.186765 -221.077281 
L 92.186765 -219.051579 
L 92.186765 -217.025878 
L 92.186765 -215.000176 
L 92.186765 -212.974474 
L 92.186765 -210.948773 
L 92.186765 -208.923071 
L 92.186765 -206.897369 
L 92.186765 -204.871667 
L 92.186765 -202.845966 
L 92.186765 -200.820264 
L 92.186765 -198.794562 
L 92.186765 -196.768861 
L 92.186765 -194.743159 
L 92.186765 -192.717457 
L 92.186765 -190.691755 
L 92.186765 -188.666054 
L 92.186765 -186.640352 
L 92.186765 -184.61465 
L 92.186765 -182.588949 
L 92.186765 -180.563247 
L 92.186765 -178.537545 
L 92.186765 -176.511843 
L 92.186765 -174.486142 
L 92.186765 -172.46044 
L 92.186765 -170.434738 
L 92.186765 -168.409037 
L 92.186765 -166.383335 
L 92.186765 -164.357633 
L 92.186765 -162.331931 
L 92.186765 -160.30623 
L 92.186765 -158.280528 
L 92.186765 -156.254826 
L 92.186765 -154.229125 
L 92.186765 -152.203423 
L 92.186765 -150.177721 
L 92.186765 -148.152019 
L 92.186765 -146.126318 
L 92.186765 -144.100616 
L 92.186765 -142.074914 
L 92.186765 -140.049213 
L 92.186765 -138.023511 
L 92.186765 -135.997809 
L 92.186765 -133.972107 
L 92.186765 -131.946406 
L 92.186765 -129.920704 
L 92.186765 -127.895002 
L 92.186765 -125.869301 
L 92.186765 -123.843599 
L 92.186765 -121.817897 
L 92.186765 -119.792195 
L 92.186765 -117.766494 
L 92.186765 -115.740792 
L 92.186765 -113.71509 
L 92.186765 -111.689389 
L 92.186765 -109.663687 
L 92.186765 -107.637985 
L 92.186765 -105.612284 
L 92.186765 -103.586582 
L 92.186765 -101.56088 
L 92.186765 -99.535178 
L 92.186765 -97.509477 
L 92.186765 -95.483775 
L 92.186765 -93.458073 
L 92.186765 -91.432372 
L 92.186765 -89.40667 
L 92.186765 -87.380968 
L 92.186765 -85.355266 
L 92.186765 -83.329565 
L 92.186765 -81.303863 
L 92.186765 -79.278161 
L 92.186765 -77.25246 
L 92.186765 -75.226758 
L 92.186765 -73.201056 
L 92.186765 -71.175354 
L 92.186765 -69.149653 
L 92.186765 -67.123951 
L 92.186765 -65.098249 
L 92.186765 -63.072548 
L 92.186765 -61.046846 
L 92.186765 -59.021144 
L 92.186765 -56.995442 
L 92.186765 -54.969741 
L 92.186765 -52.944039 
L 92.186765 -50.918337 
L 92.186765 -48.892636 
L 92.186765 -46.866934 
L 92.186765 -44.841232 
L 92.186765 -42.81553 
z
" style="stroke: #3f3f3f; stroke-opacity: 0.6; stroke-width: 1.25"/>
    </defs>
    <g clip-path="url(#p8e6a27aac1)">
     <use xlink:href="#m8eed268261" x="0" y="288" style="fill: #3274a1; fill-opacity: 0.6; stroke: #3f3f3f; stroke-opacity: 0.6; stroke-width: 1.25"/>
    </g>
   </g>
   <g id="PolyCollection_2">
    <defs>
     <path id="me1eaaab291" d="M 92.244332 -41.76 
L 92.186765 -41.76 
L 92.186765 -43.681082 
L 92.186765 -45.602163 
L 92.186765 -47.523245 
L 92.186765 -49.444326 
L 92.186765 -51.365408 
L 92.186765 -53.28649 
L 92.186765 -55.207571 
L 92.186765 -57.128653 
L 92.186765 -59.049734 
L 92.186765 -60.970816 
L 92.186765 -62.891898 
L 92.186765 -64.812979 
L 92.186765 -66.734061 
L 92.186765 -68.655142 
L 92.186765 -70.576224 
L 92.186765 -72.497306 
L 92.186765 -74.418387 
L 92.186765 -76.339469 
L 92.186765 -78.260551 
L 92.186765 -80.181632 
L 92.186765 -82.102714 
L 92.186765 -84.023795 
L 92.186765 -85.944877 
L 92.186765 -87.865959 
L 92.186765 -89.78704 
L 92.186765 -91.708122 
L 92.186765 -93.629203 
L 92.186765 -95.550285 
L 92.186765 -97.471367 
L 92.186765 -99.392448 
L 92.186765 -101.31353 
L 92.186765 -103.234611 
L 92.186765 -105.155693 
L 92.186765 -107.076775 
L 92.186765 -108.997856 
L 92.186765 -110.918938 
L 92.186765 -112.840019 
L 92.186765 -114.761101 
L 92.186765 -116.682183 
L 92.186765 -118.603264 
L 92.186765 -120.524346 
L 92.186765 -122.445427 
L 92.186765 -124.366509 
L 92.186765 -126.287591 
L 92.186765 -128.208672 
L 92.186765 -130.129754 
L 92.186765 -132.050836 
L 92.186765 -133.971917 
L 92.186765 -135.892999 
L 92.186765 -137.81408 
L 92.186765 -139.735162 
L 92.186765 -141.656244 
L 92.186765 -143.577325 
L 92.186765 -145.498407 
L 92.186765 -147.419488 
L 92.186765 -149.34057 
L 92.186765 -151.261652 
L 92.186765 -153.182733 
L 92.186765 -155.103815 
L 92.186765 -157.024896 
L 92.186765 -158.945978 
L 92.186765 -160.86706 
L 92.186765 -162.788141 
L 92.186765 -164.709223 
L 92.186765 -166.630304 
L 92.186765 -168.551386 
L 92.186765 -170.472468 
L 92.186765 -172.393549 
L 92.186765 -174.314631 
L 92.186765 -176.235712 
L 92.186765 -178.156794 
L 92.186765 -180.077876 
L 92.186765 -181.998957 
L 92.186765 -183.920039 
L 92.186765 -185.84112 
L 92.186765 -187.762202 
L 92.186765 -189.683284 
L 92.186765 -191.604365 
L 92.186765 -193.525447 
L 92.186765 -195.446529 
L 92.186765 -197.36761 
L 92.186765 -199.288692 
L 92.186765 -201.209773 
L 92.186765 -203.130855 
L 92.186765 -205.051937 
L 92.186765 -206.973018 
L 92.186765 -208.8941 
L 92.186765 -210.815181 
L 92.186765 -212.736263 
L 92.186765 -214.657345 
L 92.186765 -216.578426 
L 92.186765 -218.499508 
L 92.186765 -220.420589 
L 92.186765 -222.341671 
L 92.186765 -224.262753 
L 92.186765 -226.183834 
L 92.186765 -228.104916 
L 92.186765 -230.025997 
L 92.186765 -231.947079 
L 92.499717 -231.947079 
L 92.499717 -231.947079 
L 92.635794 -230.025997 
L 92.815219 -228.104916 
L 93.045078 -226.183834 
L 93.331175 -224.262753 
L 93.677118 -222.341671 
L 94.083449 -220.420589 
L 94.546942 -218.499508 
L 95.060189 -216.578426 
L 95.611586 -214.657345 
L 96.185756 -212.736263 
L 96.764403 -210.815181 
L 97.327518 -208.8941 
L 97.854831 -206.973018 
L 98.327363 -205.051937 
L 98.728934 -203.130855 
L 99.04748 -201.209773 
L 99.276076 -199.288692 
L 99.413548 -197.36761 
L 99.464615 -195.446529 
L 99.439502 -193.525447 
L 99.353026 -191.604365 
L 99.223204 -189.683284 
L 99.069482 -187.762202 
L 98.910774 -185.84112 
L 98.763521 -183.920039 
L 98.64002 -181.998957 
L 98.547261 -180.077876 
L 98.486425 -178.156794 
L 98.453128 -176.235712 
L 98.438367 -174.314631 
L 98.430007 -172.393549 
L 98.414588 -170.472468 
L 98.379149 -168.551386 
L 98.312828 -166.630304 
L 98.208018 -164.709223 
L 98.060977 -162.788141 
L 97.871866 -160.86706 
L 97.644323 -158.945978 
L 97.384695 -157.024896 
L 97.101097 -155.103815 
L 96.80247 -153.182733 
L 96.497749 -151.261652 
L 96.195225 -149.34057 
L 95.902123 -147.419488 
L 95.624403 -145.498407 
L 95.366729 -143.577325 
L 95.132561 -141.656244 
L 94.924304 -139.735162 
L 94.743462 -137.81408 
L 94.590739 -135.892999 
L 94.466076 -133.971917 
L 94.368614 -132.050836 
L 94.29662 -130.129754 
L 94.247418 -128.208672 
L 94.21739 -126.287591 
L 94.202096 -124.366509 
L 94.196538 -122.445427 
L 94.195573 -120.524346 
L 94.194406 -118.603264 
L 94.189108 -116.682183 
L 94.17705 -114.761101 
L 94.157173 -112.840019 
L 94.130034 -110.918938 
L 94.097608 -108.997856 
L 94.062875 -107.076775 
L 94.029253 -105.155693 
L 93.999973 -103.234611 
L 93.977485 -101.31353 
L 93.962994 -99.392448 
L 93.956186 -97.471367 
L 93.955189 -95.550285 
L 93.956772 -93.629203 
L 93.956765 -91.708122 
L 93.950627 -89.78704 
L 93.934089 -87.865959 
L 93.903763 -85.944877 
L 93.857611 -84.023795 
L 93.795207 -82.102714 
L 93.717736 -80.181632 
L 93.627733 -78.260551 
L 93.528634 -76.339469 
L 93.424223 -74.418387 
L 93.318091 -72.497306 
L 93.21321 -70.576224 
L 93.111699 -68.655142 
L 93.014788 -66.734061 
L 92.922966 -64.812979 
L 92.836234 -62.891898 
L 92.754401 -60.970816 
L 92.677327 -59.049734 
L 92.605072 -57.128653 
L 92.537939 -55.207571 
L 92.476412 -53.28649 
L 92.421034 -51.365408 
L 92.372265 -49.444326 
L 92.330366 -47.523245 
L 92.295321 -45.602163 
L 92.266828 -43.681082 
L 92.244332 -41.76 
z
" style="stroke: #3f3f3f; stroke-opacity: 0.6; stroke-width: 1.25"/>
    </defs>
    <g clip-path="url(#p8e6a27aac1)">
     <use xlink:href="#me1eaaab291" x="0" y="288" style="fill: #e1812c; fill-opacity: 0.6; stroke: #3f3f3f; stroke-opacity: 0.6; stroke-width: 1.25"/>
    </g>
   </g>
   <g id="PolyCollection_3">
    <defs>
     <path id="m18fb4c4330" d="M 170.291012 -99.80783 
L 170.121725 -99.80783 
L 170.054042 -101.184636 
L 169.966292 -102.561441 
L 169.855393 -103.938246 
L 169.718834 -105.315052 
L 169.555098 -106.691857 
L 169.364077 -108.068663 
L 169.147456 -109.445468 
L 168.908959 -110.822273 
L 168.654431 -112.199079 
L 168.391676 -113.575884 
L 168.130046 -114.952689 
L 167.879775 -116.329495 
L 167.651134 -117.7063 
L 167.453476 -119.083105 
L 167.294301 -120.459911 
L 167.178464 -121.836716 
L 167.107636 -123.213522 
L 167.080102 -124.590327 
L 167.090929 -125.967132 
L 167.132473 -127.343938 
L 167.195159 -128.720743 
L 167.268413 -130.097548 
L 167.341604 -131.474354 
L 167.404889 -132.851159 
L 167.449853 -134.227964 
L 167.469883 -135.60477 
L 167.460294 -136.981575 
L 167.418238 -138.358381 
L 167.342475 -139.735186 
L 167.233098 -141.111991 
L 167.091293 -142.488797 
L 166.919182 -143.865602 
L 166.719772 -145.242407 
L 166.496992 -146.619213 
L 166.255769 -147.996018 
L 166.002083 -149.372823 
L 165.742932 -150.749629 
L 165.486172 -152.126434 
L 165.240203 -153.50324 
L 165.013519 -154.880045 
L 164.814154 -156.25685 
L 164.649094 -157.633656 
L 164.523734 -159.010461 
L 164.441435 -160.387266 
L 164.403263 -161.764072 
L 164.407925 -163.140877 
L 164.451915 -164.517682 
L 164.529839 -165.894488 
L 164.634864 -167.271293 
L 164.75922 -168.648098 
L 164.894681 -170.024904 
L 165.032949 -171.401709 
L 165.165909 -172.778515 
L 165.285713 -174.15532 
L 165.38472 -175.532125 
L 165.455332 -176.908931 
L 165.489784 -178.285736 
L 165.47998 -179.662541 
L 165.417458 -181.039347 
L 165.29356 -182.416152 
L 165.099857 -183.792957 
L 164.828838 -185.169763 
L 164.474833 -186.546568 
L 164.035055 -187.923374 
L 163.510655 -189.300179 
L 162.907592 -190.676984 
L 162.237173 -192.05379 
L 161.5161 -193.430595 
L 160.765957 -194.8074 
L 160.012132 -196.184206 
L 159.282266 -197.561011 
L 158.604411 -198.937816 
L 158.005132 -200.314622 
L 157.507796 -201.691427 
L 157.13126 -203.068233 
L 156.889103 -204.445038 
L 156.789415 -205.821843 
L 156.835086 -207.198649 
L 157.024419 -208.575454 
L 157.351885 -209.952259 
L 157.808821 -211.329065 
L 158.383946 -212.70587 
L 159.063661 -214.082675 
L 159.832171 -215.459481 
L 160.671562 -216.836286 
L 161.561977 -218.213092 
L 162.482006 -219.589897 
L 163.409389 -220.966702 
L 164.321978 -222.343508 
L 165.198904 -223.720313 
L 166.021759 -225.097118 
L 166.775651 -226.473924 
L 167.449948 -227.850729 
L 168.038634 -229.227534 
L 168.540224 -230.60434 
L 168.957284 -231.981145 
L 169.295665 -233.357951 
L 169.56355 -234.734756 
L 169.770479 -236.111561 
L 170.291012 -236.111561 
L 170.291012 -236.111561 
L 170.291012 -234.734756 
L 170.291012 -233.357951 
L 170.291012 -231.981145 
L 170.291012 -230.60434 
L 170.291012 -229.227534 
L 170.291012 -227.850729 
L 170.291012 -226.473924 
L 170.291012 -225.097118 
L 170.291012 -223.720313 
L 170.291012 -222.343508 
L 170.291012 -220.966702 
L 170.291012 -219.589897 
L 170.291012 -218.213092 
L 170.291012 -216.836286 
L 170.291012 -215.459481 
L 170.291012 -214.082675 
L 170.291012 -212.70587 
L 170.291012 -211.329065 
L 170.291012 -209.952259 
L 170.291012 -208.575454 
L 170.291012 -207.198649 
L 170.291012 -205.821843 
L 170.291012 -204.445038 
L 170.291012 -203.068233 
L 170.291012 -201.691427 
L 170.291012 -200.314622 
L 170.291012 -198.937816 
L 170.291012 -197.561011 
L 170.291012 -196.184206 
L 170.291012 -194.8074 
L 170.291012 -193.430595 
L 170.291012 -192.05379 
L 170.291012 -190.676984 
L 170.291012 -189.300179 
L 170.291012 -187.923374 
L 170.291012 -186.546568 
L 170.291012 -185.169763 
L 170.291012 -183.792957 
L 170.291012 -182.416152 
L 170.291012 -181.039347 
L 170.291012 -179.662541 
L 170.291012 -178.285736 
L 170.291012 -176.908931 
L 170.291012 -175.532125 
L 170.291012 -174.15532 
L 170.291012 -172.778515 
L 170.291012 -171.401709 
L 170.291012 -170.024904 
L 170.291012 -168.648098 
L 170.291012 -167.271293 
L 170.291012 -165.894488 
L 170.291012 -164.517682 
L 170.291012 -163.140877 
L 170.291012 -161.764072 
L 170.291012 -160.387266 
L 170.291012 -159.010461 
L 170.291012 -157.633656 
L 170.291012 -156.25685 
L 170.291012 -154.880045 
L 170.291012 -153.50324 
L 170.291012 -152.126434 
L 170.291012 -150.749629 
L 170.291012 -149.372823 
L 170.291012 -147.996018 
L 170.291012 -146.619213 
L 170.291012 -145.242407 
L 170.291012 -143.865602 
L 170.291012 -142.488797 
L 170.291012 -141.111991 
L 170.291012 -139.735186 
L 170.291012 -138.358381 
L 170.291012 -136.981575 
L 170.291012 -135.60477 
L 170.291012 -134.227964 
L 170.291012 -132.851159 
L 170.291012 -131.474354 
L 170.291012 -130.097548 
L 170.291012 -128.720743 
L 170.291012 -127.343938 
L 170.291012 -125.967132 
L 170.291012 -124.590327 
L 170.291012 -123.213522 
L 170.291012 -121.836716 
L 170.291012 -120.459911 
L 170.291012 -119.083105 
L 170.291012 -117.7063 
L 170.291012 -116.329495 
L 170.291012 -114.952689 
L 170.291012 -113.575884 
L 170.291012 -112.199079 
L 170.291012 -110.822273 
L 170.291012 -109.445468 
L 170.291012 -108.068663 
L 170.291012 -106.691857 
L 170.291012 -105.315052 
L 170.291012 -103.938246 
L 170.291012 -102.561441 
L 170.291012 -101.184636 
L 170.291012 -99.80783 
z
" style="stroke: #3f3f3f; stroke-opacity: 0.6; stroke-width: 1.25"/>
    </defs>
    <g clip-path="url(#p8e6a27aac1)">
     <use xlink:href="#m18fb4c4330" x="0" y="288" style="fill: #3274a1; fill-opacity: 0.6; stroke: #3f3f3f; stroke-opacity: 0.6; stroke-width: 1.25"/>
    </g>
   </g>
   <g id="PolyCollection_4">
    <defs>
     <path id="m999ddca1c6" d="M 170.409976 -94.734038 
L 170.291012 -94.734038 
L 170.291012 -96.140059 
L 170.291012 -97.54608 
L 170.291012 -98.952102 
L 170.291012 -100.358123 
L 170.291012 -101.764144 
L 170.291012 -103.170165 
L 170.291012 -104.576186 
L 170.291012 -105.982208 
L 170.291012 -107.388229 
L 170.291012 -108.79425 
L 170.291012 -110.200271 
L 170.291012 -111.606292 
L 170.291012 -113.012314 
L 170.291012 -114.418335 
L 170.291012 -115.824356 
L 170.291012 -117.230377 
L 170.291012 -118.636399 
L 170.291012 -120.04242 
L 170.291012 -121.448441 
L 170.291012 -122.854462 
L 170.291012 -124.260483 
L 170.291012 -125.666505 
L 170.291012 -127.072526 
L 170.291012 -128.478547 
L 170.291012 -129.884568 
L 170.291012 -131.29059 
L 170.291012 -132.696611 
L 170.291012 -134.102632 
L 170.291012 -135.508653 
L 170.291012 -136.914674 
L 170.291012 -138.320696 
L 170.291012 -139.726717 
L 170.291012 -141.132738 
L 170.291012 -142.538759 
L 170.291012 -143.94478 
L 170.291012 -145.350802 
L 170.291012 -146.756823 
L 170.291012 -148.162844 
L 170.291012 -149.568865 
L 170.291012 -150.974887 
L 170.291012 -152.380908 
L 170.291012 -153.786929 
L 170.291012 -155.19295 
L 170.291012 -156.598971 
L 170.291012 -158.004993 
L 170.291012 -159.411014 
L 170.291012 -160.817035 
L 170.291012 -162.223056 
L 170.291012 -163.629077 
L 170.291012 -165.035099 
L 170.291012 -166.44112 
L 170.291012 -167.847141 
L 170.291012 -169.253162 
L 170.291012 -170.659184 
L 170.291012 -172.065205 
L 170.291012 -173.471226 
L 170.291012 -174.877247 
L 170.291012 -176.283268 
L 170.291012 -177.68929 
L 170.291012 -179.095311 
L 170.291012 -180.501332 
L 170.291012 -181.907353 
L 170.291012 -183.313374 
L 170.291012 -184.719396 
L 170.291012 -186.125417 
L 170.291012 -187.531438 
L 170.291012 -188.937459 
L 170.291012 -190.343481 
L 170.291012 -191.749502 
L 170.291012 -193.155523 
L 170.291012 -194.561544 
L 170.291012 -195.967565 
L 170.291012 -197.373587 
L 170.291012 -198.779608 
L 170.291012 -200.185629 
L 170.291012 -201.59165 
L 170.291012 -202.997672 
L 170.291012 -204.403693 
L 170.291012 -205.809714 
L 170.291012 -207.215735 
L 170.291012 -208.621756 
L 170.291012 -210.027778 
L 170.291012 -211.433799 
L 170.291012 -212.83982 
L 170.291012 -214.245841 
L 170.291012 -215.651862 
L 170.291012 -217.057884 
L 170.291012 -218.463905 
L 170.291012 -219.869926 
L 170.291012 -221.275947 
L 170.291012 -222.681969 
L 170.291012 -224.08799 
L 170.291012 -225.494011 
L 170.291012 -226.900032 
L 170.291012 -228.306053 
L 170.291012 -229.712075 
L 170.291012 -231.118096 
L 170.291012 -232.524117 
L 170.291012 -233.930138 
L 170.456828 -233.930138 
L 170.456828 -233.930138 
L 170.5306 -232.524117 
L 170.629809 -231.118096 
L 170.760073 -229.712075 
L 170.927111 -228.306053 
L 171.136345 -226.900032 
L 171.392433 -225.494011 
L 171.698779 -224.08799 
L 172.057063 -222.681969 
L 172.466858 -221.275947 
L 172.925393 -219.869926 
L 173.427502 -218.463905 
L 173.965779 -217.057884 
L 174.530929 -215.651862 
L 175.112289 -214.245841 
L 175.698424 -212.83982 
L 176.277734 -211.433799 
L 176.838962 -210.027778 
L 177.371534 -208.621756 
L 177.865697 -207.215735 
L 178.312461 -205.809714 
L 178.703426 -204.403693 
L 179.030605 -202.997672 
L 179.2864 -201.59165 
L 179.463843 -200.185629 
L 179.557184 -198.779608 
L 179.562813 -197.373587 
L 179.480374 -195.967565 
L 179.313873 -194.561544 
L 179.072506 -193.155523 
L 178.770933 -191.749502 
L 178.428805 -190.343481 
L 178.069477 -188.937459 
L 177.717991 -187.531438 
L 177.398559 -186.125417 
L 177.131915 -184.719396 
L 176.932918 -183.313374 
L 176.808801 -181.907353 
L 176.758348 -180.501332 
L 176.772121 -179.095311 
L 176.833724 -177.68929 
L 176.921904 -176.283268 
L 177.01317 -174.877247 
L 177.084558 -173.471226 
L 177.116163 -172.065205 
L 177.093102 -170.659184 
L 177.006718 -169.253162 
L 176.854927 -167.847141 
L 176.641756 -166.44112 
L 176.376255 -165.035099 
L 176.070993 -163.629077 
L 175.740399 -162.223056 
L 175.399181 -160.817035 
L 175.061004 -159.411014 
L 174.737511 -158.004993 
L 174.437746 -156.598971 
L 174.167933 -155.19295 
L 173.931566 -153.786929 
L 173.729736 -152.380908 
L 173.561616 -150.974887 
L 173.425046 -149.568865 
L 173.317141 -148.162844 
L 173.234871 -146.756823 
L 173.175541 -145.350802 
L 173.137106 -143.94478 
L 173.118276 -142.538759 
L 173.118393 -141.132738 
L 173.137082 -139.726717 
L 173.173753 -138.320696 
L 173.227052 -136.914674 
L 173.294371 -135.508653 
L 173.371556 -134.102632 
L 173.452888 -132.696611 
L 173.531378 -131.29059 
L 173.599334 -129.884568 
L 173.649119 -128.478547 
L 173.673951 -127.072526 
L 173.668595 -125.666505 
L 173.629845 -124.260483 
L 173.556701 -122.854462 
L 173.450251 -121.448441 
L 173.313321 -120.04242 
L 173.149974 -118.636399 
L 172.964998 -117.230377 
L 172.76346 -115.824356 
L 172.550394 -114.418335 
L 172.330628 -113.012314 
L 172.10873 -111.606292 
L 171.889003 -110.200271 
L 171.675486 -108.79425 
L 171.471912 -107.388229 
L 171.281611 -105.982208 
L 171.107369 -104.576186 
L 170.951279 -103.170165 
L 170.814619 -101.764144 
L 170.697795 -100.358123 
L 170.600367 -98.952102 
L 170.521154 -97.54608 
L 170.458399 -96.140059 
L 170.409976 -94.734038 
z
" style="stroke: #3f3f3f; stroke-opacity: 0.6; stroke-width: 1.25"/>
    </defs>
    <g clip-path="url(#p8e6a27aac1)">
     <use xlink:href="#m999ddca1c6" x="0" y="288" style="fill: #e1812c; fill-opacity: 0.6; stroke: #3f3f3f; stroke-opacity: 0.6; stroke-width: 1.25"/>
    </g>
   </g>
   <g id="PolyCollection_5">
    <defs>
     <path id="mb23934b890" d="M 248.39526 -118.04513 
L 248.255368 -118.04513 
L 248.189686 -119.182261 
L 248.105332 -120.319393 
L 248.00283 -121.456525 
L 247.885481 -122.593656 
L 247.759708 -123.730788 
L 247.634811 -124.86792 
L 247.522008 -126.005051 
L 247.432843 -127.142183 
L 247.377258 -128.279315 
L 247.361756 -129.416446 
L 247.388111 -130.553578 
L 247.452973 -131.69071 
L 247.548441 -132.827841 
L 247.66345 -133.964973 
L 247.785569 -135.102105 
L 247.902755 -136.239236 
L 248.004676 -137.376368 
L 248.083425 -138.5135 
L 248.133638 -139.650631 
L 248.152243 -140.787763 
L 248.138129 -141.924895 
L 248.091958 -143.062026 
L 248.016232 -144.199158 
L 247.915508 -145.33629 
L 247.796533 -146.473421 
L 247.667998 -147.610553 
L 247.539672 -148.747685 
L 247.420884 -149.884816 
L 247.318566 -151.021948 
L 247.235306 -152.15908 
L 247.167992 -153.296211 
L 247.10756 -154.433343 
L 247.040145 -155.570475 
L 246.949526 -156.707606 
L 246.820398 -157.844738 
L 246.641714 -158.98187 
L 246.40924 -160.119001 
L 246.12664 -161.256133 
L 245.804749 -162.393265 
L 245.45912 -163.530396 
L 245.106368 -164.667528 
L 244.760093 -165.80466 
L 244.427269 -166.941791 
L 244.105889 -168.078923 
L 243.784422 -169.216055 
L 243.443344 -170.353187 
L 243.058663 -171.490318 
L 242.607014 -172.62745 
L 242.071543 -173.764582 
L 241.447505 -174.901713 
L 240.746339 -176.038845 
L 239.99706 -177.175977 
L 239.244206 -178.313108 
L 238.542254 -179.45024 
L 237.947285 -180.587372 
L 237.507364 -181.724503 
L 237.253596 -182.861635 
L 237.193696 -183.998767 
L 237.309421 -185.135898 
L 237.558328 -186.27303 
L 237.879425 -187.410162 
L 238.201549 -188.547293 
L 238.452916 -189.684425 
L 238.570353 -190.821557 
L 238.506959 -191.958688 
L 238.237419 -193.09582 
L 237.760554 -194.232952 
L 237.09894 -195.370083 
L 236.295608 -196.507215 
L 235.408006 -197.644347 
L 234.499722 -198.781478 
L 233.630976 -199.91861 
L 232.849481 -201.055742 
L 232.183643 -202.192873 
L 231.640033 -203.330005 
L 231.206238 -204.467137 
L 230.858904 -205.604268 
L 230.57511 -206.7414 
L 230.344045 -207.878532 
L 230.175469 -209.015663 
L 230.102237 -210.152795 
L 230.175748 -211.289927 
L 230.455272 -212.427058 
L 230.993894 -213.56419 
L 231.824754 -214.701322 
L 232.951087 -215.838453 
L 234.342447 -216.975585 
L 235.937776 -218.112717 
L 237.654242 -219.249848 
L 239.399552 -220.38698 
L 241.084866 -221.524112 
L 242.635724 -222.661244 
L 243.999208 -223.798375 
L 245.146646 -224.935507 
L 246.072226 -226.072639 
L 246.788616 -227.20977 
L 247.321045 -228.346902 
L 247.701224 -229.484034 
L 247.962133 -230.621165 
L 248.39526 -230.621165 
L 248.39526 -230.621165 
L 248.39526 -229.484034 
L 248.39526 -228.346902 
L 248.39526 -227.20977 
L 248.39526 -226.072639 
L 248.39526 -224.935507 
L 248.39526 -223.798375 
L 248.39526 -222.661244 
L 248.39526 -221.524112 
L 248.39526 -220.38698 
L 248.39526 -219.249848 
L 248.39526 -218.112717 
L 248.39526 -216.975585 
L 248.39526 -215.838453 
L 248.39526 -214.701322 
L 248.39526 -213.56419 
L 248.39526 -212.427058 
L 248.39526 -211.289927 
L 248.39526 -210.152795 
L 248.39526 -209.015663 
L 248.39526 -207.878532 
L 248.39526 -206.7414 
L 248.39526 -205.604268 
L 248.39526 -204.467137 
L 248.39526 -203.330005 
L 248.39526 -202.192873 
L 248.39526 -201.055742 
L 248.39526 -199.91861 
L 248.39526 -198.781478 
L 248.39526 -197.644347 
L 248.39526 -196.507215 
L 248.39526 -195.370083 
L 248.39526 -194.232952 
L 248.39526 -193.09582 
L 248.39526 -191.958688 
L 248.39526 -190.821557 
L 248.39526 -189.684425 
L 248.39526 -188.547293 
L 248.39526 -187.410162 
L 248.39526 -186.27303 
L 248.39526 -185.135898 
L 248.39526 -183.998767 
L 248.39526 -182.861635 
L 248.39526 -181.724503 
L 248.39526 -180.587372 
L 248.39526 -179.45024 
L 248.39526 -178.313108 
L 248.39526 -177.175977 
L 248.39526 -176.038845 
L 248.39526 -174.901713 
L 248.39526 -173.764582 
L 248.39526 -172.62745 
L 248.39526 -171.490318 
L 248.39526 -170.353187 
L 248.39526 -169.216055 
L 248.39526 -168.078923 
L 248.39526 -166.941791 
L 248.39526 -165.80466 
L 248.39526 -164.667528 
L 248.39526 -163.530396 
L 248.39526 -162.393265 
L 248.39526 -161.256133 
L 248.39526 -160.119001 
L 248.39526 -158.98187 
L 248.39526 -157.844738 
L 248.39526 -156.707606 
L 248.39526 -155.570475 
L 248.39526 -154.433343 
L 248.39526 -153.296211 
L 248.39526 -152.15908 
L 248.39526 -151.021948 
L 248.39526 -149.884816 
L 248.39526 -148.747685 
L 248.39526 -147.610553 
L 248.39526 -146.473421 
L 248.39526 -145.33629 
L 248.39526 -144.199158 
L 248.39526 -143.062026 
L 248.39526 -141.924895 
L 248.39526 -140.787763 
L 248.39526 -139.650631 
L 248.39526 -138.5135 
L 248.39526 -137.376368 
L 248.39526 -136.239236 
L 248.39526 -135.102105 
L 248.39526 -133.964973 
L 248.39526 -132.827841 
L 248.39526 -131.69071 
L 248.39526 -130.553578 
L 248.39526 -129.416446 
L 248.39526 -128.279315 
L 248.39526 -127.142183 
L 248.39526 -126.005051 
L 248.39526 -124.86792 
L 248.39526 -123.730788 
L 248.39526 -122.593656 
L 248.39526 -121.456525 
L 248.39526 -120.319393 
L 248.39526 -119.182261 
L 248.39526 -118.04513 
z
" style="stroke: #3f3f3f; stroke-opacity: 0.6; stroke-width: 1.25"/>
    </defs>
    <g clip-path="url(#p8e6a27aac1)">
     <use xlink:href="#mb23934b890" x="0" y="288" style="fill: #3274a1; fill-opacity: 0.6; stroke: #3f3f3f; stroke-opacity: 0.6; stroke-width: 1.25"/>
    </g>
   </g>
   <g id="PolyCollection_6">
    <defs>
     <path id="m3117709502" d="M 248.51418 -127.198916 
L 248.39526 -127.198916 
L 248.39526 -128.259629 
L 248.39526 -129.320341 
L 248.39526 -130.381053 
L 248.39526 -131.441765 
L 248.39526 -132.502478 
L 248.39526 -133.56319 
L 248.39526 -134.623902 
L 248.39526 -135.684614 
L 248.39526 -136.745327 
L 248.39526 -137.806039 
L 248.39526 -138.866751 
L 248.39526 -139.927463 
L 248.39526 -140.988176 
L 248.39526 -142.048888 
L 248.39526 -143.1096 
L 248.39526 -144.170312 
L 248.39526 -145.231025 
L 248.39526 -146.291737 
L 248.39526 -147.352449 
L 248.39526 -148.413161 
L 248.39526 -149.473874 
L 248.39526 -150.534586 
L 248.39526 -151.595298 
L 248.39526 -152.65601 
L 248.39526 -153.716723 
L 248.39526 -154.777435 
L 248.39526 -155.838147 
L 248.39526 -156.898859 
L 248.39526 -157.959572 
L 248.39526 -159.020284 
L 248.39526 -160.080996 
L 248.39526 -161.141708 
L 248.39526 -162.20242 
L 248.39526 -163.263133 
L 248.39526 -164.323845 
L 248.39526 -165.384557 
L 248.39526 -166.445269 
L 248.39526 -167.505982 
L 248.39526 -168.566694 
L 248.39526 -169.627406 
L 248.39526 -170.688118 
L 248.39526 -171.748831 
L 248.39526 -172.809543 
L 248.39526 -173.870255 
L 248.39526 -174.930967 
L 248.39526 -175.99168 
L 248.39526 -177.052392 
L 248.39526 -178.113104 
L 248.39526 -179.173816 
L 248.39526 -180.234529 
L 248.39526 -181.295241 
L 248.39526 -182.355953 
L 248.39526 -183.416665 
L 248.39526 -184.477378 
L 248.39526 -185.53809 
L 248.39526 -186.598802 
L 248.39526 -187.659514 
L 248.39526 -188.720227 
L 248.39526 -189.780939 
L 248.39526 -190.841651 
L 248.39526 -191.902363 
L 248.39526 -192.963076 
L 248.39526 -194.023788 
L 248.39526 -195.0845 
L 248.39526 -196.145212 
L 248.39526 -197.205925 
L 248.39526 -198.266637 
L 248.39526 -199.327349 
L 248.39526 -200.388061 
L 248.39526 -201.448774 
L 248.39526 -202.509486 
L 248.39526 -203.570198 
L 248.39526 -204.63091 
L 248.39526 -205.691623 
L 248.39526 -206.752335 
L 248.39526 -207.813047 
L 248.39526 -208.873759 
L 248.39526 -209.934472 
L 248.39526 -210.995184 
L 248.39526 -212.055896 
L 248.39526 -213.116608 
L 248.39526 -214.177321 
L 248.39526 -215.238033 
L 248.39526 -216.298745 
L 248.39526 -217.359457 
L 248.39526 -218.42017 
L 248.39526 -219.480882 
L 248.39526 -220.541594 
L 248.39526 -221.602306 
L 248.39526 -222.663019 
L 248.39526 -223.723731 
L 248.39526 -224.784443 
L 248.39526 -225.845155 
L 248.39526 -226.905868 
L 248.39526 -227.96658 
L 248.39526 -229.027292 
L 248.39526 -230.088004 
L 248.39526 -231.148717 
L 248.39526 -232.209429 
L 248.581323 -232.209429 
L 248.581323 -232.209429 
L 248.676475 -231.148717 
L 248.809713 -230.088004 
L 248.991161 -229.027292 
L 249.231491 -227.96658 
L 249.541072 -226.905868 
L 249.928832 -225.845155 
L 250.40093 -224.784443 
L 250.959373 -223.723731 
L 251.600779 -222.663019 
L 252.315574 -221.602306 
L 253.087852 -220.541594 
L 253.896123 -219.480882 
L 254.715041 -218.42017 
L 255.518 -217.359457 
L 256.280308 -216.298745 
L 256.982445 -215.238033 
L 257.612763 -214.177321 
L 258.169047 -213.116608 
L 258.658451 -212.055896 
L 259.09567 -210.995184 
L 259.49955 -209.934472 
L 259.888741 -208.873759 
L 260.277284 -207.813047 
L 260.671078 -206.752335 
L 261.066074 -205.691623 
L 261.448642 -204.63091 
L 261.798099 -203.570198 
L 262.090844 -202.509486 
L 262.305165 -201.448774 
L 262.425616 -200.388061 
L 262.445938 -199.327349 
L 262.369882 -198.266637 
L 262.209757 -197.205925 
L 261.98313 -196.145212 
L 261.708493 -195.0845 
L 261.40098 -194.023788 
L 261.069159 -192.963076 
L 260.713634 -191.902363 
L 260.327748 -190.841651 
L 259.900124 -189.780939 
L 259.4184 -188.720227 
L 258.87324 -187.659514 
L 258.261708 -186.598802 
L 257.589322 -185.53809 
L 256.870444 -184.477378 
L 256.12705 -183.416665 
L 255.386247 -182.355953 
L 254.677068 -181.295241 
L 254.027117 -180.234529 
L 253.459554 -179.173816 
L 252.99076 -178.113104 
L 252.628911 -177.052392 
L 252.373519 -175.99168 
L 252.215968 -174.930967 
L 252.140937 -173.870255 
L 252.128541 -172.809543 
L 252.156914 -171.748831 
L 252.204878 -170.688118 
L 252.254311 -169.627406 
L 252.291852 -168.566694 
L 252.309692 -167.505982 
L 252.305373 -166.445269 
L 252.280717 -165.384557 
L 252.24015 -164.323845 
L 252.188831 -163.263133 
L 252.130969 -162.20242 
L 252.068659 -161.141708 
L 252.001452 -160.080996 
L 251.926658 -159.020284 
L 251.840278 -157.959572 
L 251.738288 -156.898859 
L 251.617975 -155.838147 
L 251.478984 -154.777435 
L 251.323857 -153.716723 
L 251.157909 -152.65601 
L 250.988482 -151.595298 
L 250.823721 -150.534586 
L 250.671149 -149.473874 
L 250.536343 -148.413161 
L 250.421977 -147.352449 
L 250.327427 -146.291737 
L 250.248987 -145.231025 
L 250.180619 -144.170312 
L 250.115062 -143.1096 
L 250.045076 -142.048888 
L 249.964589 -140.988176 
L 249.86957 -139.927463 
L 249.758508 -138.866751 
L 249.632469 -137.806039 
L 249.494766 -136.745327 
L 249.350332 -135.684614 
L 249.204935 -134.623902 
L 249.064361 -133.56319 
L 248.933705 -132.502478 
L 248.816851 -131.441765 
L 248.716203 -130.381053 
L 248.632662 -129.320341 
L 248.5658 -128.259629 
L 248.51418 -127.198916 
z
" style="stroke: #3f3f3f; stroke-opacity: 0.6; stroke-width: 1.25"/>
    </defs>
    <g clip-path="url(#p8e6a27aac1)">
     <use xlink:href="#m3117709502" x="0" y="288" style="fill: #e1812c; fill-opacity: 0.6; stroke: #3f3f3f; stroke-opacity: 0.6; stroke-width: 1.25"/>
    </g>
   </g>
   <g id="PolyCollection_7">
    <defs>
     <path id="mbda80efac2" d="M 326.499508 -161.774028 
L 326.235085 -161.774028 
L 326.118974 -162.434862 
L 325.967771 -163.095696 
L 325.777867 -163.756531 
L 325.548037 -164.417365 
L 325.280306 -165.078199 
L 324.980534 -165.739033 
L 324.658505 -166.399867 
L 324.327406 -167.060702 
L 324.002629 -167.721536 
L 323.700059 -168.38237 
L 323.434055 -169.043204 
L 323.21554 -169.704038 
L 323.05054 -170.364872 
L 322.939525 -171.025707 
L 322.87771 -171.686541 
L 322.856262 -172.347375 
L 322.864185 -173.008209 
L 322.890477 -173.669043 
L 322.926087 -174.329878 
L 322.965281 -174.990712 
L 323.006125 -175.651546 
L 323.050001 -176.31238 
L 323.100272 -176.973214 
L 323.160351 -177.634049 
L 323.231566 -178.294883 
L 323.311187 -178.955717 
L 323.391036 -179.616551 
L 323.456933 -180.277385 
L 323.489202 -180.93822 
L 323.46426 -181.599054 
L 323.357192 -182.259888 
L 323.14503 -182.920722 
L 322.810321 -183.581556 
L 322.344439 -184.242391 
L 321.750108 -184.903225 
L 321.042625 -185.564059 
L 320.249466 -186.224893 
L 319.408205 -186.885727 
L 318.562954 -187.546562 
L 317.759802 -188.207396 
L 317.0419 -188.86823 
L 316.444867 -189.529064 
L 315.993113 -190.189898 
L 315.697445 -190.850732 
L 315.554074 -191.511567 
L 315.54491 -192.172401 
L 315.638909 -192.833235 
L 315.794195 -193.494069 
L 315.960767 -194.154903 
L 316.0837 -194.815738 
L 316.106826 -195.476572 
L 315.976903 -196.137406 
L 315.64813 -196.79824 
L 315.086765 -197.459074 
L 314.27534 -198.119909 
L 313.215886 -198.780743 
L 311.931522 -199.441577 
L 310.465879 -200.102411 
L 308.880103 -200.763245 
L 307.247544 -201.42408 
L 305.646648 -202.084914 
L 304.152927 -202.745748 
L 302.831122 -203.406582 
L 301.728729 -204.067416 
L 300.871847 -204.728251 
L 300.263976 -205.389085 
L 299.887861 -206.049919 
L 299.709962 -206.710753 
L 299.686708 -207.371587 
L 299.771433 -208.032421 
L 299.920879 -208.693256 
L 300.100353 -209.35409 
L 300.286992 -210.014924 
L 300.470989 -210.675758 
L 300.655034 -211.336592 
L 300.852458 -211.997427 
L 301.084665 -212.658261 
L 301.378369 -213.319095 
L 301.762945 -213.979929 
L 302.267996 -214.640763 
L 302.92105 -215.301598 
L 303.745206 -215.962432 
L 304.756647 -216.623266 
L 305.962087 -217.2841 
L 307.356459 -217.944934 
L 308.921344 -218.605769 
L 310.624672 -219.266603 
L 312.422097 -219.927437 
L 314.260163 -220.588271 
L 316.080947 -221.249105 
L 317.82755 -221.90994 
L 319.449525 -222.570774 
L 320.907378 -223.231608 
L 322.175415 -223.892442 
L 323.242635 -224.553276 
L 324.111698 -225.214111 
L 324.79642 -225.874945 
L 325.318388 -226.535779 
L 325.70338 -227.196613 
L 326.499508 -227.196613 
L 326.499508 -227.196613 
L 326.499508 -226.535779 
L 326.499508 -225.874945 
L 326.499508 -225.214111 
L 326.499508 -224.553276 
L 326.499508 -223.892442 
L 326.499508 -223.231608 
L 326.499508 -222.570774 
L 326.499508 -221.90994 
L 326.499508 -221.249105 
L 326.499508 -220.588271 
L 326.499508 -219.927437 
L 326.499508 -219.266603 
L 326.499508 -218.605769 
L 326.499508 -217.944934 
L 326.499508 -217.2841 
L 326.499508 -216.623266 
L 326.499508 -215.962432 
L 326.499508 -215.301598 
L 326.499508 -214.640763 
L 326.499508 -213.979929 
L 326.499508 -213.319095 
L 326.499508 -212.658261 
L 326.499508 -211.997427 
L 326.499508 -211.336592 
L 326.499508 -210.675758 
L 326.499508 -210.014924 
L 326.499508 -209.35409 
L 326.499508 -208.693256 
L 326.499508 -208.032421 
L 326.499508 -207.371587 
L 326.499508 -206.710753 
L 326.499508 -206.049919 
L 326.499508 -205.389085 
L 326.499508 -204.728251 
L 326.499508 -204.067416 
L 326.499508 -203.406582 
L 326.499508 -202.745748 
L 326.499508 -202.084914 
L 326.499508 -201.42408 
L 326.499508 -200.763245 
L 326.499508 -200.102411 
L 326.499508 -199.441577 
L 326.499508 -198.780743 
L 326.499508 -198.119909 
L 326.499508 -197.459074 
L 326.499508 -196.79824 
L 326.499508 -196.137406 
L 326.499508 -195.476572 
L 326.499508 -194.815738 
L 326.499508 -194.154903 
L 326.499508 -193.494069 
L 326.499508 -192.833235 
L 326.499508 -192.172401 
L 326.499508 -191.511567 
L 326.499508 -190.850732 
L 326.499508 -190.189898 
L 326.499508 -189.529064 
L 326.499508 -188.86823 
L 326.499508 -188.207396 
L 326.499508 -187.546562 
L 326.499508 -186.885727 
L 326.499508 -186.224893 
L 326.499508 -185.564059 
L 326.499508 -184.903225 
L 326.499508 -184.242391 
L 326.499508 -183.581556 
L 326.499508 -182.920722 
L 326.499508 -182.259888 
L 326.499508 -181.599054 
L 326.499508 -180.93822 
L 326.499508 -180.277385 
L 326.499508 -179.616551 
L 326.499508 -178.955717 
L 326.499508 -178.294883 
L 326.499508 -177.634049 
L 326.499508 -176.973214 
L 326.499508 -176.31238 
L 326.499508 -175.651546 
L 326.499508 -174.990712 
L 326.499508 -174.329878 
L 326.499508 -173.669043 
L 326.499508 -173.008209 
L 326.499508 -172.347375 
L 326.499508 -171.686541 
L 326.499508 -171.025707 
L 326.499508 -170.364872 
L 326.499508 -169.704038 
L 326.499508 -169.043204 
L 326.499508 -168.38237 
L 326.499508 -167.721536 
L 326.499508 -167.060702 
L 326.499508 -166.399867 
L 326.499508 -165.739033 
L 326.499508 -165.078199 
L 326.499508 -164.417365 
L 326.499508 -163.756531 
L 326.499508 -163.095696 
L 326.499508 -162.434862 
L 326.499508 -161.774028 
z
" style="stroke: #3f3f3f; stroke-opacity: 0.6; stroke-width: 1.25"/>
    </defs>
    <g clip-path="url(#p8e6a27aac1)">
     <use xlink:href="#mbda80efac2" x="0" y="288" style="fill: #3274a1; fill-opacity: 0.6; stroke: #3f3f3f; stroke-opacity: 0.6; stroke-width: 1.25"/>
    </g>
   </g>
   <g id="PolyCollection_8">
    <defs>
     <path id="ma6e59d7219" d="M 326.750508 -170.892954 
L 326.499508 -170.892954 
L 326.499508 -171.456166 
L 326.499508 -172.019377 
L 326.499508 -172.582589 
L 326.499508 -173.145801 
L 326.499508 -173.709012 
L 326.499508 -174.272224 
L 326.499508 -174.835436 
L 326.499508 -175.398647 
L 326.499508 -175.961859 
L 326.499508 -176.525071 
L 326.499508 -177.088282 
L 326.499508 -177.651494 
L 326.499508 -178.214706 
L 326.499508 -178.777917 
L 326.499508 -179.341129 
L 326.499508 -179.90434 
L 326.499508 -180.467552 
L 326.499508 -181.030764 
L 326.499508 -181.593975 
L 326.499508 -182.157187 
L 326.499508 -182.720399 
L 326.499508 -183.28361 
L 326.499508 -183.846822 
L 326.499508 -184.410034 
L 326.499508 -184.973245 
L 326.499508 -185.536457 
L 326.499508 -186.099669 
L 326.499508 -186.66288 
L 326.499508 -187.226092 
L 326.499508 -187.789304 
L 326.499508 -188.352515 
L 326.499508 -188.915727 
L 326.499508 -189.478939 
L 326.499508 -190.04215 
L 326.499508 -190.605362 
L 326.499508 -191.168574 
L 326.499508 -191.731785 
L 326.499508 -192.294997 
L 326.499508 -192.858208 
L 326.499508 -193.42142 
L 326.499508 -193.984632 
L 326.499508 -194.547843 
L 326.499508 -195.111055 
L 326.499508 -195.674267 
L 326.499508 -196.237478 
L 326.499508 -196.80069 
L 326.499508 -197.363902 
L 326.499508 -197.927113 
L 326.499508 -198.490325 
L 326.499508 -199.053537 
L 326.499508 -199.616748 
L 326.499508 -200.17996 
L 326.499508 -200.743172 
L 326.499508 -201.306383 
L 326.499508 -201.869595 
L 326.499508 -202.432807 
L 326.499508 -202.996018 
L 326.499508 -203.55923 
L 326.499508 -204.122441 
L 326.499508 -204.685653 
L 326.499508 -205.248865 
L 326.499508 -205.812076 
L 326.499508 -206.375288 
L 326.499508 -206.9385 
L 326.499508 -207.501711 
L 326.499508 -208.064923 
L 326.499508 -208.628135 
L 326.499508 -209.191346 
L 326.499508 -209.754558 
L 326.499508 -210.31777 
L 326.499508 -210.880981 
L 326.499508 -211.444193 
L 326.499508 -212.007405 
L 326.499508 -212.570616 
L 326.499508 -213.133828 
L 326.499508 -213.69704 
L 326.499508 -214.260251 
L 326.499508 -214.823463 
L 326.499508 -215.386675 
L 326.499508 -215.949886 
L 326.499508 -216.513098 
L 326.499508 -217.076309 
L 326.499508 -217.639521 
L 326.499508 -218.202733 
L 326.499508 -218.765944 
L 326.499508 -219.329156 
L 326.499508 -219.892368 
L 326.499508 -220.455579 
L 326.499508 -221.018791 
L 326.499508 -221.582003 
L 326.499508 -222.145214 
L 326.499508 -222.708426 
L 326.499508 -223.271638 
L 326.499508 -223.834849 
L 326.499508 -224.398061 
L 326.499508 -224.961273 
L 326.499508 -225.524484 
L 326.499508 -226.087696 
L 326.499508 -226.650908 
L 326.916005 -226.650908 
L 326.916005 -226.650908 
L 327.101608 -226.087696 
L 327.350484 -225.524484 
L 327.675921 -224.961273 
L 328.091054 -224.398061 
L 328.607827 -223.834849 
L 329.235848 -223.271638 
L 329.981257 -222.708426 
L 330.845717 -222.145214 
L 331.825676 -221.582003 
L 332.911979 -221.018791 
L 334.089877 -220.455579 
L 335.339435 -219.892368 
L 336.636299 -219.329156 
L 337.952737 -218.765944 
L 339.258892 -218.202733 
L 340.524169 -217.639521 
L 341.718723 -217.076309 
L 342.815006 -216.513098 
L 343.789334 -215.949886 
L 344.623413 -215.386675 
L 345.305706 -214.823463 
L 345.832503 -214.260251 
L 346.2085 -213.69704 
L 346.446723 -213.133828 
L 346.567689 -212.570616 
L 346.597777 -212.007405 
L 346.566919 -211.444193 
L 346.50582 -210.880981 
L 346.443033 -210.31777 
L 346.402222 -209.754558 
L 346.399964 -209.191346 
L 346.444324 -208.628135 
L 346.534379 -208.064923 
L 346.660691 -207.501711 
L 346.806651 -206.9385 
L 346.950499 -206.375288 
L 347.067761 -205.812076 
L 347.133829 -205.248865 
L 347.126396 -204.685653 
L 347.02749 -204.122441 
L 346.824913 -203.55923 
L 346.512967 -202.996018 
L 346.092423 -202.432807 
L 345.569808 -201.869595 
L 344.956158 -201.306383 
L 344.265462 -200.743172 
L 343.513035 -200.17996 
L 342.714064 -199.616748 
L 341.882521 -199.053537 
L 341.030537 -198.490325 
L 340.168287 -197.927113 
L 339.304306 -197.363902 
L 338.446132 -196.80069 
L 337.601132 -196.237478 
L 336.777321 -195.674267 
L 335.984043 -195.111055 
L 335.232374 -194.547843 
L 334.53515 -193.984632 
L 333.906584 -193.42142 
L 333.361457 -192.858208 
L 332.91398 -192.294997 
L 332.576422 -191.731785 
L 332.357684 -191.168574 
L 332.262021 -190.605362 
L 332.288069 -190.04215 
L 332.42835 -189.478939 
L 332.669325 -188.915727 
L 332.991988 -188.352515 
L 333.372962 -187.789304 
L 333.785937 -187.226092 
L 334.203325 -186.66288 
L 334.597935 -186.099669 
L 334.944563 -185.536457 
L 335.22134 -184.973245 
L 335.410795 -184.410034 
L 335.500555 -183.846822 
L 335.483677 -183.28361 
L 335.358608 -182.720399 
L 335.128812 -182.157187 
L 334.802104 -181.593975 
L 334.389791 -181.030764 
L 333.905702 -180.467552 
L 333.365214 -179.90434 
L 332.784361 -179.341129 
L 332.179083 -178.777917 
L 331.564642 -178.214706 
L 330.955188 -177.651494 
L 330.363448 -177.088282 
L 329.800485 -176.525071 
L 329.275499 -175.961859 
L 328.795659 -175.398647 
L 328.36597 -174.835436 
L 327.989218 -174.272224 
L 327.665999 -173.709012 
L 327.394885 -173.145801 
L 327.172706 -172.582589 
L 326.99494 -172.019377 
L 326.856161 -171.456166 
L 326.750508 -170.892954 
z
" style="stroke: #3f3f3f; stroke-opacity: 0.6; stroke-width: 1.25"/>
    </defs>
    <g clip-path="url(#p8e6a27aac1)">
     <use xlink:href="#ma6e59d7219" x="0" y="288" style="fill: #e1812c; fill-opacity: 0.6; stroke: #3f3f3f; stroke-opacity: 0.6; stroke-width: 1.25"/>
    </g>
   </g>
   <g id="PolyCollection_9">
    <defs>
     <path id="m2ddff14879" d="M 404.603755 -165.36207 
L 404.361127 -165.36207 
L 404.255246 -165.976263 
L 404.120233 -166.590457 
L 403.955558 -167.20465 
L 403.76371 -167.818844 
L 403.550573 -168.433037 
L 403.325212 -169.047231 
L 403.098935 -169.661425 
L 402.883728 -170.275618 
L 402.690352 -170.889812 
L 402.526523 -171.504005 
L 402.395683 -172.118199 
L 402.296689 -172.732393 
L 402.224553 -173.346586 
L 402.172016 -173.96078 
L 402.131493 -174.574973 
L 402.096817 -175.189167 
L 402.064283 -175.80336 
L 402.032768 -176.417554 
L 402.003011 -177.031748 
L 401.976415 -177.645941 
L 401.953839 -178.260135 
L 401.934747 -178.874328 
L 401.916828 -179.488522 
L 401.895945 -180.102715 
L 401.866101 -180.716909 
L 401.819129 -181.331103 
L 401.744079 -181.945296 
L 401.626574 -182.55949 
L 401.448728 -183.173683 
L 401.190266 -183.787877 
L 400.831274 -184.402071 
L 400.356495 -185.016264 
L 399.760439 -185.630458 
L 399.052031 -186.244651 
L 398.257258 -186.858845 
L 397.418486 -187.473038 
L 396.589829 -188.087232 
L 395.828959 -188.701426 
L 395.186835 -189.315619 
L 394.697575 -189.929813 
L 394.370923 -190.544006 
L 394.189262 -191.1582 
L 394.110061 -191.772393 
L 394.073296 -192.386587 
L 394.012171 -193.000781 
L 393.864676 -193.614974 
L 393.583479 -194.229168 
L 393.14221 -194.843361 
L 392.537203 -195.457555 
L 391.784941 -196.071749 
L 390.916368 -196.685942 
L 389.969795 -197.300136 
L 388.984173 -197.914329 
L 387.994149 -198.528523 
L 387.027624 -199.142716 
L 386.105744 -199.75691 
L 385.244567 -200.371104 
L 384.457158 -200.985297 
L 383.754848 -201.599491 
L 383.146742 -202.213684 
L 382.637289 -202.827878 
L 382.222592 -203.442071 
L 381.886813 -204.056265 
L 381.600302 -204.670459 
L 381.320813 -205.284652 
L 380.99834 -205.898846 
L 380.583107 -206.513039 
L 380.035207 -207.127233 
L 379.333806 -207.741426 
L 378.48379 -208.35562 
L 377.518227 -208.969814 
L 376.496005 -209.584007 
L 375.495044 -210.198201 
L 374.602455 -210.812394 
L 373.903581 -211.426588 
L 373.471987 -212.040782 
L 373.362056 -212.654975 
L 373.605177 -213.269169 
L 374.209589 -213.883362 
L 375.163212 -214.497556 
L 376.438229 -215.111749 
L 377.99607 -215.725943 
L 379.791666 -216.340137 
L 381.776331 -216.95433 
L 383.899257 -217.568524 
L 386.108052 -218.182717 
L 388.349049 -218.796911 
L 390.568088 -219.411104 
L 392.712172 -220.025298 
L 394.732043 -220.639492 
L 396.585278 -221.253685 
L 398.239306 -221.867879 
L 399.673658 -222.482072 
L 400.880933 -223.096266 
L 401.866276 -223.71046 
L 402.645477 -224.324653 
L 403.242097 -224.938847 
L 403.684157 -225.55304 
L 404.000966 -226.167234 
L 404.603755 -226.167234 
L 404.603755 -226.167234 
L 404.603755 -225.55304 
L 404.603755 -224.938847 
L 404.603755 -224.324653 
L 404.603755 -223.71046 
L 404.603755 -223.096266 
L 404.603755 -222.482072 
L 404.603755 -221.867879 
L 404.603755 -221.253685 
L 404.603755 -220.639492 
L 404.603755 -220.025298 
L 404.603755 -219.411104 
L 404.603755 -218.796911 
L 404.603755 -218.182717 
L 404.603755 -217.568524 
L 404.603755 -216.95433 
L 404.603755 -216.340137 
L 404.603755 -215.725943 
L 404.603755 -215.111749 
L 404.603755 -214.497556 
L 404.603755 -213.883362 
L 404.603755 -213.269169 
L 404.603755 -212.654975 
L 404.603755 -212.040782 
L 404.603755 -211.426588 
L 404.603755 -210.812394 
L 404.603755 -210.198201 
L 404.603755 -209.584007 
L 404.603755 -208.969814 
L 404.603755 -208.35562 
L 404.603755 -207.741426 
L 404.603755 -207.127233 
L 404.603755 -206.513039 
L 404.603755 -205.898846 
L 404.603755 -205.284652 
L 404.603755 -204.670459 
L 404.603755 -204.056265 
L 404.603755 -203.442071 
L 404.603755 -202.827878 
L 404.603755 -202.213684 
L 404.603755 -201.599491 
L 404.603755 -200.985297 
L 404.603755 -200.371104 
L 404.603755 -199.75691 
L 404.603755 -199.142716 
L 404.603755 -198.528523 
L 404.603755 -197.914329 
L 404.603755 -197.300136 
L 404.603755 -196.685942 
L 404.603755 -196.071749 
L 404.603755 -195.457555 
L 404.603755 -194.843361 
L 404.603755 -194.229168 
L 404.603755 -193.614974 
L 404.603755 -193.000781 
L 404.603755 -192.386587 
L 404.603755 -191.772393 
L 404.603755 -191.1582 
L 404.603755 -190.544006 
L 404.603755 -189.929813 
L 404.603755 -189.315619 
L 404.603755 -188.701426 
L 404.603755 -188.087232 
L 404.603755 -187.473038 
L 404.603755 -186.858845 
L 404.603755 -186.244651 
L 404.603755 -185.630458 
L 404.603755 -185.016264 
L 404.603755 -184.402071 
L 404.603755 -183.787877 
L 404.603755 -183.173683 
L 404.603755 -182.55949 
L 404.603755 -181.945296 
L 404.603755 -181.331103 
L 404.603755 -180.716909 
L 404.603755 -180.102715 
L 404.603755 -179.488522 
L 404.603755 -178.874328 
L 404.603755 -178.260135 
L 404.603755 -177.645941 
L 404.603755 -177.031748 
L 404.603755 -176.417554 
L 404.603755 -175.80336 
L 404.603755 -175.189167 
L 404.603755 -174.574973 
L 404.603755 -173.96078 
L 404.603755 -173.346586 
L 404.603755 -172.732393 
L 404.603755 -172.118199 
L 404.603755 -171.504005 
L 404.603755 -170.889812 
L 404.603755 -170.275618 
L 404.603755 -169.661425 
L 404.603755 -169.047231 
L 404.603755 -168.433037 
L 404.603755 -167.818844 
L 404.603755 -167.20465 
L 404.603755 -166.590457 
L 404.603755 -165.976263 
L 404.603755 -165.36207 
z
" style="stroke: #3f3f3f; stroke-opacity: 0.6; stroke-width: 1.25"/>
    </defs>
    <g clip-path="url(#p8e6a27aac1)">
     <use xlink:href="#m2ddff14879" x="0" y="288" style="fill: #3274a1; fill-opacity: 0.6; stroke: #3f3f3f; stroke-opacity: 0.6; stroke-width: 1.25"/>
    </g>
   </g>
   <g id="PolyCollection_10">
    <defs>
     <path id="m271b07a545" d="M 404.813001 -168.294438 
L 404.603755 -168.294438 
L 404.603755 -168.869424 
L 404.603755 -169.44441 
L 404.603755 -170.019396 
L 404.603755 -170.594382 
L 404.603755 -171.169368 
L 404.603755 -171.744354 
L 404.603755 -172.31934 
L 404.603755 -172.894326 
L 404.603755 -173.469313 
L 404.603755 -174.044299 
L 404.603755 -174.619285 
L 404.603755 -175.194271 
L 404.603755 -175.769257 
L 404.603755 -176.344243 
L 404.603755 -176.919229 
L 404.603755 -177.494215 
L 404.603755 -178.069201 
L 404.603755 -178.644187 
L 404.603755 -179.219174 
L 404.603755 -179.79416 
L 404.603755 -180.369146 
L 404.603755 -180.944132 
L 404.603755 -181.519118 
L 404.603755 -182.094104 
L 404.603755 -182.66909 
L 404.603755 -183.244076 
L 404.603755 -183.819062 
L 404.603755 -184.394048 
L 404.603755 -184.969034 
L 404.603755 -185.544021 
L 404.603755 -186.119007 
L 404.603755 -186.693993 
L 404.603755 -187.268979 
L 404.603755 -187.843965 
L 404.603755 -188.418951 
L 404.603755 -188.993937 
L 404.603755 -189.568923 
L 404.603755 -190.143909 
L 404.603755 -190.718895 
L 404.603755 -191.293881 
L 404.603755 -191.868868 
L 404.603755 -192.443854 
L 404.603755 -193.01884 
L 404.603755 -193.593826 
L 404.603755 -194.168812 
L 404.603755 -194.743798 
L 404.603755 -195.318784 
L 404.603755 -195.89377 
L 404.603755 -196.468756 
L 404.603755 -197.043742 
L 404.603755 -197.618729 
L 404.603755 -198.193715 
L 404.603755 -198.768701 
L 404.603755 -199.343687 
L 404.603755 -199.918673 
L 404.603755 -200.493659 
L 404.603755 -201.068645 
L 404.603755 -201.643631 
L 404.603755 -202.218617 
L 404.603755 -202.793603 
L 404.603755 -203.368589 
L 404.603755 -203.943576 
L 404.603755 -204.518562 
L 404.603755 -205.093548 
L 404.603755 -205.668534 
L 404.603755 -206.24352 
L 404.603755 -206.818506 
L 404.603755 -207.393492 
L 404.603755 -207.968478 
L 404.603755 -208.543464 
L 404.603755 -209.11845 
L 404.603755 -209.693437 
L 404.603755 -210.268423 
L 404.603755 -210.843409 
L 404.603755 -211.418395 
L 404.603755 -211.993381 
L 404.603755 -212.568367 
L 404.603755 -213.143353 
L 404.603755 -213.718339 
L 404.603755 -214.293325 
L 404.603755 -214.868311 
L 404.603755 -215.443297 
L 404.603755 -216.018284 
L 404.603755 -216.59327 
L 404.603755 -217.168256 
L 404.603755 -217.743242 
L 404.603755 -218.318228 
L 404.603755 -218.893214 
L 404.603755 -219.4682 
L 404.603755 -220.043186 
L 404.603755 -220.618172 
L 404.603755 -221.193158 
L 404.603755 -221.768145 
L 404.603755 -222.343131 
L 404.603755 -222.918117 
L 404.603755 -223.493103 
L 404.603755 -224.068089 
L 404.603755 -224.643075 
L 404.603755 -225.218061 
L 405.038819 -225.218061 
L 405.038819 -225.218061 
L 405.258551 -224.643075 
L 405.563424 -224.068089 
L 405.974379 -223.493103 
L 406.512957 -222.918117 
L 407.199819 -222.343131 
L 408.053132 -221.768145 
L 409.087024 -221.193158 
L 410.310322 -220.618172 
L 411.72569 -220.043186 
L 413.329181 -219.4682 
L 415.11005 -218.893214 
L 417.050605 -218.318228 
L 419.125825 -217.743242 
L 421.30261 -217.168256 
L 423.538746 -216.59327 
L 425.781952 -216.018284 
L 427.969631 -215.443297 
L 430.030058 -214.868311 
L 431.885587 -214.293325 
L 433.458085 -213.718339 
L 434.676188 -213.143353 
L 435.483381 -212.568367 
L 435.845455 -211.993381 
L 435.755752 -211.418395 
L 435.237008 -210.843409 
L 434.339236 -210.268423 
L 433.134043 -209.693437 
L 431.706514 -209.11845 
L 430.146298 -208.543464 
L 428.539453 -207.968478 
L 426.962192 -207.393492 
L 425.476918 -206.818506 
L 424.130277 -206.24352 
L 422.952549 -205.668534 
L 421.957705 -205.093548 
L 421.143762 -204.518562 
L 420.493582 -203.943576 
L 419.976556 -203.368589 
L 419.551728 -202.793603 
L 419.172546 -202.218617 
L 418.792919 -201.643631 
L 418.373696 -201.068645 
L 417.888333 -200.493659 
L 417.326571 -199.918673 
L 416.695335 -199.343687 
L 416.016723 -198.768701 
L 415.32359 -198.193715 
L 414.653743 -197.618729 
L 414.043882 -197.043742 
L 413.524352 -196.468756 
L 413.115389 -195.89377 
L 412.825172 -195.318784 
L 412.649639 -194.743798 
L 412.573807 -194.168812 
L 412.57422 -193.593826 
L 412.622128 -193.01884 
L 412.687004 -192.443854 
L 412.739973 -191.868868 
L 412.756768 -191.293881 
L 412.719838 -190.718895 
L 412.619337 -190.143909 
L 412.452924 -189.568923 
L 412.224487 -188.993937 
L 411.942148 -188.418951 
L 411.616057 -187.843965 
L 411.256469 -187.268979 
L 410.872555 -186.693993 
L 410.47209 -186.119007 
L 410.06196 -185.544021 
L 409.649118 -184.969034 
L 409.241553 -184.394048 
L 408.848781 -183.819062 
L 408.481613 -183.244076 
L 408.151149 -182.66909 
L 407.867233 -182.094104 
L 407.636796 -181.519118 
L 407.462523 -180.944132 
L 407.342203 -180.369146 
L 407.268897 -179.79416 
L 407.231854 -179.219174 
L 407.21792 -178.644187 
L 407.213096 -178.069201 
L 407.20399 -177.494215 
L 407.178946 -176.919229 
L 407.128831 -176.344243 
L 407.047498 -175.769257 
L 406.932016 -175.194271 
L 406.782705 -174.619285 
L 406.602987 -174.044299 
L 406.399009 -173.469313 
L 406.179015 -172.894326 
L 405.952479 -172.31934 
L 405.729095 -171.744354 
L 405.517747 -171.169368 
L 405.325643 -170.594382 
L 405.157736 -170.019396 
L 405.016521 -169.44441 
L 404.902177 -168.869424 
L 404.813001 -168.294438 
z
" style="stroke: #3f3f3f; stroke-opacity: 0.6; stroke-width: 1.25"/>
    </defs>
    <g clip-path="url(#p8e6a27aac1)">
     <use xlink:href="#m271b07a545" x="0" y="288" style="fill: #e1812c; fill-opacity: 0.6; stroke: #3f3f3f; stroke-opacity: 0.6; stroke-width: 1.25"/>
    </g>
   </g>
   <g id="patch_3">
    <path d="M 92.186765 649.570483 
L 92.186765 649.570483 
L 92.186765 649.570483 
L 92.186765 649.570483 
z
" clip-path="url(#p8e6a27aac1)" style="fill: #3274a1; opacity: 0.6; stroke: #3f3f3f; stroke-width: 1.25; stroke-linejoin: miter"/>
   </g>
   <g id="patch_4">
    <path d="M 92.186765 649.570483 
L 92.186765 649.570483 
L 92.186765 649.570483 
L 92.186765 649.570483 
z
" clip-path="url(#p8e6a27aac1)" style="fill: #e1812c; opacity: 0.6; stroke: #3f3f3f; stroke-width: 1.25; stroke-linejoin: miter"/>
   </g>
   <g id="matplotlib.axis_1">
    <g id="xtick_1">
     <g id="line2d_1">
      <defs>
       <path id="ma2040f3146" d="M 0 0 
L 0 3.5 
" style="stroke: #000000; stroke-width: 0.8"/>
      </defs>
      <g>
       <use xlink:href="#ma2040f3146" x="92.186765" y="256.32" style="stroke: #000000; stroke-width: 0.8"/>
      </g>
     </g>
     <g id="text_1">
      <!-- 0.025% -->
      <g transform="translate(73.121921 270.918437) scale(0.1 -0.1)">
       <defs>
        <path id="DejaVuSans-30" d="M 2034 4250 
Q 1547 4250 1301 3770 
Q 1056 3291 1056 2328 
Q 1056 1369 1301 889 
Q 1547 409 2034 409 
Q 2525 409 2770 889 
Q 3016 1369 3016 2328 
Q 3016 3291 2770 3770 
Q 2525 4250 2034 4250 
z
M 2034 4750 
Q 2819 4750 3233 4129 
Q 3647 3509 3647 2328 
Q 3647 1150 3233 529 
Q 2819 -91 2034 -91 
Q 1250 -91 836 529 
Q 422 1150 422 2328 
Q 422 3509 836 4129 
Q 1250 4750 2034 4750 
z
" transform="scale(0.015625)"/>
        <path id="DejaVuSans-2e" d="M 684 794 
L 1344 794 
L 1344 0 
L 684 0 
L 684 794 
z
" transform="scale(0.015625)"/>
        <path id="DejaVuSans-32" d="M 1228 531 
L 3431 531 
L 3431 0 
L 469 0 
L 469 531 
Q 828 903 1448 1529 
Q 2069 2156 2228 2338 
Q 2531 2678 2651 2914 
Q 2772 3150 2772 3378 
Q 2772 3750 2511 3984 
Q 2250 4219 1831 4219 
Q 1534 4219 1204 4116 
Q 875 4013 500 3803 
L 500 4441 
Q 881 4594 1212 4672 
Q 1544 4750 1819 4750 
Q 2544 4750 2975 4387 
Q 3406 4025 3406 3419 
Q 3406 3131 3298 2873 
Q 3191 2616 2906 2266 
Q 2828 2175 2409 1742 
Q 1991 1309 1228 531 
z
" transform="scale(0.015625)"/>
        <path id="DejaVuSans-35" d="M 691 4666 
L 3169 4666 
L 3169 4134 
L 1269 4134 
L 1269 2991 
Q 1406 3038 1543 3061 
Q 1681 3084 1819 3084 
Q 2600 3084 3056 2656 
Q 3513 2228 3513 1497 
Q 3513 744 3044 326 
Q 2575 -91 1722 -91 
Q 1428 -91 1123 -41 
Q 819 9 494 109 
L 494 744 
Q 775 591 1075 516 
Q 1375 441 1709 441 
Q 2250 441 2565 725 
Q 2881 1009 2881 1497 
Q 2881 1984 2565 2268 
Q 2250 2553 1709 2553 
Q 1456 2553 1204 2497 
Q 953 2441 691 2322 
L 691 4666 
z
" transform="scale(0.015625)"/>
        <path id="DejaVuSans-25" d="M 4653 2053 
Q 4381 2053 4226 1822 
Q 4072 1591 4072 1178 
Q 4072 772 4226 539 
Q 4381 306 4653 306 
Q 4919 306 5073 539 
Q 5228 772 5228 1178 
Q 5228 1588 5073 1820 
Q 4919 2053 4653 2053 
z
M 4653 2450 
Q 5147 2450 5437 2106 
Q 5728 1763 5728 1178 
Q 5728 594 5436 251 
Q 5144 -91 4653 -91 
Q 4153 -91 3862 251 
Q 3572 594 3572 1178 
Q 3572 1766 3864 2108 
Q 4156 2450 4653 2450 
z
M 1428 4353 
Q 1159 4353 1004 4120 
Q 850 3888 850 3481 
Q 850 3069 1003 2837 
Q 1156 2606 1428 2606 
Q 1700 2606 1854 2837 
Q 2009 3069 2009 3481 
Q 2009 3884 1853 4118 
Q 1697 4353 1428 4353 
z
M 4250 4750 
L 4750 4750 
L 1831 -91 
L 1331 -91 
L 4250 4750 
z
M 1428 4750 
Q 1922 4750 2215 4408 
Q 2509 4066 2509 3481 
Q 2509 2891 2217 2550 
Q 1925 2209 1428 2209 
Q 931 2209 642 2551 
Q 353 2894 353 3481 
Q 353 4063 643 4406 
Q 934 4750 1428 4750 
z
" transform="scale(0.015625)"/>
       </defs>
       <use xlink:href="#DejaVuSans-30"/>
       <use xlink:href="#DejaVuSans-2e" x="63.623047"/>
       <use xlink:href="#DejaVuSans-30" x="95.410156"/>
       <use xlink:href="#DejaVuSans-32" x="159.033203"/>
       <use xlink:href="#DejaVuSans-35" x="222.65625"/>
       <use xlink:href="#DejaVuSans-25" x="286.279297"/>
      </g>
     </g>
    </g>
    <g id="xtick_2">
     <g id="line2d_2">
      <g>
       <use xlink:href="#ma2040f3146" x="170.291012" y="256.32" style="stroke: #000000; stroke-width: 0.8"/>
      </g>
     </g>
     <g id="text_2">
      <!-- 0.05% -->
      <g transform="translate(154.407419 270.918437) scale(0.1 -0.1)">
       <use xlink:href="#DejaVuSans-30"/>
       <use xlink:href="#DejaVuSans-2e" x="63.623047"/>
       <use xlink:href="#DejaVuSans-30" x="95.410156"/>
       <use xlink:href="#DejaVuSans-35" x="159.033203"/>
       <use xlink:href="#DejaVuSans-25" x="222.65625"/>
      </g>
     </g>
    </g>
    <g id="xtick_3">
     <g id="line2d_3">
      <g>
       <use xlink:href="#ma2040f3146" x="248.39526" y="256.32" style="stroke: #000000; stroke-width: 0.8"/>
      </g>
     </g>
     <g id="text_3">
      <!-- 0.1% -->
      <g transform="translate(235.692916 270.918437) scale(0.1 -0.1)">
       <defs>
        <path id="DejaVuSans-31" d="M 794 531 
L 1825 531 
L 1825 4091 
L 703 3866 
L 703 4441 
L 1819 4666 
L 2450 4666 
L 2450 531 
L 3481 531 
L 3481 0 
L 794 0 
L 794 531 
z
" transform="scale(0.015625)"/>
       </defs>
       <use xlink:href="#DejaVuSans-30"/>
       <use xlink:href="#DejaVuSans-2e" x="63.623047"/>
       <use xlink:href="#DejaVuSans-31" x="95.410156"/>
       <use xlink:href="#DejaVuSans-25" x="159.033203"/>
      </g>
     </g>
    </g>
    <g id="xtick_4">
     <g id="line2d_4">
      <g>
       <use xlink:href="#ma2040f3146" x="326.499508" y="256.32" style="stroke: #000000; stroke-width: 0.8"/>
      </g>
     </g>
     <g id="text_4">
      <!-- 0.25% -->
      <g transform="translate(310.615914 270.918437) scale(0.1 -0.1)">
       <use xlink:href="#DejaVuSans-30"/>
       <use xlink:href="#DejaVuSans-2e" x="63.623047"/>
       <use xlink:href="#DejaVuSans-32" x="95.410156"/>
       <use xlink:href="#DejaVuSans-35" x="159.033203"/>
       <use xlink:href="#DejaVuSans-25" x="222.65625"/>
      </g>
     </g>
    </g>
    <g id="xtick_5">
     <g id="line2d_5">
      <g>
       <use xlink:href="#ma2040f3146" x="404.603755" y="256.32" style="stroke: #000000; stroke-width: 0.8"/>
      </g>
     </g>
     <g id="text_5">
      <!-- 0.5% -->
      <g transform="translate(391.901412 270.918437) scale(0.1 -0.1)">
       <use xlink:href="#DejaVuSans-30"/>
       <use xlink:href="#DejaVuSans-2e" x="63.623047"/>
       <use xlink:href="#DejaVuSans-35" x="95.410156"/>
       <use xlink:href="#DejaVuSans-25" x="159.033203"/>
      </g>
     </g>
    </g>
    <g id="text_6">
     <!-- Percent labelled -->
     <g transform="translate(218.170313 284.596563) scale(0.1 -0.1)">
      <defs>
       <path id="DejaVuSans-50" d="M 1259 4147 
L 1259 2394 
L 2053 2394 
Q 2494 2394 2734 2622 
Q 2975 2850 2975 3272 
Q 2975 3691 2734 3919 
Q 2494 4147 2053 4147 
L 1259 4147 
z
M 628 4666 
L 2053 4666 
Q 2838 4666 3239 4311 
Q 3641 3956 3641 3272 
Q 3641 2581 3239 2228 
Q 2838 1875 2053 1875 
L 1259 1875 
L 1259 0 
L 628 0 
L 628 4666 
z
" transform="scale(0.015625)"/>
       <path id="DejaVuSans-65" d="M 3597 1894 
L 3597 1613 
L 953 1613 
Q 991 1019 1311 708 
Q 1631 397 2203 397 
Q 2534 397 2845 478 
Q 3156 559 3463 722 
L 3463 178 
Q 3153 47 2828 -22 
Q 2503 -91 2169 -91 
Q 1331 -91 842 396 
Q 353 884 353 1716 
Q 353 2575 817 3079 
Q 1281 3584 2069 3584 
Q 2775 3584 3186 3129 
Q 3597 2675 3597 1894 
z
M 3022 2063 
Q 3016 2534 2758 2815 
Q 2500 3097 2075 3097 
Q 1594 3097 1305 2825 
Q 1016 2553 972 2059 
L 3022 2063 
z
" transform="scale(0.015625)"/>
       <path id="DejaVuSans-72" d="M 2631 2963 
Q 2534 3019 2420 3045 
Q 2306 3072 2169 3072 
Q 1681 3072 1420 2755 
Q 1159 2438 1159 1844 
L 1159 0 
L 581 0 
L 581 3500 
L 1159 3500 
L 1159 2956 
Q 1341 3275 1631 3429 
Q 1922 3584 2338 3584 
Q 2397 3584 2469 3576 
Q 2541 3569 2628 3553 
L 2631 2963 
z
" transform="scale(0.015625)"/>
       <path id="DejaVuSans-63" d="M 3122 3366 
L 3122 2828 
Q 2878 2963 2633 3030 
Q 2388 3097 2138 3097 
Q 1578 3097 1268 2742 
Q 959 2388 959 1747 
Q 959 1106 1268 751 
Q 1578 397 2138 397 
Q 2388 397 2633 464 
Q 2878 531 3122 666 
L 3122 134 
Q 2881 22 2623 -34 
Q 2366 -91 2075 -91 
Q 1284 -91 818 406 
Q 353 903 353 1747 
Q 353 2603 823 3093 
Q 1294 3584 2113 3584 
Q 2378 3584 2631 3529 
Q 2884 3475 3122 3366 
z
" transform="scale(0.015625)"/>
       <path id="DejaVuSans-6e" d="M 3513 2113 
L 3513 0 
L 2938 0 
L 2938 2094 
Q 2938 2591 2744 2837 
Q 2550 3084 2163 3084 
Q 1697 3084 1428 2787 
Q 1159 2491 1159 1978 
L 1159 0 
L 581 0 
L 581 3500 
L 1159 3500 
L 1159 2956 
Q 1366 3272 1645 3428 
Q 1925 3584 2291 3584 
Q 2894 3584 3203 3211 
Q 3513 2838 3513 2113 
z
" transform="scale(0.015625)"/>
       <path id="DejaVuSans-74" d="M 1172 4494 
L 1172 3500 
L 2356 3500 
L 2356 3053 
L 1172 3053 
L 1172 1153 
Q 1172 725 1289 603 
Q 1406 481 1766 481 
L 2356 481 
L 2356 0 
L 1766 0 
Q 1100 0 847 248 
Q 594 497 594 1153 
L 594 3053 
L 172 3053 
L 172 3500 
L 594 3500 
L 594 4494 
L 1172 4494 
z
" transform="scale(0.015625)"/>
       <path id="DejaVuSans-20" transform="scale(0.015625)"/>
       <path id="DejaVuSans-6c" d="M 603 4863 
L 1178 4863 
L 1178 0 
L 603 0 
L 603 4863 
z
" transform="scale(0.015625)"/>
       <path id="DejaVuSans-61" d="M 2194 1759 
Q 1497 1759 1228 1600 
Q 959 1441 959 1056 
Q 959 750 1161 570 
Q 1363 391 1709 391 
Q 2188 391 2477 730 
Q 2766 1069 2766 1631 
L 2766 1759 
L 2194 1759 
z
M 3341 1997 
L 3341 0 
L 2766 0 
L 2766 531 
Q 2569 213 2275 61 
Q 1981 -91 1556 -91 
Q 1019 -91 701 211 
Q 384 513 384 1019 
Q 384 1609 779 1909 
Q 1175 2209 1959 2209 
L 2766 2209 
L 2766 2266 
Q 2766 2663 2505 2880 
Q 2244 3097 1772 3097 
Q 1472 3097 1187 3025 
Q 903 2953 641 2809 
L 641 3341 
Q 956 3463 1253 3523 
Q 1550 3584 1831 3584 
Q 2591 3584 2966 3190 
Q 3341 2797 3341 1997 
z
" transform="scale(0.015625)"/>
       <path id="DejaVuSans-62" d="M 3116 1747 
Q 3116 2381 2855 2742 
Q 2594 3103 2138 3103 
Q 1681 3103 1420 2742 
Q 1159 2381 1159 1747 
Q 1159 1113 1420 752 
Q 1681 391 2138 391 
Q 2594 391 2855 752 
Q 3116 1113 3116 1747 
z
M 1159 2969 
Q 1341 3281 1617 3432 
Q 1894 3584 2278 3584 
Q 2916 3584 3314 3078 
Q 3713 2572 3713 1747 
Q 3713 922 3314 415 
Q 2916 -91 2278 -91 
Q 1894 -91 1617 61 
Q 1341 213 1159 525 
L 1159 0 
L 581 0 
L 581 4863 
L 1159 4863 
L 1159 2969 
z
" transform="scale(0.015625)"/>
       <path id="DejaVuSans-64" d="M 2906 2969 
L 2906 4863 
L 3481 4863 
L 3481 0 
L 2906 0 
L 2906 525 
Q 2725 213 2448 61 
Q 2172 -91 1784 -91 
Q 1150 -91 751 415 
Q 353 922 353 1747 
Q 353 2572 751 3078 
Q 1150 3584 1784 3584 
Q 2172 3584 2448 3432 
Q 2725 3281 2906 2969 
z
M 947 1747 
Q 947 1113 1208 752 
Q 1469 391 1925 391 
Q 2381 391 2643 752 
Q 2906 1113 2906 1747 
Q 2906 2381 2643 2742 
Q 2381 3103 1925 3103 
Q 1469 3103 1208 2742 
Q 947 2381 947 1747 
z
" transform="scale(0.015625)"/>
      </defs>
      <use xlink:href="#DejaVuSans-50"/>
      <use xlink:href="#DejaVuSans-65" x="56.677734"/>
      <use xlink:href="#DejaVuSans-72" x="118.201172"/>
      <use xlink:href="#DejaVuSans-63" x="157.064453"/>
      <use xlink:href="#DejaVuSans-65" x="212.044922"/>
      <use xlink:href="#DejaVuSans-6e" x="273.568359"/>
      <use xlink:href="#DejaVuSans-74" x="336.947266"/>
      <use xlink:href="#DejaVuSans-20" x="376.15625"/>
      <use xlink:href="#DejaVuSans-6c" x="407.943359"/>
      <use xlink:href="#DejaVuSans-61" x="435.726562"/>
      <use xlink:href="#DejaVuSans-62" x="497.005859"/>
      <use xlink:href="#DejaVuSans-65" x="560.482422"/>
      <use xlink:href="#DejaVuSans-6c" x="622.005859"/>
      <use xlink:href="#DejaVuSans-6c" x="649.789062"/>
      <use xlink:href="#DejaVuSans-65" x="677.572266"/>
      <use xlink:href="#DejaVuSans-64" x="739.095703"/>
     </g>
    </g>
   </g>
   <g id="matplotlib.axis_2">
    <g id="ytick_1">
     <g id="line2d_6">
      <defs>
       <path id="ma856e10af3" d="M 0 0 
L -3.5 0 
" style="stroke: #000000; stroke-width: 0.8"/>
      </defs>
      <g>
       <use xlink:href="#ma856e10af3" x="63" y="255.213477" style="stroke: #000000; stroke-width: 0.8"/>
      </g>
     </g>
     <g id="text_7">
      <!-- 0.65 -->
      <g transform="translate(33.734375 259.012696) scale(0.1 -0.1)">
       <defs>
        <path id="DejaVuSans-36" d="M 2113 2584 
Q 1688 2584 1439 2293 
Q 1191 2003 1191 1497 
Q 1191 994 1439 701 
Q 1688 409 2113 409 
Q 2538 409 2786 701 
Q 3034 994 3034 1497 
Q 3034 2003 2786 2293 
Q 2538 2584 2113 2584 
z
M 3366 4563 
L 3366 3988 
Q 3128 4100 2886 4159 
Q 2644 4219 2406 4219 
Q 1781 4219 1451 3797 
Q 1122 3375 1075 2522 
Q 1259 2794 1537 2939 
Q 1816 3084 2150 3084 
Q 2853 3084 3261 2657 
Q 3669 2231 3669 1497 
Q 3669 778 3244 343 
Q 2819 -91 2113 -91 
Q 1303 -91 875 529 
Q 447 1150 447 2328 
Q 447 3434 972 4092 
Q 1497 4750 2381 4750 
Q 2619 4750 2861 4703 
Q 3103 4656 3366 4563 
z
" transform="scale(0.015625)"/>
       </defs>
       <use xlink:href="#DejaVuSans-30"/>
       <use xlink:href="#DejaVuSans-2e" x="63.623047"/>
       <use xlink:href="#DejaVuSans-36" x="95.410156"/>
       <use xlink:href="#DejaVuSans-35" x="159.033203"/>
      </g>
     </g>
    </g>
    <g id="ytick_2">
     <g id="line2d_7">
      <g>
       <use xlink:href="#ma856e10af3" x="63" y="224.878323" style="stroke: #000000; stroke-width: 0.8"/>
      </g>
     </g>
     <g id="text_8">
      <!-- 0.70 -->
      <g transform="translate(33.734375 228.677541) scale(0.1 -0.1)">
       <defs>
        <path id="DejaVuSans-37" d="M 525 4666 
L 3525 4666 
L 3525 4397 
L 1831 0 
L 1172 0 
L 2766 4134 
L 525 4134 
L 525 4666 
z
" transform="scale(0.015625)"/>
       </defs>
       <use xlink:href="#DejaVuSans-30"/>
       <use xlink:href="#DejaVuSans-2e" x="63.623047"/>
       <use xlink:href="#DejaVuSans-37" x="95.410156"/>
       <use xlink:href="#DejaVuSans-30" x="159.033203"/>
      </g>
     </g>
    </g>
    <g id="ytick_3">
     <g id="line2d_8">
      <g>
       <use xlink:href="#ma856e10af3" x="63" y="194.543168" style="stroke: #000000; stroke-width: 0.8"/>
      </g>
     </g>
     <g id="text_9">
      <!-- 0.75 -->
      <g transform="translate(33.734375 198.342387) scale(0.1 -0.1)">
       <use xlink:href="#DejaVuSans-30"/>
       <use xlink:href="#DejaVuSans-2e" x="63.623047"/>
       <use xlink:href="#DejaVuSans-37" x="95.410156"/>
       <use xlink:href="#DejaVuSans-35" x="159.033203"/>
      </g>
     </g>
    </g>
    <g id="ytick_4">
     <g id="line2d_9">
      <g>
       <use xlink:href="#ma856e10af3" x="63" y="164.208014" style="stroke: #000000; stroke-width: 0.8"/>
      </g>
     </g>
     <g id="text_10">
      <!-- 0.80 -->
      <g transform="translate(33.734375 168.007233) scale(0.1 -0.1)">
       <defs>
        <path id="DejaVuSans-38" d="M 2034 2216 
Q 1584 2216 1326 1975 
Q 1069 1734 1069 1313 
Q 1069 891 1326 650 
Q 1584 409 2034 409 
Q 2484 409 2743 651 
Q 3003 894 3003 1313 
Q 3003 1734 2745 1975 
Q 2488 2216 2034 2216 
z
M 1403 2484 
Q 997 2584 770 2862 
Q 544 3141 544 3541 
Q 544 4100 942 4425 
Q 1341 4750 2034 4750 
Q 2731 4750 3128 4425 
Q 3525 4100 3525 3541 
Q 3525 3141 3298 2862 
Q 3072 2584 2669 2484 
Q 3125 2378 3379 2068 
Q 3634 1759 3634 1313 
Q 3634 634 3220 271 
Q 2806 -91 2034 -91 
Q 1263 -91 848 271 
Q 434 634 434 1313 
Q 434 1759 690 2068 
Q 947 2378 1403 2484 
z
M 1172 3481 
Q 1172 3119 1398 2916 
Q 1625 2713 2034 2713 
Q 2441 2713 2670 2916 
Q 2900 3119 2900 3481 
Q 2900 3844 2670 4047 
Q 2441 4250 2034 4250 
Q 1625 4250 1398 4047 
Q 1172 3844 1172 3481 
z
" transform="scale(0.015625)"/>
       </defs>
       <use xlink:href="#DejaVuSans-30"/>
       <use xlink:href="#DejaVuSans-2e" x="63.623047"/>
       <use xlink:href="#DejaVuSans-38" x="95.410156"/>
       <use xlink:href="#DejaVuSans-30" x="159.033203"/>
      </g>
     </g>
    </g>
    <g id="ytick_5">
     <g id="line2d_10">
      <g>
       <use xlink:href="#ma856e10af3" x="63" y="133.87286" style="stroke: #000000; stroke-width: 0.8"/>
      </g>
     </g>
     <g id="text_11">
      <!-- 0.85 -->
      <g transform="translate(33.734375 137.672079) scale(0.1 -0.1)">
       <use xlink:href="#DejaVuSans-30"/>
       <use xlink:href="#DejaVuSans-2e" x="63.623047"/>
       <use xlink:href="#DejaVuSans-38" x="95.410156"/>
       <use xlink:href="#DejaVuSans-35" x="159.033203"/>
      </g>
     </g>
    </g>
    <g id="ytick_6">
     <g id="line2d_11">
      <g>
       <use xlink:href="#ma856e10af3" x="63" y="103.537706" style="stroke: #000000; stroke-width: 0.8"/>
      </g>
     </g>
     <g id="text_12">
      <!-- 0.90 -->
      <g transform="translate(33.734375 107.336924) scale(0.1 -0.1)">
       <defs>
        <path id="DejaVuSans-39" d="M 703 97 
L 703 672 
Q 941 559 1184 500 
Q 1428 441 1663 441 
Q 2288 441 2617 861 
Q 2947 1281 2994 2138 
Q 2813 1869 2534 1725 
Q 2256 1581 1919 1581 
Q 1219 1581 811 2004 
Q 403 2428 403 3163 
Q 403 3881 828 4315 
Q 1253 4750 1959 4750 
Q 2769 4750 3195 4129 
Q 3622 3509 3622 2328 
Q 3622 1225 3098 567 
Q 2575 -91 1691 -91 
Q 1453 -91 1209 -44 
Q 966 3 703 97 
z
M 1959 2075 
Q 2384 2075 2632 2365 
Q 2881 2656 2881 3163 
Q 2881 3666 2632 3958 
Q 2384 4250 1959 4250 
Q 1534 4250 1286 3958 
Q 1038 3666 1038 3163 
Q 1038 2656 1286 2365 
Q 1534 2075 1959 2075 
z
" transform="scale(0.015625)"/>
       </defs>
       <use xlink:href="#DejaVuSans-30"/>
       <use xlink:href="#DejaVuSans-2e" x="63.623047"/>
       <use xlink:href="#DejaVuSans-39" x="95.410156"/>
       <use xlink:href="#DejaVuSans-30" x="159.033203"/>
      </g>
     </g>
    </g>
    <g id="ytick_7">
     <g id="line2d_12">
      <g>
       <use xlink:href="#ma856e10af3" x="63" y="73.202551" style="stroke: #000000; stroke-width: 0.8"/>
      </g>
     </g>
     <g id="text_13">
      <!-- 0.95 -->
      <g transform="translate(33.734375 77.00177) scale(0.1 -0.1)">
       <use xlink:href="#DejaVuSans-30"/>
       <use xlink:href="#DejaVuSans-2e" x="63.623047"/>
       <use xlink:href="#DejaVuSans-39" x="95.410156"/>
       <use xlink:href="#DejaVuSans-35" x="159.033203"/>
      </g>
     </g>
    </g>
    <g id="ytick_8">
     <g id="line2d_13">
      <g>
       <use xlink:href="#ma856e10af3" x="63" y="42.867397" style="stroke: #000000; stroke-width: 0.8"/>
      </g>
     </g>
     <g id="text_14">
      <!-- 1.00 -->
      <g transform="translate(33.734375 46.666616) scale(0.1 -0.1)">
       <use xlink:href="#DejaVuSans-31"/>
       <use xlink:href="#DejaVuSans-2e" x="63.623047"/>
       <use xlink:href="#DejaVuSans-30" x="95.410156"/>
       <use xlink:href="#DejaVuSans-30" x="159.033203"/>
      </g>
     </g>
    </g>
    <g id="text_15">
     <!-- Accuracy -->
     <g transform="translate(27.654687 168.268125) rotate(-90) scale(0.1 -0.1)">
      <defs>
       <path id="DejaVuSans-41" d="M 2188 4044 
L 1331 1722 
L 3047 1722 
L 2188 4044 
z
M 1831 4666 
L 2547 4666 
L 4325 0 
L 3669 0 
L 3244 1197 
L 1141 1197 
L 716 0 
L 50 0 
L 1831 4666 
z
" transform="scale(0.015625)"/>
       <path id="DejaVuSans-75" d="M 544 1381 
L 544 3500 
L 1119 3500 
L 1119 1403 
Q 1119 906 1312 657 
Q 1506 409 1894 409 
Q 2359 409 2629 706 
Q 2900 1003 2900 1516 
L 2900 3500 
L 3475 3500 
L 3475 0 
L 2900 0 
L 2900 538 
Q 2691 219 2414 64 
Q 2138 -91 1772 -91 
Q 1169 -91 856 284 
Q 544 659 544 1381 
z
M 1991 3584 
L 1991 3584 
z
" transform="scale(0.015625)"/>
       <path id="DejaVuSans-79" d="M 2059 -325 
Q 1816 -950 1584 -1140 
Q 1353 -1331 966 -1331 
L 506 -1331 
L 506 -850 
L 844 -850 
Q 1081 -850 1212 -737 
Q 1344 -625 1503 -206 
L 1606 56 
L 191 3500 
L 800 3500 
L 1894 763 
L 2988 3500 
L 3597 3500 
L 2059 -325 
z
" transform="scale(0.015625)"/>
      </defs>
      <use xlink:href="#DejaVuSans-41"/>
      <use xlink:href="#DejaVuSans-63" x="66.658203"/>
      <use xlink:href="#DejaVuSans-63" x="121.638672"/>
      <use xlink:href="#DejaVuSans-75" x="176.619141"/>
      <use xlink:href="#DejaVuSans-72" x="239.998047"/>
      <use xlink:href="#DejaVuSans-61" x="281.111328"/>
      <use xlink:href="#DejaVuSans-63" x="342.390625"/>
      <use xlink:href="#DejaVuSans-79" x="397.371094"/>
     </g>
    </g>
   </g>
   <g id="line2d_14">
    <path d="M 87.313397 121.688584 
L 92.186765 121.688584 
" clip-path="url(#p8e6a27aac1)" style="fill: none; stroke-dasharray: 1.5625,0.9375; stroke-dashoffset: 0; stroke: #3f3f3f; stroke-width: 1.25"/>
   </g>
   <g id="line2d_15">
    <path d="M 82.078551 92.170376 
L 92.186765 92.170376 
" clip-path="url(#p8e6a27aac1)" style="fill: none; stroke-dasharray: 3.125,1.25; stroke-dashoffset: 0; stroke: #3f3f3f; stroke-width: 1.25"/>
   </g>
   <g id="line2d_16">
    <path d="M 81.022187 79.373197 
L 92.186765 79.373197 
" clip-path="url(#p8e6a27aac1)" style="fill: none; stroke-dasharray: 1.5625,0.9375; stroke-dashoffset: 0; stroke: #3f3f3f; stroke-width: 1.25"/>
   </g>
   <g id="line2d_17">
    <path d="M 92.186765 142.10838 
L 95.681247 142.10838 
" clip-path="url(#p8e6a27aac1)" style="fill: none; stroke-dasharray: 1.5625,0.9375; stroke-dashoffset: 0; stroke: #3f3f3f; stroke-width: 1.25"/>
   </g>
   <g id="line2d_18">
    <path d="M 92.186765 118.566057 
L 98.39543 118.566057 
" clip-path="url(#p8e6a27aac1)" style="fill: none; stroke-dasharray: 3.125,1.25; stroke-dashoffset: 0; stroke: #3f3f3f; stroke-width: 1.25"/>
   </g>
   <g id="line2d_19">
    <path d="M 92.186765 92.908273 
L 99.459977 92.908273 
" clip-path="url(#p8e6a27aac1)" style="fill: none; stroke-dasharray: 1.5625,0.9375; stroke-dashoffset: 0; stroke: #3f3f3f; stroke-width: 1.25"/>
   </g>
   <g id="line2d_20">
    <path d="M 164.407571 126.391325 
L 170.291012 126.391325 
" clip-path="url(#p8e6a27aac1)" style="fill: none; stroke-dasharray: 1.5625,0.9375; stroke-dashoffset: 0; stroke: #3f3f3f; stroke-width: 1.25"/>
   </g>
   <g id="line2d_21">
    <path d="M 159.025768 89.918011 
L 170.291012 89.918011 
" clip-path="url(#p8e6a27aac1)" style="fill: none; stroke-dasharray: 3.125,1.25; stroke-dashoffset: 0; stroke: #3f3f3f; stroke-width: 1.25"/>
   </g>
   <g id="line2d_22">
    <path d="M 156.814109 81.43374 
L 170.291012 81.43374 
" clip-path="url(#p8e6a27aac1)" style="fill: none; stroke-dasharray: 1.5625,0.9375; stroke-dashoffset: 0; stroke: #3f3f3f; stroke-width: 1.25"/>
   </g>
   <g id="line2d_23">
    <path d="M 170.291012 130.018159 
L 174.732575 130.018159 
" clip-path="url(#p8e6a27aac1)" style="fill: none; stroke-dasharray: 1.5625,0.9375; stroke-dashoffset: 0; stroke: #3f3f3f; stroke-width: 1.25"/>
   </g>
   <g id="line2d_24">
    <path d="M 170.291012 109.643225 
L 176.804479 109.643225 
" clip-path="url(#p8e6a27aac1)" style="fill: none; stroke-dasharray: 3.125,1.25; stroke-dashoffset: 0; stroke: #3f3f3f; stroke-width: 1.25"/>
   </g>
   <g id="line2d_25">
    <path d="M 170.291012 90.691488 
L 179.558998 90.691488 
" clip-path="url(#p8e6a27aac1)" style="fill: none; stroke-dasharray: 1.5625,0.9375; stroke-dashoffset: 0; stroke: #3f3f3f; stroke-width: 1.25"/>
   </g>
   <g id="line2d_26">
    <path d="M 237.228097 104.654297 
L 248.39526 104.654297 
" clip-path="url(#p8e6a27aac1)" style="fill: none; stroke-dasharray: 1.5625,0.9375; stroke-dashoffset: 0; stroke: #3f3f3f; stroke-width: 1.25"/>
   </g>
   <g id="line2d_27">
    <path d="M 232.32441 86.047531 
L 248.39526 86.047531 
" clip-path="url(#p8e6a27aac1)" style="fill: none; stroke-dasharray: 3.125,1.25; stroke-dashoffset: 0; stroke: #3f3f3f; stroke-width: 1.25"/>
   </g>
   <g id="line2d_28">
    <path d="M 230.156344 77.010224 
L 248.39526 77.010224 
" clip-path="url(#p8e6a27aac1)" style="fill: none; stroke-dasharray: 1.5625,0.9375; stroke-dashoffset: 0; stroke: #3f3f3f; stroke-width: 1.25"/>
   </g>
   <g id="line2d_29">
    <path d="M 248.39526 102.763146 
L 257.385165 102.763146 
" clip-path="url(#p8e6a27aac1)" style="fill: none; stroke-dasharray: 1.5625,0.9375; stroke-dashoffset: 0; stroke: #3f3f3f; stroke-width: 1.25"/>
   </g>
   <g id="line2d_30">
    <path d="M 248.39526 91.503639 
L 262.058155 91.503639 
" clip-path="url(#p8e6a27aac1)" style="fill: none; stroke-dasharray: 3.125,1.25; stroke-dashoffset: 0; stroke: #3f3f3f; stroke-width: 1.25"/>
   </g>
   <g id="line2d_31">
    <path d="M 248.39526 83.247544 
L 261.404804 83.247544 
" clip-path="url(#p8e6a27aac1)" style="fill: none; stroke-dasharray: 1.5625,0.9375; stroke-dashoffset: 0; stroke: #3f3f3f; stroke-width: 1.25"/>
   </g>
   <g id="line2d_32">
    <path d="M 314.080683 89.758675 
L 326.499508 89.758675 
" clip-path="url(#p8e6a27aac1)" style="fill: none; stroke-dasharray: 1.5625,0.9375; stroke-dashoffset: 0; stroke: #3f3f3f; stroke-width: 1.25"/>
   </g>
   <g id="line2d_33">
    <path d="M 299.888495 81.951196 
L 326.499508 81.951196 
" clip-path="url(#p8e6a27aac1)" style="fill: none; stroke-dasharray: 3.125,1.25; stroke-dashoffset: 0; stroke: #3f3f3f; stroke-width: 1.25"/>
   </g>
   <g id="line2d_34">
    <path d="M 301.037884 75.474872 
L 326.499508 75.474872 
" clip-path="url(#p8e6a27aac1)" style="fill: none; stroke-dasharray: 1.5625,0.9375; stroke-dashoffset: 0; stroke: #3f3f3f; stroke-width: 1.25"/>
   </g>
   <g id="line2d_35">
    <path d="M 326.499508 90.955244 
L 338.818019 90.955244 
" clip-path="url(#p8e6a27aac1)" style="fill: none; stroke-dasharray: 1.5625,0.9375; stroke-dashoffset: 0; stroke: #3f3f3f; stroke-width: 1.25"/>
   </g>
   <g id="line2d_36">
    <path d="M 326.499508 83.461024 
L 347.100638 83.461024 
" clip-path="url(#p8e6a27aac1)" style="fill: none; stroke-dasharray: 3.125,1.25; stroke-dashoffset: 0; stroke: #3f3f3f; stroke-width: 1.25"/>
   </g>
   <g id="line2d_37">
    <path d="M 326.499508 75.339514 
L 346.548386 75.339514 
" clip-path="url(#p8e6a27aac1)" style="fill: none; stroke-dasharray: 1.5625,0.9375; stroke-dashoffset: 0; stroke: #3f3f3f; stroke-width: 1.25"/>
   </g>
   <g id="line2d_38">
    <path d="M 386.754073 88.675033 
L 404.603755 88.675033 
" clip-path="url(#p8e6a27aac1)" style="fill: none; stroke-dasharray: 1.5625,0.9375; stroke-dashoffset: 0; stroke: #3f3f3f; stroke-width: 1.25"/>
   </g>
   <g id="line2d_39">
    <path d="M 380.136126 80.985897 
L 404.603755 80.985897 
" clip-path="url(#p8e6a27aac1)" style="fill: none; stroke-dasharray: 3.125,1.25; stroke-dashoffset: 0; stroke: #3f3f3f; stroke-width: 1.25"/>
   </g>
   <g id="line2d_40">
    <path d="M 373.579782 74.794986 
L 404.603755 74.794986 
" clip-path="url(#p8e6a27aac1)" style="fill: none; stroke-dasharray: 1.5625,0.9375; stroke-dashoffset: 0; stroke: #3f3f3f; stroke-width: 1.25"/>
   </g>
   <g id="line2d_41">
    <path d="M 404.603755 87.539569 
L 417.855869 87.539569 
" clip-path="url(#p8e6a27aac1)" style="fill: none; stroke-dasharray: 1.5625,0.9375; stroke-dashoffset: 0; stroke: #3f3f3f; stroke-width: 1.25"/>
   </g>
   <g id="line2d_42">
    <path d="M 404.603755 79.347672 
L 430.441697 79.347672 
" clip-path="url(#p8e6a27aac1)" style="fill: none; stroke-dasharray: 3.125,1.25; stroke-dashoffset: 0; stroke: #3f3f3f; stroke-width: 1.25"/>
   </g>
   <g id="line2d_43">
    <path d="M 404.603755 75.58548 
L 435.58026 75.58548 
" clip-path="url(#p8e6a27aac1)" style="fill: none; stroke-dasharray: 1.5625,0.9375; stroke-dashoffset: 0; stroke: #3f3f3f; stroke-width: 1.25"/>
   </g>
   <g id="line2d_44">
    <path d="M 92.186765 92.170376 
L 170.291012 89.918011 
L 248.39526 86.047531 
L 326.499508 81.951196 
L 404.603755 80.985897 
" clip-path="url(#p8e6a27aac1)" style="fill: none; stroke: #add8e6; stroke-opacity: 0.8; stroke-width: 1.5; stroke-linecap: square"/>
   </g>
   <g id="line2d_45">
    <path d="M 92.186765 118.566057 
L 170.291012 109.643225 
L 248.39526 91.503639 
L 326.499508 83.461024 
L 404.603755 79.347672 
" clip-path="url(#p8e6a27aac1)" style="fill: none; stroke: #ffa500; stroke-opacity: 0.7; stroke-width: 1.5; stroke-linecap: square"/>
   </g>
   <g id="patch_5">
    <path d="M 63 256.32 
L 63 34.56 
" style="fill: none; stroke: #000000; stroke-width: 0.8; stroke-linejoin: miter; stroke-linecap: square"/>
   </g>
   <g id="patch_6">
    <path d="M 453.6 256.32 
L 453.6 34.56 
" style="fill: none; stroke: #000000; stroke-width: 0.8; stroke-linejoin: miter; stroke-linecap: square"/>
   </g>
   <g id="patch_7">
    <path d="M 63 256.32 
L 453.6 256.32 
" style="fill: none; stroke: #000000; stroke-width: 0.8; stroke-linejoin: miter; stroke-linecap: square"/>
   </g>
   <g id="patch_8">
    <path d="M 63 34.56 
L 453.6 34.56 
" style="fill: none; stroke: #000000; stroke-width: 0.8; stroke-linejoin: miter; stroke-linecap: square"/>
   </g>
   <g id="text_16">
    <!-- Accuracy vs percent labelled -->
    <g transform="translate(171.85125 28.56) scale(0.12 -0.12)">
     <defs>
      <path id="DejaVuSans-76" d="M 191 3500 
L 800 3500 
L 1894 563 
L 2988 3500 
L 3597 3500 
L 2284 0 
L 1503 0 
L 191 3500 
z
" transform="scale(0.015625)"/>
      <path id="DejaVuSans-73" d="M 2834 3397 
L 2834 2853 
Q 2591 2978 2328 3040 
Q 2066 3103 1784 3103 
Q 1356 3103 1142 2972 
Q 928 2841 928 2578 
Q 928 2378 1081 2264 
Q 1234 2150 1697 2047 
L 1894 2003 
Q 2506 1872 2764 1633 
Q 3022 1394 3022 966 
Q 3022 478 2636 193 
Q 2250 -91 1575 -91 
Q 1294 -91 989 -36 
Q 684 19 347 128 
L 347 722 
Q 666 556 975 473 
Q 1284 391 1588 391 
Q 1994 391 2212 530 
Q 2431 669 2431 922 
Q 2431 1156 2273 1281 
Q 2116 1406 1581 1522 
L 1381 1569 
Q 847 1681 609 1914 
Q 372 2147 372 2553 
Q 372 3047 722 3315 
Q 1072 3584 1716 3584 
Q 2034 3584 2315 3537 
Q 2597 3491 2834 3397 
z
" transform="scale(0.015625)"/>
      <path id="DejaVuSans-70" d="M 1159 525 
L 1159 -1331 
L 581 -1331 
L 581 3500 
L 1159 3500 
L 1159 2969 
Q 1341 3281 1617 3432 
Q 1894 3584 2278 3584 
Q 2916 3584 3314 3078 
Q 3713 2572 3713 1747 
Q 3713 922 3314 415 
Q 2916 -91 2278 -91 
Q 1894 -91 1617 61 
Q 1341 213 1159 525 
z
M 3116 1747 
Q 3116 2381 2855 2742 
Q 2594 3103 2138 3103 
Q 1681 3103 1420 2742 
Q 1159 2381 1159 1747 
Q 1159 1113 1420 752 
Q 1681 391 2138 391 
Q 2594 391 2855 752 
Q 3116 1113 3116 1747 
z
" transform="scale(0.015625)"/>
     </defs>
     <use xlink:href="#DejaVuSans-41"/>
     <use xlink:href="#DejaVuSans-63" x="66.658203"/>
     <use xlink:href="#DejaVuSans-63" x="121.638672"/>
     <use xlink:href="#DejaVuSans-75" x="176.619141"/>
     <use xlink:href="#DejaVuSans-72" x="239.998047"/>
     <use xlink:href="#DejaVuSans-61" x="281.111328"/>
     <use xlink:href="#DejaVuSans-63" x="342.390625"/>
     <use xlink:href="#DejaVuSans-79" x="397.371094"/>
     <use xlink:href="#DejaVuSans-20" x="456.550781"/>
     <use xlink:href="#DejaVuSans-76" x="488.337891"/>
     <use xlink:href="#DejaVuSans-73" x="547.517578"/>
     <use xlink:href="#DejaVuSans-20" x="599.617188"/>
     <use xlink:href="#DejaVuSans-70" x="631.404297"/>
     <use xlink:href="#DejaVuSans-65" x="694.880859"/>
     <use xlink:href="#DejaVuSans-72" x="756.404297"/>
     <use xlink:href="#DejaVuSans-63" x="795.267578"/>
     <use xlink:href="#DejaVuSans-65" x="850.248047"/>
     <use xlink:href="#DejaVuSans-6e" x="911.771484"/>
     <use xlink:href="#DejaVuSans-74" x="975.150391"/>
     <use xlink:href="#DejaVuSans-20" x="1014.359375"/>
     <use xlink:href="#DejaVuSans-6c" x="1046.146484"/>
     <use xlink:href="#DejaVuSans-61" x="1073.929688"/>
     <use xlink:href="#DejaVuSans-62" x="1135.208984"/>
     <use xlink:href="#DejaVuSans-65" x="1198.685547"/>
     <use xlink:href="#DejaVuSans-6c" x="1260.208984"/>
     <use xlink:href="#DejaVuSans-6c" x="1287.992188"/>
     <use xlink:href="#DejaVuSans-65" x="1315.775391"/>
     <use xlink:href="#DejaVuSans-64" x="1377.298828"/>
    </g>
   </g>
   <g id="legend_1">
    <g id="patch_9">
     <path d="M 349.851562 251.32 
L 446.6 251.32 
Q 448.6 251.32 448.6 249.32 
L 448.6 220.96375 
Q 448.6 218.96375 446.6 218.96375 
L 349.851562 218.96375 
Q 347.851562 218.96375 347.851562 220.96375 
L 347.851562 249.32 
Q 347.851562 251.32 349.851562 251.32 
z
" style="fill: #ffffff; opacity: 0.8; stroke: #cccccc; stroke-linejoin: miter"/>
    </g>
    <g id="patch_10">
     <path d="M 351.851562 230.562187 
L 371.851562 230.562187 
L 371.851562 223.562187 
L 351.851562 223.562187 
z
" style="fill: #3274a1; opacity: 0.6; stroke: #3f3f3f; stroke-width: 1.25; stroke-linejoin: miter"/>
    </g>
    <g id="text_17">
     <!-- convpaint -->
     <g transform="translate(379.851562 230.562187) scale(0.1 -0.1)">
      <defs>
       <path id="DejaVuSans-6f" d="M 1959 3097 
Q 1497 3097 1228 2736 
Q 959 2375 959 1747 
Q 959 1119 1226 758 
Q 1494 397 1959 397 
Q 2419 397 2687 759 
Q 2956 1122 2956 1747 
Q 2956 2369 2687 2733 
Q 2419 3097 1959 3097 
z
M 1959 3584 
Q 2709 3584 3137 3096 
Q 3566 2609 3566 1747 
Q 3566 888 3137 398 
Q 2709 -91 1959 -91 
Q 1206 -91 779 398 
Q 353 888 353 1747 
Q 353 2609 779 3096 
Q 1206 3584 1959 3584 
z
" transform="scale(0.015625)"/>
       <path id="DejaVuSans-69" d="M 603 3500 
L 1178 3500 
L 1178 0 
L 603 0 
L 603 3500 
z
M 603 4863 
L 1178 4863 
L 1178 4134 
L 603 4134 
L 603 4863 
z
" transform="scale(0.015625)"/>
      </defs>
      <use xlink:href="#DejaVuSans-63"/>
      <use xlink:href="#DejaVuSans-6f" x="54.980469"/>
      <use xlink:href="#DejaVuSans-6e" x="116.162109"/>
      <use xlink:href="#DejaVuSans-76" x="179.541016"/>
      <use xlink:href="#DejaVuSans-70" x="238.720703"/>
      <use xlink:href="#DejaVuSans-61" x="302.197266"/>
      <use xlink:href="#DejaVuSans-69" x="363.476562"/>
      <use xlink:href="#DejaVuSans-6e" x="391.259766"/>
      <use xlink:href="#DejaVuSans-74" x="454.638672"/>
     </g>
    </g>
    <g id="patch_11">
     <path d="M 351.851562 245.240313 
L 371.851562 245.240313 
L 371.851562 238.240313 
L 351.851562 238.240313 
z
" style="fill: #e1812c; opacity: 0.6; stroke: #3f3f3f; stroke-width: 1.25; stroke-linejoin: miter"/>
    </g>
    <g id="text_18">
     <!-- classic filters -->
     <g transform="translate(379.851562 245.240313) scale(0.1 -0.1)">
      <defs>
       <path id="DejaVuSans-66" d="M 2375 4863 
L 2375 4384 
L 1825 4384 
Q 1516 4384 1395 4259 
Q 1275 4134 1275 3809 
L 1275 3500 
L 2222 3500 
L 2222 3053 
L 1275 3053 
L 1275 0 
L 697 0 
L 697 3053 
L 147 3053 
L 147 3500 
L 697 3500 
L 697 3744 
Q 697 4328 969 4595 
Q 1241 4863 1831 4863 
L 2375 4863 
z
" transform="scale(0.015625)"/>
      </defs>
      <use xlink:href="#DejaVuSans-63"/>
      <use xlink:href="#DejaVuSans-6c" x="54.980469"/>
      <use xlink:href="#DejaVuSans-61" x="82.763672"/>
      <use xlink:href="#DejaVuSans-73" x="144.042969"/>
      <use xlink:href="#DejaVuSans-73" x="196.142578"/>
      <use xlink:href="#DejaVuSans-69" x="248.242188"/>
      <use xlink:href="#DejaVuSans-63" x="276.025391"/>
      <use xlink:href="#DejaVuSans-20" x="331.005859"/>
      <use xlink:href="#DejaVuSans-66" x="362.792969"/>
      <use xlink:href="#DejaVuSans-69" x="397.998047"/>
      <use xlink:href="#DejaVuSans-6c" x="425.78125"/>
      <use xlink:href="#DejaVuSans-74" x="453.564453"/>
      <use xlink:href="#DejaVuSans-65" x="492.773438"/>
      <use xlink:href="#DejaVuSans-72" x="554.296875"/>
      <use xlink:href="#DejaVuSans-73" x="595.410156"/>
     </g>
    </g>
   </g>
  </g>
 </g>
 <defs>
  <clipPath id="p8e6a27aac1">
   <rect x="63" y="34.56" width="390.6" height="221.76"/>
  </clipPath>
 </defs>
</svg>
